SplineFontDB: 3.2
FontName: FreeMonoBoldOblique
FullName: FreeMono Bold Oblique
FamilyName: FreeMono
Weight: Bold
Copyright: Copyright 2002, 2003, 2005, 2008, 2009, 2010, 2012, 2020 GNU Freefont contributors.
Version: $Revision$
ItalicAngle: -12
UnderlinePosition: -100
UnderlineWidth: 75
Ascent: 800
Descent: 200
InvalidEm: 0
LayerCount: 2
Layer: 0 0 "Back" 1
Layer: 1 0 "Fore" 0
FSType: 0
OS2Version: 4
OS2_WeightWidthSlopeOnly: 0
OS2_UseTypoMetrics: 1
CreationTime: 1203284335
ModificationTime: 1607115075
PfmFamily: 49
TTFWeight: 700
TTFWidth: 5
LineGap: 0
VLineGap: 0
Panose: 2 15 6 9 2 2 5 9 4 4
OS2TypoAscent: 800
OS2TypoAOffset: 0
OS2TypoDescent: -200
OS2TypoDOffset: 0
OS2TypoLinegap: 0
OS2WinAscent: 0
OS2WinAOffset: 1
OS2WinDescent: 0
OS2WinDOffset: 1
HheadAscent: 800
HheadAOffset: 0
HheadDescent: -200
HheadDOffset: 0
OS2SubXSize: 650
OS2SubYSize: 699
OS2SubXOff: 47
OS2SubYOff: 140
OS2SupXSize: 650
OS2SupYSize: 699
OS2SupXOff: -163
OS2SupYOff: 479
OS2StrikeYSize: 49
OS2StrikeYPos: 258
OS2FamilyClass: 1285
OS2Vendor: 'GNU '
OS2CodePages: 600001bf.00000000
OS2UnicodeRanges: e4000aff.400061ff.08000020.00000000
Lookup: 1 0 0 "'locl' local. forms in Greek" { "'locl' local. forms in Greek-1"  } ['locl' ('grek' <'COP ' 'ELL ' 'PGR ' > ) ]
Lookup: 2 0 0 "'locl' local forms in Greek-multiple" { "'locl' local forms in Greek Extended-accent+-Upsilon"  "'locl' local forms in Greek Extended-Upsilon+-cmb"  } ['locl' ('grek' <'ELL ' 'PGR ' > ) ]
Lookup: 1 0 0 "'dnom' denominators" { "'dnom' denominators-1"  } []
Lookup: 1 0 0 "'numr' numerators" { "'numr' numerators-1"  } []
Lookup: 6 0 0 "'ccmp' remove dot followed by mark in Latin" { "'ccmp' remove dot followed by mark in Latin"  } ['ccmp' ('latn' <'AZE ' 'CAT ' 'CRT ' 'DEU ' 'ESP ' 'ISM ' 'KAZ ' 'LSM ' 'NLD ' 'NSM ' 'SKS ' 'TAT ' 'TRK ' 'VIT ' 'dflt' > ) ]
Lookup: 1 0 0 "subst. i,j with dotless form" { "subst. i,j with dotless form-1"  } []

StartChar: exclam
Encoding: 33 33 1
Width: 600
Flags: HMW
LayerCount: 2
Fore
SplineSet
490 525 m 2
 398 228 l 2
 388 197 366 179 338 179 c 0
 313 179 298 194 298 219 c 0
 298 221 298 225 299 228 c 1
 333 525 l 2
 342 599 378 638 435 638 c 0
 474 638 501 613 501 577 c 0
 501 564 499 553 490 525 c 2
305 -15 m 2
 288 -15 l 2
 256 -15 234 7 234 38 c 0
 234 78 274 117 316 117 c 2
 333 117 l 2
 365 117 387 95 387 65 c 0
 387 24 348 -15 305 -15 c 2
EndSplineSet
Validated: 3073
EndChar

StartChar: quotedbl
Encoding: 34 34 2
Width: 600
Flags: HMW
LayerCount: 2
Fore
SplineSet
264 602 m 1
 392 602 l 1
 306 348 l 2
 298 323 287 312 267 312 c 0
 253 312 243 322 243 335 c 0
 243 337 244 342 244 347 c 2
 264 602 l 1
464 602 m 1
 592 602 l 1
 507 348 l 2
 498 322 487 312 467 312 c 0
 453 312 443 322 443 335 c 0
 443 336 444 342 444 347 c 2
 464 602 l 1
EndSplineSet
Validated: 3073
EndChar

StartChar: numbersign
Encoding: 35 35 3
Width: 600
Flags: HMW
LayerCount: 2
Fore
SplineSet
165 384 m 0
 165 406 176 444 243 444 c 2
 270 444 l 1
 317 612 l 2
 328 654 349 675 382 675 c 0
 404 675 422 658 422 638 c 0
 422 630 421 624 416 605 c 2
 370 444 l 1
 442 444 l 1
 489 612 l 2
 493 628 504 675 554 675 c 0
 576 675 594 658 594 635 c 0
 594 630 594 630 587 605 c 2
 541 444 l 1
 566 444 l 2
 597 444 623 440 623 404 c 0
 623 379 607 344 545 344 c 2
 513 344 l 1
 483 238 l 1
 502 238 l 2
 535 238 560 233 560 199 c 0
 560 174 544 139 481 139 c 2
 455 139 l 1
 408 -29 l 2
 399 -58 382 -92 342 -92 c 0
 320 -92 303 -75 303 -54 c 0
 303 -46 303 -46 310 -22 c 2
 356 139 l 1
 284 139 l 1
 236 -29 l 2
 224 -69 205 -92 172 -92 c 0
 150 -92 132 -75 132 -54 c 0
 132 -46 133 -39 138 -22 c 2
 184 139 l 1
 158 139 l 2
 117 139 101 150 101 179 c 0
 101 200 113 238 179 238 c 2
 212 238 l 1
 242 344 l 1
 222 344 l 2
 189 344 165 349 165 384 c 0
414 344 m 1
 342 344 l 1
 312 238 l 1
 383 238 l 1
 414 344 l 1
EndSplineSet
Validated: 3073
EndChar

StartChar: dollar
Encoding: 36 36 4
Width: 600
Flags: HMW
LayerCount: 2
Fore
SplineSet
487 646 m 0
 487 637 480 605 477 592 c 1
 488 590 492 590 500 588 c 2
 510 585 l 2
 522 580 527 577 541 574 c 1
 553 579 560 581 570 581 c 0
 593 581 610 565 610 544 c 0
 610 537 609 527 606 515 c 2
 599 483 l 2
 596 469 587 417 535 417 c 0
 507 417 492 432 492 460 c 0
 492 478 455 495 415 495 c 0
 350 495 302 465 302 424 c 0
 302 402 323 386 366 377 c 2
 428 363 l 2
 525 342 564 306 564 235 c 0
 564 134 481 50 357 27 c 1
 339 -56 l 2
 336 -68 327 -123 276 -123 c 0
 253 -123 236 -107 236 -86 c 0
 236 -79 237 -69 240 -56 c 2
 258 27 l 1
 218 36 212 38 184 52 c 1
 165 38 155 34 141 34 c 0
 117 34 100 50 100 72 c 0
 100 78 101 85 104 101 c 2
 117 162 l 2
 130 224 167 229 182 229 c 0
 223 229 221 198 222 180 c 0
 224 149 271 124 328 124 c 0
 399 124 458 164 458 214 c 0
 458 240 437 255 389 265 c 2
 319 280 l 2
 237 297 196 338 196 403 c 0
 196 493 275 575 378 592 c 1
 384 618 l 2
 387 634 397 684 448 684 c 0
 470 684 487 668 487 646 c 0
EndSplineSet
Validated: 3073
EndChar

StartChar: percent
Encoding: 37 37 5
Width: 600
Flags: HMW
LayerCount: 2
Fore
SplineSet
360 617 m 0
 427 617 473 572 473 506 c 0
 473 419 389 338 299 338 c 0
 235 338 188 385 188 449 c 0
 188 535 272 617 360 617 c 0
346 552 m 0
 299 552 254 508 254 463 c 0
 254 428 279 403 314 403 c 0
 362 403 407 447 407 493 c 0
 407 527 382 552 346 552 c 0
562 331 m 2
 174 213 l 2
 166 210 158 209 153 209 c 0
 140 209 131 220 131 235 c 0
 131 253 142 264 168 272 c 2
 555 390 l 2
 568 394 570 394 576 394 c 0
 590 394 599 383 599 368 c 0
 599 350 588 338 562 331 c 2
425 264 m 0
 492 264 538 219 538 153 c 0
 538 66 454 -15 364 -15 c 0
 300 -15 253 32 253 96 c 0
 253 182 337 264 425 264 c 0
411 199 m 0
 365 199 320 155 320 109 c 0
 320 75 345 50 379 50 c 0
 427 50 472 93 472 139 c 0
 472 175 447 199 411 199 c 0
EndSplineSet
Validated: 3073
EndChar

StartChar: ampersand
Encoding: 38 38 6
Width: 600
Flags: HMW
LayerCount: 2
Fore
SplineSet
520 60 m 0
 520 35 504 0 442 0 c 2
 381 0 l 1
 373 15 l 1
 339 -6 307 -14 255 -14 c 0
 160 -14 102 32 102 106 c 0
 102 186 152 260 236 303 c 1
 223 336 219 355 219 374 c 0
 219 460 315 550 406 550 c 0
 430 550 449 545 473 533 c 1
 485 538 495 540 503 540 c 0
 523 540 541 521 541 501 c 0
 541 473 528 458 488 438 c 2
 441 416 l 1
 419 442 405 450 385 450 c 0
 353 450 321 421 321 392 c 0
 321 384 329 362 338 343 c 2
 407 198 l 1
 448 280 l 1
 500 280 l 2
 534 280 557 275 557 241 c 0
 557 210 531 182 502 180 c 1
 483 140 472 121 455 100 c 1
 463 100 l 2
 494 100 520 96 520 60 c 0
333 100 m 1
 275 220 l 1
 231 201 204 167 204 129 c 0
 204 100 228 86 275 86 c 0
 300 86 312 89 333 100 c 1
EndSplineSet
Validated: 3073
EndChar

StartChar: quotesingle
Encoding: 39 39 7
Width: 600
Flags: HMW
LayerCount: 2
Fore
SplineSet
364 602 m 1
 492 602 l 1
 407 348 l 2
 398 322 387 312 367 312 c 0
 353 312 343 322 343 335 c 0
 343 337 344 342 344 347 c 2
 364 602 l 1
EndSplineSet
Validated: 3073
EndChar

StartChar: parenleft
Encoding: 40 40 8
Width: 600
Flags: HMW
LayerCount: 2
Fore
SplineSet
416 140 m 0
 416 1 467 -51 467 -92 c 0
 467 -124 437 -153 405 -153 c 0
 389 -153 377 -147 370 -134 c 0
 333 -72 304 44 304 131 c 0
 304 269 356 398 471 547 c 0
 524 615 544 632 572 632 c 0
 596 632 613 616 613 593 c 0
 613 578 608 567 593 549 c 0
 470 401 416 276 416 140 c 0
EndSplineSet
Validated: 3073
Substitution2: "'dnom' denominators-1" parenleftinferior
Substitution2: "'numr' numerators-1" parenleftsuperior
EndChar

StartChar: parenright
Encoding: 41 41 9
Width: 600
Flags: HMW
LayerCount: 2
Fore
SplineSet
291 340 m 0
 291 479 240 531 240 571 c 0
 240 603 269 632 302 632 c 0
 318 632 330 626 337 613 c 0
 374 551 403 435 403 348 c 0
 403 210 353 84 236 -68 c 0
 184 -135 163 -153 135 -153 c 0
 111 -153 94 -137 94 -114 c 0
 94 -99 99 -88 114 -70 c 0
 239 81 291 202 291 340 c 0
EndSplineSet
Validated: 3073
Substitution2: "'dnom' denominators-1" parenrightinferior
Substitution2: "'numr' numerators-1" parenrightsuperior
EndChar

StartChar: asterisk
Encoding: 42 42 10
Width: 600
Flags: HMW
LayerCount: 2
Fore
SplineSet
298 372 m 1
 218 400 l 2
 188 410 178 420 178 441 c 0
 178 472 207 502 238 502 c 0
 246 502 249 501 269 495 c 2
 349 467 l 1
 368 556 l 2
 378 600 399 622 432 622 c 0
 455 622 472 606 472 584 c 0
 472 578 471 569 468 556 c 2
 449 467 l 1
 541 495 l 2
 563 501 566 502 576 502 c 0
 597 502 614 484 614 462 c 0
 614 432 595 413 552 400 c 2
 460 372 l 1
 497 301 l 2
 506 283 508 276 508 267 c 0
 508 238 477 208 446 208 c 0
 426 208 417 214 403 242 c 2
 367 314 l 1
 299 242 l 2
 273 214 263 208 243 208 c 0
 219 208 202 225 202 248 c 0
 202 265 208 276 231 301 c 2
 298 372 l 1
EndSplineSet
Validated: 3073
EndChar

StartChar: plus
Encoding: 43 43 11
Width: 600
Flags: HMW
LayerCount: 2
Fore
SplineSet
619 290 m 0
 619 266 603 230 541 230 c 2
 399 230 l 1
 365 66 l 2
 362 53 353 0 301 0 c 0
 278 0 261 16 261 37 c 0
 261 44 263 57 265 66 c 2
 299 230 l 1
 158 230 l 2
 117 230 101 241 101 270 c 0
 101 293 113 330 179 330 c 2
 321 330 l 1
 355 494 l 2
 365 538 386 560 420 560 c 0
 443 560 460 544 460 522 c 0
 460 515 459 513 455 494 c 2
 421 330 l 1
 562 330 l 2
 599 330 619 325 619 290 c 0
EndSplineSet
Validated: 3073
Substitution2: "'dnom' denominators-1" plusinferior
Substitution2: "'numr' numerators-1" plussuperior
EndChar

StartChar: comma
Encoding: 44 44 12
Width: 600
Flags: HMW
LayerCount: 2
Fore
SplineSet
246 134 m 1
 379 134 l 1
 181 -134 l 2
 169 -150 156 -158 144 -158 c 0
 130 -158 118 -148 118 -136 c 0
 118 -129 119 -125 126 -111 c 2
 246 134 l 1
EndSplineSet
Validated: 3073
Substitution2: "'dnom' denominators-1" sub.comma
Substitution2: "'numr' numerators-1" sup.comma
EndChar

StartChar: hyphen
Encoding: 45 45 13
Width: 600
Flags: HMW
LayerCount: 2
Fore
SplineSet
619 290 m 0
 619 265 603 229 541 229 c 2
 158 229 l 2
 117 229 101 240 101 269 c 0
 101 294 117 329 179 329 c 2
 562 329 l 2
 595 329 619 324 619 290 c 0
EndSplineSet
Validated: 3073
EndChar

StartChar: period
Encoding: 46 46 14
Width: 600
Flags: HMW
LayerCount: 2
Fore
SplineSet
305 -15 m 2
 288 -15 l 2
 256 -15 234 7 234 38 c 0
 234 78 274 117 316 117 c 2
 333 117 l 2
 365 117 387 95 387 65 c 0
 387 24 347 -15 305 -15 c 2
EndSplineSet
Validated: 3073
Substitution2: "'dnom' denominators-1" sub.period
Substitution2: "'numr' numerators-1" sup.period
EndChar

StartChar: slash
Encoding: 47 47 15
Width: 600
Flags: HMW
LayerCount: 2
Fore
SplineSet
636 610 m 2
 171 -69 l 2
 148 -103 134 -113 110 -113 c 0
 87 -113 69 -96 69 -74 c 0
 69 -61 75 -49 90 -27 c 2
 555 651 l 2
 578 685 592 695 616 695 c 0
 639 695 656 678 656 656 c 0
 656 643 652 634 636 610 c 2
EndSplineSet
Validated: 3073
EndChar

StartChar: zero
Encoding: 48 48 16
Width: 600
Flags: HMW
LayerCount: 2
Fore
SplineSet
593 359 m 2
 573 264 l 2
 533 73 408 -15 296 -15 c 0
 190 -15 130 55 130 179 c 0
 130 207 133 236 139 264 c 2
 159 359 l 2
 199 550 323 638 436 638 c 0
 542 638 602 568 602 444 c 0
 602 416 599 387 593 359 c 2
260 366 m 2
 238 257 l 2
 233 237 231 216 231 195 c 0
 231 126 263 85 318 85 c 0
 388 85 449 153 471 257 c 2
 494 366 l 2
 499 386 501 407 501 428 c 0
 501 498 469 538 414 538 c 0
 343 538 281 470 260 366 c 2
EndSplineSet
Validated: 3073
Substitution2: "'dnom' denominators-1" zeroinferior
Substitution2: "'numr' numerators-1" zerosuperior
Substitution2: "'zero' slashed zero-1" zeroslashed
EndChar

StartChar: one
Encoding: 49 49 17
Width: 600
Flags: HMW
LayerCount: 2
Fore
SplineSet
170 100 m 2
 271 100 l 1
 362 528 l 1
 268 470 l 2
 255 461 245 457 224 457 c 0
 205 457 190 468 190 488 c 0
 190 523 225 542 232 546 c 2
 387 638 l 1
 486 638 l 1
 371 100 l 1
 472 100 l 2
 503 100 529 94 529 64 c 0
 529 42 520 0 451 0 c 2
 149 0 l 2
 103 0 92 19 92 38 c 0
 92 63 103 100 170 100 c 2
EndSplineSet
Validated: 3073
Substitution2: "'dnom' denominators-1" oneinferior
Substitution2: "'numr' numerators-1" onesuperior
EndChar

StartChar: two
Encoding: 50 50 18
Width: 600
Flags: HMW
LayerCount: 2
Fore
SplineSet
173 460 m 0
 173 496 255 638 426 638 c 0
 530 638 602 575 602 484 c 0
 602 360 481 284 352 189 c 2
 228 100 l 1
 430 100 l 1
 440 136 460 154 491 154 c 0
 514 154 531 138 531 116 c 0
 531 109 531 105 527 88 c 2
 508 0 l 1
 54 0 l 1
 76 105 l 1
 350 301 l 2
 486 399 500 422 500 465 c 0
 500 507 459 538 403 538 c 0
 266 538 287 422 214 422 c 0
 192 422 173 439 173 460 c 0
EndSplineSet
Validated: 3073
Substitution2: "'dnom' denominators-1" twoinferior
Substitution2: "'numr' numerators-1" twosuperior
EndChar

StartChar: three
Encoding: 51 51 19
Width: 600
Flags: HMW
LayerCount: 2
Fore
SplineSet
286 85 m 0
 442 85 469 154 469 201 c 0
 469 235 446 282 337 287 c 0
 308 289 294 301 294 324 c 0
 294 355 324 383 357 383 c 2
 398 383 l 2
 454 383 507 429 507 477 c 0
 507 515 470 538 410 538 c 0
 287 538 302 477 246 477 c 0
 224 477 206 494 206 516 c 0
 206 578 320 638 438 638 c 0
 543 638 609 582 609 495 c 0
 609 430 569 376 494 336 c 0
 493 336 490 335 487 333 c 1
 544 302 571 262 571 211 c 0
 571 163 539 99 494 58 c 0
 438 6 372 -15 268 -15 c 0
 156 -15 80 15 80 58 c 0
 80 91 109 120 142 120 c 0
 175 120 159 85 286 85 c 0
EndSplineSet
Validated: 3073
Substitution2: "'dnom' denominators-1" threeinferior
Substitution2: "'numr' numerators-1" threesuperior
EndChar

StartChar: four
Encoding: 52 52 20
Width: 600
Flags: HMW
LayerCount: 2
Fore
SplineSet
252 40 m 0
 252 64 268 100 330 100 c 2
 368 100 l 1
 376 138 l 1
 104 138 l 1
 122 221 l 1
 448 622 l 1
 579 622 l 1
 497 238 l 1
 533 238 549 226 549 198 c 0
 549 178 535 138 476 138 c 1
 468 100 l 1
 503 100 520 87 520 60 c 0
 520 37 505 0 441 0 c 2
 309 0 l 2
 268 0 252 12 252 40 c 0
397 238 m 1
 449 480 l 1
 248 238 l 1
 397 238 l 1
EndSplineSet
Validated: 3073
Substitution2: "'dnom' denominators-1" fourinferior
Substitution2: "'numr' numerators-1" foursuperior
EndChar

StartChar: five
Encoding: 53 53 21
Width: 600
Flags: HMW
LayerCount: 2
Fore
SplineSet
610 583 m 0
 610 557 594 522 532 522 c 2
 330 522 l 1
 306 407 l 1
 345 418 379 424 410 424 c 0
 511 424 578 357 578 255 c 0
 578 164 523 -15 274 -15 c 0
 165 -15 83 22 83 72 c 0
 83 104 113 133 145 133 c 0
 183 133 169 85 295 85 c 0
 449 85 476 174 476 236 c 0
 476 290 441 324 387 324 c 0
 318 324 252 282 229 282 c 0
 207 282 189 299 189 320 c 2
 189 322 l 2
 189 327 190 332 191 338 c 2
 252 622 l 1
 553 622 l 2
 587 622 610 617 610 583 c 0
EndSplineSet
Validated: 3073
Substitution2: "'dnom' denominators-1" fiveinferior
Substitution2: "'numr' numerators-1" fivesuperior
EndChar

StartChar: six
Encoding: 54 54 22
Width: 600
Flags: HMW
LayerCount: 2
Fore
SplineSet
600 522 m 0
 576 522 564 535 543 535 c 0
 435 535 327 446 276 324 c 1
 335 374 377 394 428 394 c 0
 515 394 581 327 581 238 c 0
 581 184 537 -15 328 -15 c 0
 212 -15 154 50 154 180 c 0
 154 428 321 551 398 594 c 0
 452 624 502 638 559 638 c 0
 622 638 663 616 663 583 c 0
 663 552 632 522 600 522 c 0
401 294 m 0
 345 294 261 232 261 194 c 0
 261 107 304 85 352 85 c 0
 459 85 478 189 478 214 c 0
 478 260 445 294 401 294 c 0
EndSplineSet
Validated: 3073
Substitution2: "'dnom' denominators-1" sixinferior
Substitution2: "'numr' numerators-1" sixsuperior
EndChar

StartChar: seven
Encoding: 55 55 23
Width: 600
Flags: HMW
LayerCount: 2
Fore
SplineSet
513 522 m 1
 285 522 l 1
 275 486 255 468 224 468 c 0
 201 468 184 484 184 506 c 0
 184 512 185 521 188 534 c 2
 207 622 l 1
 640 622 l 1
 619 523 l 1
 359 48 l 2
 339 12 322 -1 295 -1 c 0
 273 -1 254 17 254 37 c 0
 254 48 257 57 270 81 c 2
 513 522 l 1
EndSplineSet
Validated: 3073
Substitution2: "'dnom' denominators-1" seveninferior
Substitution2: "'numr' numerators-1" sevensuperior
EndChar

StartChar: eight
Encoding: 56 56 24
Width: 600
Flags: HMW
LayerCount: 2
Fore
SplineSet
185 429 m 0
 185 515 285 638 435 638 c 0
 537 638 608 576 608 489 c 0
 608 421 569 367 487 319 c 1
 534 286 556 246 556 198 c 0
 556 154 533 101 499 64 c 0
 454 16 375 -15 295 -15 c 0
 183 -15 114 40 114 129 c 0
 114 205 161 271 248 319 c 1
 204 353 185 386 185 429 c 0
413 538 m 0
 341 538 285 492 285 433 c 0
 285 392 321 364 376 364 c 0
 447 364 505 410 505 466 c 0
 505 511 470 538 413 538 c 0
357 263 m 0
 283 263 218 214 218 158 c 0
 218 113 257 85 318 85 c 0
 394 85 456 131 456 187 c 0
 456 231 414 263 357 263 c 0
EndSplineSet
Validated: 3073
Substitution2: "'dnom' denominators-1" eightinferior
Substitution2: "'numr' numerators-1" eightsuperior
EndChar

StartChar: nine
Encoding: 57 57 25
Width: 600
Flags: HMW
LayerCount: 2
Fore
SplineSet
178 101 m 0
 203 101 213 88 235 88 c 0
 338 88 450 174 502 299 c 1
 442 248 401 229 350 229 c 0
 263 229 197 296 197 385 c 0
 197 437 238 638 450 638 c 0
 566 638 624 573 624 443 c 0
 624 195 457 72 380 29 c 0
 326 -1 276 -15 219 -15 c 0
 157 -15 115 7 115 40 c 0
 115 71 146 101 178 101 c 0
377 329 m 0
 435 329 517 395 517 428 c 0
 517 516 476 538 426 538 c 0
 319 538 300 433 300 408 c 0
 300 363 333 329 377 329 c 0
EndSplineSet
Validated: 3073
Substitution2: "'dnom' denominators-1" nineinferior
Substitution2: "'numr' numerators-1" ninesuperior
EndChar

StartChar: colon
Encoding: 58 58 26
Width: 600
Flags: HMW
LayerCount: 2
Fore
SplineSet
305 -15 m 2
 288 -15 l 2
 256 -15 234 7 234 38 c 0
 234 78 274 117 316 117 c 2
 333 117 l 2
 365 117 387 95 387 65 c 0
 387 24 348 -15 305 -15 c 2
373 304 m 2
 356 304 l 2
 324 304 302 326 302 357 c 0
 302 398 342 437 384 437 c 2
 401 437 l 2
 433 437 455 415 455 384 c 0
 455 343 415 304 373 304 c 2
EndSplineSet
Validated: 3073
EndChar

StartChar: semicolon
Encoding: 59 59 27
Width: 600
Flags: HMW
LayerCount: 2
Fore
SplineSet
247 134 m 1
 379 134 l 1
 181 -134 l 2
 169 -150 156 -158 144 -158 c 0
 130 -158 118 -148 118 -136 c 0
 118 -129 119 -125 126 -111 c 2
 247 134 l 1
368 437 m 0
 409 437 431 418 431 384 c 0
 431 339 391 304 340 304 c 0
 301 304 278 323 278 357 c 0
 278 401 318 437 368 437 c 0
EndSplineSet
Validated: 3073
EndChar

StartChar: less
Encoding: 60 60 28
Width: 600
Flags: HMW
LayerCount: 2
Fore
SplineSet
609 501 m 0
 616 501 642 493 642 463 c 0
 642 442 629 425 600 412 c 2
 311 279 l 1
 543 143 l 2
 561 132 567 124 567 109 c 0
 567 86 541 54 514 54 c 0
 506 54 496 57 486 63 c 2
 102 280 l 1
 577 492 l 2
 590 498 601 501 609 501 c 0
EndSplineSet
Validated: 3073
EndChar

StartChar: equal
Encoding: 61 61 29
Width: 600
Flags: HMW
LayerCount: 2
Fore
SplineSet
120 362 m 0
 120 385 132 422 198 422 c 2
 581 422 l 2
 618 422 638 417 638 382 c 0
 638 358 622 322 560 322 c 2
 177 322 l 2
 136 322 120 333 120 362 c 0
81 178 m 0
 81 201 93 238 159 238 c 2
 542 238 l 2
 579 238 599 233 599 198 c 0
 599 173 583 138 521 138 c 2
 138 138 l 2
 97 138 81 149 81 178 c 0
EndSplineSet
Validated: 3073
EndChar

StartChar: greater
Encoding: 62 62 30
Width: 600
Flags: HMW
LayerCount: 2
Fore
SplineSet
109 53 m 0
 102 53 76 61 76 91 c 0
 76 113 89 129 118 142 c 2
 407 275 l 1
 175 412 l 2
 157 422 151 430 151 445 c 0
 151 474 183 500 204 500 c 0
 212 500 222 497 232 491 c 2
 616 274 l 1
 141 62 l 2
 128 56 116 53 109 53 c 0
EndSplineSet
Validated: 3073
EndChar

StartChar: question
Encoding: 63 63 31
Width: 600
Flags: HMW
LayerCount: 2
Fore
SplineSet
608 450 m 0
 608 324 509 271 401 228 c 1
 389 192 368 174 339 174 c 0
 317 174 299 191 299 211 c 0
 299 219 300 221 304 240 c 2
 315 296 l 1
 466 349 506 377 506 428 c 0
 506 472 473 498 415 498 c 0
 377 498 340 490 304 474 c 1
 301 460 l 2
 298 448 289 394 237 394 c 0
 215 394 197 410 197 431 c 0
 197 437 198 447 201 460 c 2
 218 539 l 1
 327 586 370 598 436 598 c 0
 543 598 608 542 608 450 c 0
308 -15 m 2
 290 -15 l 2
 258 -15 236 7 236 38 c 0
 236 78 276 117 318 117 c 2
 336 117 l 2
 367 117 389 95 389 65 c 0
 389 24 350 -15 308 -15 c 2
EndSplineSet
Validated: 3073
EndChar

StartChar: at
Encoding: 64 64 32
Width: 600
Flags: HMW
LayerCount: 2
Fore
SplineSet
534 122 m 0
 534 103 524 72 469 72 c 2
 396 72 l 2
 316 72 262 122 262 196 c 0
 262 299 364 389 492 398 c 1
 496 417 501 436 501 458 c 0
 501 509 469 541 417 541 c 0
 333 541 249 445 222 317 c 2
 189 161 l 2
 182 130 179 103 179 78 c 0
 179 -4 204 -74 289 -74 c 0
 390 -74 404 -25 434 -25 c 0
 453 -25 466 -38 466 -57 c 0
 466 -107 373 -152 269 -152 c 0
 124 -152 98 -27 98 59 c 0
 98 90 101 122 108 154 c 2
 144 323 l 2
 181 495 302 620 433 620 c 0
 524 620 582 563 582 473 c 0
 582 459 580 444 577 429 c 2
 517 148 l 1
 530 142 534 135 534 122 c 0
440 155 m 1
 474 316 l 1
 400 309 343 264 343 211 c 0
 343 177 372 153 413 153 c 0
 419 153 426 153 440 155 c 1
EndSplineSet
Validated: 3073
EndChar

StartChar: A
Encoding: 65 65 33
Width: 600
Flags: HMW
AnchorPoint: "above" 415 583 basechar 0
LayerCount: 2
Fore
SplineSet
428 100 m 2
 451 100 l 1
 441 158 l 1
 203 158 l 1
 167 100 l 1
 190 100 l 2
 225 100 247 90 247 63 c 0
 247 19 221 0 169 0 c 2
 46 0 l 2
 15 0 0 12 0 35 c 0
 0 76 29 100 58 100 c 1
 295 483 l 1
 232 483 l 2
 200 483 174 489 174 519 c 0
 174 571 214 583 253 583 c 2
 469 583 l 1
 565 100 l 1
 589 100 604 92 604 68 c 0
 604 18 577 0 536 0 c 2
 407 0 l 2
 362 0 349 11 349 32 c 0
 349 80 383 100 428 100 c 2
421 258 m 1
 384 450 l 1
 264 258 l 1
 421 258 l 1
EndSplineSet
Validated: 3073
EndChar

StartChar: B
Encoding: 66 66 34
Width: 600
Flags: HMW
AnchorPoint: "above" 400 584 basechar 0
LayerCount: 2
Fore
SplineSet
22 40 m 0
 22 65 38 100 100 100 c 2
 115 100 l 1
 196 483 l 1
 181 483 l 2
 140 483 125 494 125 523 c 0
 125 549 141 583 203 583 c 2
 455 583 l 2
 587 583 620 500 620 448 c 0
 620 391 590 345 529 305 c 1
 584 275 608 239 608 189 c 0
 608 147 585 97 549 63 c 0
 505 21 446 0 374 0 c 2
 79 0 l 2
 38 0 22 12 22 40 c 0
266 342 m 1
 379 342 l 2
 458 342 518 380 518 431 c 0
 518 464 485 483 429 483 c 2
 296 483 l 1
 266 342 l 1
215 100 m 1
 390 100 l 2
 464 100 504 123 504 166 c 0
 504 213 456 242 380 242 c 2
 245 242 l 1
 215 100 l 1
EndSplineSet
Validated: 3073
Substitution2: "'c2sc' caps to small caps in Latin-1" Bsmallcap
EndChar

StartChar: C
Encoding: 67 67 35
Width: 600
Flags: HMW
AnchorPoint: "above" 390 584 basechar 0
LayerCount: 2
Fore
SplineSet
528 404 m 2
 529 427 l 2
 529 464 471 497 405 497 c 0
 206 497 172 266 172 214 c 0
 172 135 235 86 337 86 c 0
 478 86 494 159 537 159 c 0
 560 159 578 141 578 118 c 0
 578 68 472 -14 314 -14 c 0
 166 -14 70 69 70 195 c 0
 70 213 72 231 76 249 c 2
 90 315 l 2
 124 475 267 597 422 597 c 0
 472 597 506 590 566 559 c 1
 583 576 596 583 613 583 c 0
 636 583 653 567 653 545 c 0
 653 538 653 534 649 517 c 2
 631 433 l 2
 628 420 618 367 567 367 c 0
 544 367 528 382 528 404 c 2
EndSplineSet
Validated: 3073
EndChar

StartChar: D
Encoding: 68 68 36
Width: 600
Flags: HMW
AnchorPoint: "above" 400 584 basechar 0
LayerCount: 2
Fore
SplineSet
23 40 m 0
 23 60 38 100 96 100 c 1
 177 483 l 1
 142 483 126 496 126 523 c 0
 126 546 138 583 204 583 c 2
 417 583 l 2
 539 583 622 497 622 369 c 0
 622 167 489 0 285 0 c 2
 80 0 l 2
 39 0 23 12 23 40 c 0
520 350 m 0
 520 406 493 483 387 483 c 2
 277 483 l 1
 196 100 l 1
 306 100 l 2
 347 100 472 105 506 261 c 2
 516 307 l 2
 519 321 520 335 520 350 c 0
EndSplineSet
Validated: 3073
EndChar

StartChar: E
Encoding: 69 69 37
Width: 600
Flags: HMW
AnchorPoint: "above" 390 584 basechar 0
LayerCount: 2
Fore
SplineSet
342 342 m 1
 344 358 355 416 407 416 c 0
 430 416 447 400 447 378 c 0
 447 370 447 369 443 349 c 2
 418 236 l 2
 415 222 406 170 355 170 c 0
 332 170 315 186 315 207 c 0
 315 213 318 233 321 243 c 1
 236 243 l 1
 206 100 l 1
 461 100 l 1
 473 152 l 2
 476 167 486 219 536 219 c 0
 559 219 577 203 577 182 c 0
 577 174 577 170 573 152 c 2
 540 0 l 1
 70 0 l 2
 30 0 13 12 13 40 c 0
 13 66 28 100 91 100 c 2
 106 100 l 1
 187 483 l 1
 172 483 l 2
 131 483 115 494 115 523 c 0
 115 546 127 583 194 583 c 2
 642 583 l 1
 610 433 l 2
 607 418 598 366 546 366 c 0
 524 366 506 382 506 404 c 0
 506 426 516 462 521 483 c 1
 287 483 l 1
 257 342 l 1
 342 342 l 1
EndSplineSet
Validated: 3073
EndChar

StartChar: F
Encoding: 70 70 38
Width: 600
Flags: HMW
AnchorPoint: "above" 380 584 basechar 0
LayerCount: 2
Fore
SplineSet
331 342 m 1
 336 361 344 415 397 415 c 0
 420 415 437 399 437 377 c 0
 437 369 436 368 432 349 c 2
 408 236 l 2
 405 221 395 169 344 169 c 0
 322 169 305 185 305 206 c 0
 305 214 308 233 311 243 c 1
 226 243 l 1
 196 100 l 1
 295 100 l 2
 328 100 352 95 352 61 c 0
 352 37 336 0 274 0 c 2
 60 0 l 2
 19 0 3 12 3 40 c 0
 3 64 19 100 81 100 c 2
 96 100 l 1
 177 483 l 1
 162 483 l 2
 121 483 105 494 105 523 c 0
 105 546 117 583 184 583 c 2
 654 583 l 1
 622 432 l 2
 619 419 610 366 558 366 c 0
 536 366 518 382 518 403 c 0
 518 427 528 460 533 483 c 1
 277 483 l 1
 247 342 l 1
 331 342 l 1
EndSplineSet
Validated: 3073
EndChar

StartChar: G
Encoding: 71 71 39
Width: 600
Flags: HMW
AnchorPoint: "above" 410 584 basechar 0
LayerCount: 2
Fore
SplineSet
565 280 m 2
 598 280 622 275 622 241 c 0
 622 212 601 189 568 180 c 1
 540 48 l 1
 440 0 387 -14 307 -14 c 0
 208 -14 59 16 59 184 c 0
 59 205 62 225 66 246 c 2
 81 317 l 2
 111 460 244 597 424 597 c 0
 478 597 524 587 563 565 c 1
 579 589 591 597 610 597 c 0
 632 597 647 582 647 560 c 0
 647 552 647 550 643 531 c 2
 626 453 l 2
 623 441 614 387 562 387 c 0
 526 387 526 411 524 440 c 0
 522 475 476 497 403 497 c 0
 293 497 203 425 181 317 c 0
 173 280 161 241 161 199 c 0
 161 127 219 86 322 86 c 0
 371 86 411 94 454 111 c 1
 468 180 l 1
 369 180 l 2
 328 180 312 191 312 220 c 0
 312 243 324 280 390 280 c 2
 565 280 l 2
EndSplineSet
Validated: 3073
Substitution2: "'c2sc' caps to small caps in Latin-1" Gsmallcap
EndChar

StartChar: H
Encoding: 72 72 40
Width: 600
Flags: HMW
AnchorPoint: "above" 400 584 basechar 0
LayerCount: 2
Fore
SplineSet
317 40 m 0
 317 64 333 100 395 100 c 2
 410 100 l 1
 440 241 l 1
 226 241 l 1
 196 100 l 1
 210 100 l 2
 242 100 267 96 267 60 c 0
 267 36 251 0 189 0 c 2
 68 0 l 2
 28 0 12 11 12 40 c 0
 12 65 28 100 90 100 c 2
 96 100 l 1
 177 483 l 1
 149 485 135 498 135 523 c 0
 135 546 147 583 213 583 c 2
 313 583 l 2
 345 583 370 579 370 544 c 0
 370 518 354 483 292 483 c 2
 277 483 l 1
 247 341 l 1
 461 341 l 1
 491 483 l 1
 476 483 l 2
 443 483 420 488 420 523 c 0
 420 546 432 583 498 583 c 2
 598 583 l 2
 630 583 655 579 655 544 c 0
 655 511 629 486 591 483 c 1
 510 100 l 1
 516 100 l 2
 549 100 572 95 572 60 c 0
 572 36 557 0 495 0 c 2
 374 0 l 2
 333 0 317 11 317 40 c 0
EndSplineSet
Validated: 3073
Substitution2: "'c2sc' caps to small caps in Latin-1" Hsmallcap
EndChar

StartChar: I
Encoding: 73 73 41
Width: 600
Flags: HMW
AnchorPoint: "above" 390 584 basechar 0
LayerCount: 2
Fore
SplineSet
602 544 m 0
 602 518 586 483 524 483 c 2
 423 483 l 1
 342 100 l 1
 442 100 l 2
 474 100 499 96 499 61 c 0
 499 36 483 0 421 0 c 2
 120 0 l 2
 79 0 63 11 63 40 c 0
 63 66 79 100 141 100 c 2
 242 100 l 1
 323 483 l 1
 222 483 l 2
 181 483 166 494 166 523 c 0
 166 549 182 583 244 583 c 2
 545 583 l 2
 579 583 602 578 602 544 c 0
EndSplineSet
Validated: 3073
Substitution2: "'c2sc' caps to small caps in Latin-1" Ismallcap
EndChar

StartChar: J
Encoding: 74 74 42
Width: 600
Flags: HMW
AnchorPoint: "above" 430 584 basechar 0
LayerCount: 2
Fore
SplineSet
667 543 m 0
 667 518 651 483 589 483 c 2
 532 483 l 1
 469 187 l 2
 439 45 301 -14 206 -14 c 0
 148 -14 86 6 4 51 c 1
 38 213 l 2
 41 229 53 280 103 280 c 0
 126 280 143 264 143 243 c 0
 143 235 143 232 139 213 c 2
 118 117 l 1
 163 95 195 86 228 86 c 0
 268 86 350 101 371 198 c 2
 432 483 l 1
 313 483 l 2
 272 483 256 494 256 523 c 0
 256 546 268 583 334 583 c 2
 610 583 l 2
 641 583 667 580 667 543 c 0
EndSplineSet
Validated: 3073
EndChar

StartChar: K
Encoding: 75 75 43
Width: 600
Flags: HMW
AnchorPoint: "above" 400 584 basechar 0
LayerCount: 2
Fore
SplineSet
594 61 m 0
 594 36 578 0 515 0 c 2
 406 0 l 1
 389 143 345 240 288 259 c 1
 218 208 l 1
 195 100 l 1
 230 100 l 2
 263 100 286 95 286 60 c 0
 286 37 270 0 208 0 c 2
 59 0 l 2
 18 0 2 12 2 40 c 0
 2 66 18 100 80 100 c 2
 95 100 l 1
 176 483 l 1
 161 483 l 2
 120 483 105 494 105 523 c 0
 105 546 117 583 183 583 c 2
 332 583 l 2
 363 583 389 580 389 543 c 0
 389 518 373 483 311 483 c 2
 276 483 l 1
 245 334 l 1
 455 487 l 1
 439 493 432 503 432 520 c 0
 432 548 448 583 510 583 c 2
 611 583 l 2
 644 583 667 578 667 544 c 0
 667 521 652 483 593 483 c 1
 384 330 l 1
 439 298 483 215 505 100 c 1
 537 100 l 2
 571 100 594 94 594 61 c 0
EndSplineSet
Validated: 3073
EndChar

StartChar: L
Encoding: 76 76 44
Width: 600
Flags: HMW
AnchorPoint: "above" 400 584 basechar 0
LayerCount: 2
Fore
SplineSet
473 543 m 0
 473 518 457 483 395 483 c 2
 338 483 l 1
 257 100 l 1
 472 100 l 1
 492 192 l 2
 495 208 505 259 556 259 c 0
 579 259 596 243 596 221 c 0
 596 215 595 207 592 192 c 2
 551 0 l 1
 79 0 l 2
 38 0 22 12 22 40 c 0
 22 66 38 100 100 100 c 2
 157 100 l 1
 238 483 l 1
 182 483 l 2
 141 483 125 494 125 523 c 0
 125 545 136 583 203 583 c 2
 416 583 l 2
 447 583 473 580 473 543 c 0
EndSplineSet
Validated: 3073
Substitution2: "'c2sc' caps to small caps in Latin-1" Lsmallcap
EndChar

StartChar: M
Encoding: 77 77 45
Width: 600
Flags: HMW
AnchorPoint: "above" 416 583 basechar 0
LayerCount: 2
Fore
SplineSet
430 100 m 2
 475 100 l 1
 537 389 l 1
 372 137 l 1
 281 137 l 1
 216 388 l 1
 155 100 l 1
 200 100 l 2
 226 100 247 86 247 61 c 0
 247 20 213 0 179 0 c 2
 40 0 l 2
 16 0 1 9 1 33 c 0
 1 73 24 100 55 100 c 1
 136 482 l 1
 116 486 104 498 104 519 c 0
 104 550 120 583 168 583 c 2
 281 583 l 1
 356 285 l 1
 554 583 l 1
 664 583 l 2
 692 583 708 577 708 552 c 0
 708 513 684 490 657 483 c 1
 575 100 l 1
 592 100 604 88 604 66 c 0
 604 21 576 0 549 0 c 2
 409 0 l 2
 377 0 362 15 362 37 c 0
 362 78 395 100 430 100 c 2
EndSplineSet
Validated: 3073
EndChar

StartChar: N
Encoding: 78 78 46
Width: 600
Flags: HMW
AnchorPoint: "above" 420 584 basechar 0
LayerCount: 2
Fore
SplineSet
706 543 m 0
 706 523 691 483 633 483 c 1
 530 0 l 1
 432 0 l 1
 256 394 l 1
 194 100 l 1
 229 100 l 2
 262 100 285 95 285 61 c 0
 285 37 269 0 207 0 c 2
 78 0 l 2
 37 0 21 11 21 40 c 0
 21 60 35 100 94 100 c 1
 175 483 l 1
 160 483 l 2
 119 483 104 494 104 523 c 0
 104 548 120 583 182 583 c 2
 296 583 l 1
 471 191 l 1
 533 483 l 1
 498 483 l 2
 457 483 442 494 442 523 c 0
 442 549 457 583 519 583 c 2
 649 583 l 2
 680 583 706 580 706 543 c 0
EndSplineSet
Validated: 3073
Substitution2: "'c2sc' caps to small caps in Latin-1" Nsmallcap
EndChar

StartChar: O
Encoding: 79 79 47
Width: 600
Flags: HMW
AnchorPoint: "far-right-dot" 630 580 basechar 0
AnchorPoint: "above" 402 584 basechar 0
LayerCount: 2
Fore
SplineSet
55 220 m 0
 55 443 257 597 406 597 c 0
 534 597 629 498 629 366 c 0
 629 138 428 -14 277 -14 c 0
 150 -14 55 86 55 220 c 0
385 497 m 0
 270 497 158 371 158 243 c 0
 158 153 217 86 297 86 c 0
 414 86 526 211 526 342 c 0
 526 431 466 497 385 497 c 0
EndSplineSet
Validated: 3073
EndChar

StartChar: P
Encoding: 80 80 48
Width: 600
Flags: HMW
AnchorPoint: "above" 420 584 basechar 0
LayerCount: 2
Fore
SplineSet
125 523 m 0
 125 546 137 583 203 583 c 2
 436 583 l 2
 548 583 617 525 617 431 c 0
 617 384 596 331 558 289 c 0
 502 225 440 200 335 200 c 2
 237 200 l 1
 216 100 l 1
 314 100 l 2
 348 100 371 95 371 61 c 0
 371 37 355 0 293 0 c 2
 80 0 l 2
 39 0 23 12 23 40 c 0
 23 65 39 100 101 100 c 2
 116 100 l 1
 197 483 l 1
 182 483 l 2
 140 483 125 494 125 523 c 0
297 483 m 1
 258 300 l 1
 376 300 l 2
 454 300 509 347 509 414 c 0
 509 457 473 483 415 483 c 2
 297 483 l 1
EndSplineSet
Validated: 3073
EndChar

StartChar: Q
Encoding: 81 81 49
Width: 600
Flags: HMW
AnchorPoint: "below" 260 -170 basechar 0
AnchorPoint: "above" 400 584 basechar 0
LayerCount: 2
Fore
SplineSet
180 7 m 1
 143 31 55 80 55 220 c 0
 55 413 226 597 407 597 c 0
 535 597 629 497 629 363 c 0
 629 243 566 130 456 53 c 0
 396 10 340 -7 266 -7 c 0
 264 -7 257 -7 249 -6 c 1
 241 -30 l 1
 266 -26 278 -25 292 -25 c 0
 345 -25 388 -45 414 -45 c 0
 452 -45 473 -13 504 -13 c 0
 528 -13 545 -29 545 -52 c 0
 545 -105 448 -145 393 -145 c 0
 342 -145 326 -117 275 -117 c 0
 215 -117 142 -143 114 -143 c 0
 93 -143 76 -125 76 -104 c 0
 76 -83 83 -71 105 -53 c 2
 180 7 l 1
385 497 m 0
 270 497 157 371 157 242 c 0
 157 152 217 85 297 85 c 0
 414 85 526 210 526 342 c 0
 526 431 466 497 385 497 c 0
EndSplineSet
Validated: 3073
EndChar

StartChar: R
Encoding: 82 82 50
Width: 600
Flags: HMW
AnchorPoint: "above" 404 583 basechar 0
LayerCount: 2
Fore
SplineSet
533 0 m 2
 454 0 l 1
 425 97 356 207 317 222 c 1
 221 222 l 1
 195 100 l 1
 230 100 l 2
 264 100 287 85 287 60 c 0
 287 19 250 0 209 0 c 2
 59 0 l 2
 13 0 2 19 2 38 c 0
 2 87 42 100 80 100 c 2
 95 100 l 1
 177 483 l 1
 162 483 l 2
 130 483 105 490 105 519 c 0
 105 570 141 583 183 583 c 2
 406 583 l 2
 521 583 592 526 592 441 c 0
 592 350 538 298 448 254 c 1
 486 213 513 167 541 100 c 1
 580 100 600 92 600 65 c 0
 600 23 569 0 533 0 c 2
242 322 m 1
 318 322 l 2
 403 322 484 359 484 420 c 0
 484 457 447 483 389 483 c 2
 277 483 l 1
 242 322 l 1
EndSplineSet
Validated: 3073
Substitution2: "'c2sc' caps to small caps in Latin-1" Rsmallcap
EndChar

StartChar: S
Encoding: 83 83 51
Width: 600
Flags: HMW
AnchorPoint: "above" 410 584 basechar 0
LayerCount: 2
Fore
SplineSet
263 411 m 0
 263 306 566 377 566 199 c 0
 566 77 451 -14 296 -14 c 0
 242 -14 192 -1 148 25 c 1
 127 6 118 1 102 1 c 0
 79 1 62 17 62 38 c 0
 62 44 63 55 66 67 c 2
 80 133 l 2
 90 178 110 199 145 199 c 0
 180 199 182 180 184 151 c 0
 187 115 244 86 309 86 c 0
 392 86 460 125 460 173 c 0
 460 250 300 225 213 281 c 0
 179 304 157 344 157 385 c 0
 157 501 274 597 415 597 c 0
 466 597 508 586 538 564 c 1
 554 589 565 597 584 597 c 0
 608 597 624 582 624 561 c 0
 624 554 624 549 620 531 c 2
 601 443 l 2
 598 428 585 376 537 376 c 0
 498 376 499 400 498 430 c 0
 498 470 456 497 394 497 c 0
 324 497 263 457 263 411 c 0
EndSplineSet
Validated: 3073
EndChar

StartChar: T
Encoding: 84 84 52
Width: 600
Flags: HMW
AnchorPoint: "above" 380 584 basechar 0
LayerCount: 2
Fore
SplineSet
88 40 m 0
 88 66 104 100 166 100 c 2
 230 100 l 1
 312 483 l 1
 205 483 l 1
 185 390 l 2
 182 378 173 324 121 324 c 0
 99 324 81 341 81 361 c 0
 81 368 82 378 85 390 c 2
 126 583 l 1
 642 583 l 1
 601 390 l 2
 598 376 589 324 537 324 c 0
 514 324 497 340 497 361 c 0
 497 368 498 377 501 390 c 2
 521 483 l 1
 412 483 l 1
 330 100 l 1
 396 100 l 2
 429 100 453 95 453 61 c 0
 453 37 437 0 375 0 c 2
 144 0 l 2
 104 0 88 12 88 40 c 0
EndSplineSet
Validated: 3073
EndChar

StartChar: U
Encoding: 85 85 53
Width: 600
Flags: HMW
AnchorPoint: "above" 390 584 basechar 0
LayerCount: 2
Fore
SplineSet
618 583 m 2
 650 583 675 579 675 544 c 0
 675 510 649 483 602 483 c 1
 543 205 l 2
 517 81 397 -14 268 -14 c 0
 159 -14 80 59 80 158 c 0
 80 173 81 188 85 205 c 2
 144 483 l 1
 108 483 93 495 93 523 c 0
 93 546 105 583 171 583 c 2
 301 583 l 2
 332 583 357 580 357 544 c 0
 357 518 342 483 279 483 c 2
 244 483 l 1
 183 196 l 2
 182 189 181 182 181 176 c 0
 181 124 227 86 289 86 c 0
 360 86 428 135 441 196 c 2
 502 483 l 1
 467 483 l 2
 426 483 411 494 411 523 c 0
 411 546 423 583 489 583 c 2
 618 583 l 2
EndSplineSet
Validated: 3073
EndChar

StartChar: V
Encoding: 86 86 54
Width: 600
Flags: HMW
AnchorPoint: "above" 394 583 basechar 0
LayerCount: 2
Fore
SplineSet
256 483 m 2
 232 483 l 1
 304 144 l 1
 520 483 l 1
 491 483 l 2
 466 483 439 490 439 520 c 0
 439 569 480 583 512 583 c 2
 649 583 l 2
 672 583 685 572 685 549 c 0
 685 506 656 483 626 483 c 1
 318 0 l 1
 219 0 l 1
 120 483 l 1
 96 483 81 494 81 517 c 0
 81 558 111 583 149 583 c 2
 277 583 l 2
 309 583 329 576 329 549 c 0
 329 498 297 483 256 483 c 2
EndSplineSet
Validated: 3073
EndChar

StartChar: W
Encoding: 87 87 55
Width: 600
Flags: HMW
AnchorPoint: "above" 384 583 basechar 0
LayerCount: 2
Fore
SplineSet
628 583 m 2
 660 583 675 571 675 548 c 0
 675 512 653 489 626 483 c 1
 463 0 l 1
 353 0 l 1
 319 277 l 1
 169 0 l 1
 58 0 l 1
 99 483 l 1
 81 487 71 497 71 516 c 0
 71 564 102 583 140 583 c 2
 271 583 l 2
 304 583 329 576 329 547 c 0
 329 496 291 483 250 483 c 2
 202 483 l 1
 180 211 l 1
 304 437 l 1
 408 437 l 1
 436 211 l 1
 529 483 l 1
 476 483 l 2
 444 483 419 490 419 519 c 0
 419 570 455 583 497 583 c 2
 628 583 l 2
EndSplineSet
Validated: 3073
EndChar

StartChar: X
Encoding: 88 88 56
Width: 600
Flags: HMW
AnchorPoint: "above" 400 584 basechar 0
LayerCount: 2
Fore
SplineSet
615 583 m 2
 647 583 672 579 672 544 c 0
 672 509 643 484 603 483 c 1
 407 297 l 1
 532 100 l 1
 565 100 581 87 581 60 c 0
 581 36 565 0 503 0 c 2
 393 0 l 2
 352 0 336 11 336 40 c 0
 336 52 342 95 403 100 c 1
 327 220 l 1
 199 100 l 1
 229 99 244 86 244 60 c 0
 244 35 228 0 166 0 c 2
 56 0 l 2
 15 0 -1 11 -1 40 c 0
 -1 75 28 100 69 100 c 1
 278 298 l 1
 159 483 l 1
 126 484 111 497 111 523 c 0
 111 546 123 583 189 583 c 2
 280 583 l 2
 314 583 337 578 337 544 c 0
 337 517 322 500 288 484 c 1
 359 375 l 1
 475 484 l 1
 452 497 447 504 447 523 c 0
 447 548 462 583 525 583 c 2
 615 583 l 2
EndSplineSet
Validated: 3073
EndChar

StartChar: Y
Encoding: 89 89 57
Width: 600
Flags: HMW
AnchorPoint: "above" 370 584 basechar 0
LayerCount: 2
Fore
SplineSet
644 544 m 0
 644 522 629 483 570 483 c 2
 567 483 l 1
 352 245 l 1
 322 100 l 1
 387 100 l 2
 420 100 444 95 444 61 c 0
 444 37 428 0 366 0 c 2
 135 0 l 2
 94 0 78 12 78 40 c 0
 78 66 93 100 156 100 c 2
 222 100 l 1
 252 245 l 1
 138 483 l 1
 132 483 l 2
 101 483 84 497 84 523 c 0
 84 548 99 583 162 583 c 2
 252 583 l 2
 285 583 308 578 308 544 c 0
 308 517 291 496 258 483 c 1
 324 348 l 1
 447 483 l 1
 425 492 417 503 417 523 c 0
 417 549 433 583 495 583 c 2
 588 583 l 2
 621 583 644 578 644 544 c 0
EndSplineSet
Validated: 3073
Substitution2: "'c2sc' caps to small caps in Latin-1" Ysmallcap
EndChar

StartChar: Z
Encoding: 90 90 58
Width: 600
Flags: HMW
AnchorPoint: "above" 400 584 basechar 0
LayerCount: 2
Fore
SplineSet
202 100 m 1
 428 100 l 1
 444 172 l 2
 447 187 457 238 508 238 c 0
 531 238 548 222 548 200 c 0
 548 192 548 191 544 172 c 2
 507 0 l 1
 53 0 l 1
 74 100 l 1
 457 483 l 1
 279 483 l 1
 264 413 l 2
 261 400 251 347 199 347 c 0
 177 347 159 364 159 384 c 0
 159 392 160 394 164 413 c 2
 200 583 l 1
 608 583 l 1
 587 486 l 1
 202 100 l 1
EndSplineSet
Validated: 3073
EndChar

StartChar: bracketleft
Encoding: 91 91 59
Width: 600
Flags: HMW
LayerCount: 2
Fore
SplineSet
598 588 m 0
 598 563 582 527 520 527 c 2
 462 527 l 1
 340 -48 l 1
 399 -48 l 2
 432 -48 456 -53 456 -87 c 0
 456 -112 440 -148 378 -148 c 2
 219 -148 l 1
 384 627 l 1
 542 627 l 2
 575 627 598 622 598 588 c 0
EndSplineSet
Validated: 3073
EndChar

StartChar: backslash
Encoding: 92 92 60
Width: 600
Flags: HMW
LayerCount: 2
Fore
SplineSet
322 651 m 0
 499 -27 l 2
 502 -38 504 -48 504 -54 c 0
 504 -84 474 -113 443 -113 c 0
 418 -113 409 -103 400 -69 c 0
 224 610 l 1
 220 623 219 630 219 636 c 0
 219 666 249 695 280 695 c 0
 304 695 313 685 322 651 c 0
EndSplineSet
Validated: 3073
EndChar

StartChar: bracketright
Encoding: 93 93 61
Width: 600
Flags: HMW
LayerCount: 2
Fore
SplineSet
104 -109 m 0
 104 -84 120 -48 182 -48 c 2
 240 -48 l 1
 362 527 l 1
 303 527 l 2
 270 527 246 532 246 566 c 0
 246 591 262 627 324 627 c 2
 483 627 l 1
 318 -148 l 1
 160 -148 l 2
 127 -148 104 -143 104 -109 c 0
EndSplineSet
Validated: 3073
EndChar

StartChar: asciicircum
Encoding: 94 94 62
Width: 600
Flags: HMW
LayerCount: 2
Fore
SplineSet
404 494 m 1
 257 356 l 2
 229 330 221 325 202 325 c 0
 178 325 161 342 161 365 c 0
 161 384 168 395 193 419 c 2
 438 652 l 1
 584 419 l 2
 595 402 598 395 598 384 c 0
 598 355 567 325 536 325 c 0
 517 325 510 330 494 355 c 2
 404 494 l 1
EndSplineSet
Validated: 3073
EndChar

StartChar: underscore
Encoding: 95 95 63
Width: 600
Flags: HMW
LayerCount: 2
Fore
SplineSet
577 -110 m 5
 560 -190 l 1
 -40 -190 l 1
 -23 -110 l 5
 577 -110 l 5
EndSplineSet
Validated: 3073
EndChar

StartChar: grave
Encoding: 96 96 64
Width: 600
Flags: HMW
LayerCount: 2
Fore
SplineSet
367 666 m 1
 434 554 l 2
 438 547 440 537 440 531 c 0
 440 514 422 496 401 496 c 0
 389 496 376 503 368 512 c 2
 231 666 l 1
 367 666 l 1
EndSplineSet
Validated: 3073
EndChar

StartChar: a
Encoding: 97 97 65
Width: 600
Flags: HMW
LayerCount: 2
Fore
SplineSet
583 61 m 0
 583 35 567 0 505 0 c 2
 388 0 l 1
 393 23 l 1
 340 -2 278 -16 219 -16 c 0
 130 -16 65 32 65 98 c 0
 65 136 121 288 346 288 c 0
 378 288 408 285 447 278 c 1
 450 290 453 297 453 311 c 0
 453 338 426 350 369 350 c 0
 299 350 241 327 207 327 c 0
 185 327 169 343 169 366 c 0
 169 434 305 450 389 450 c 0
 493 450 557 407 557 337 c 0
 557 324 556 314 553 302 c 2
 510 100 l 1
 527 100 l 2
 560 100 583 95 583 61 c 0
320 196 m 0
 236 196 174 150 174 118 c 0
 174 99 203 84 241 84 c 0
 296 84 355 101 418 135 c 1
 428 185 l 1
 390 192 354 196 320 196 c 0
EndSplineSet
Validated: 3073
EndChar

StartChar: b
Encoding: 98 98 66
Width: 600
Flags: HMW
AnchorPoint: "above" 440 597 basechar 0
LayerCount: 2
Fore
SplineSet
113 564 m 0
 113 586 125 624 191 624 c 2
 307 624 l 1
 259 401 l 1
 309 435 360 451 418 451 c 0
 582 451 623 343 623 269 c 0
 623 198 561 -14 321 -14 c 0
 263 -14 226 -1 182 35 c 1
 174 0 l 1
 58 0 l 2
 18 0 2 11 2 40 c 0
 2 65 18 100 80 100 c 2
 96 100 l 1
 186 524 l 1
 170 524 l 2
 128 524 113 535 113 564 c 0
343 86 m 0
 483 86 520 210 520 244 c 0
 520 309 477 351 395 351 c 0
 255 351 218 228 218 193 c 0
 218 126 264 86 343 86 c 0
EndSplineSet
Validated: 3073
Substitution2: "'smcp' lowercase to small caps in Latin-1" Bsmallcap
EndChar

StartChar: c
Encoding: 99 99 67
Width: 600
Flags: HMW
LayerCount: 2
Fore
SplineSet
73 156 m 4
 73 226 136 450 387 450 c 4
 443 450 489 440 524 420 c 5
 534 441 547 450 568 450 c 4
 592 450 606 436 606 412 c 4
 606 405 605 400 602 384 c 6
 586 307 l 6
 582 292 570 241 521 241 c 4
 486 241 481 262 481 289 c 4
 481 338 416 350 365 350 c 4
 206 350 175 214 175 178 c 4
 175 115 225 84 328 84 c 4
 479 84 483 140 525 140 c 4
 548 140 565 123 565 99 c 4
 565 76 525 -16 297 -16 c 4
 107 -16 73 87 73 156 c 4
EndSplineSet
Validated: 3073
EndChar

StartChar: d
Encoding: 100 100 68
Width: 600
Flags: HMW
AnchorPoint: "above" 390 597 basechar 0
LayerCount: 2
Fore
SplineSet
470 565 m 0
 470 586 482 624 548 624 c 2
 664 624 l 1
 553 100 l 1
 569 100 l 2
 600 100 625 96 625 60 c 0
 625 35 609 0 547 0 c 2
 431 0 l 1
 439 35 l 1
 379 -1 336 -14 278 -14 c 0
 115 -14 74 95 74 168 c 0
 74 236 105 308 156 360 c 0
 217 422 288 451 378 451 c 0
 437 451 481 435 517 401 c 1
 543 525 l 1
 527 525 l 2
 486 525 470 535 470 565 c 0
481 244 m 0
 481 284 462 351 354 351 c 0
 215 351 177 227 177 193 c 0
 177 126 224 86 302 86 c 0
 443 86 481 208 481 244 c 0
EndSplineSet
Validated: 3073
EndChar

StartChar: e
Encoding: 101 101 69
Width: 600
Flags: HMW
LayerCount: 2
Fore
SplineSet
325 84 m 0
 412 84 489 117 528 117 c 0
 551 117 566 101 566 79 c 0
 566 57 554 39 533 28 c 0
 490 5 374 -16 294 -16 c 0
 158 -16 74 55 74 169 c 0
 74 318 221 450 387 450 c 0
 517 450 600 375 600 259 c 0
 600 228 592 199 587 172 c 1
 178 172 l 1
 189 112 237 84 325 84 c 0
200 260 m 1
 495 260 l 1
 490 314 439 350 367 350 c 0
 293 350 228 315 200 260 c 1
EndSplineSet
Validated: 3073
EndChar

StartChar: f
Encoding: 102 102 70
Width: 600
Flags: HMW
AnchorPoint: "above" 440 597 basechar 0
LayerCount: 2
Fore
SplineSet
599 397 m 0
 599 373 583 337 521 337 c 2
 370 337 l 1
 320 100 l 1
 459 100 l 2
 492 100 516 95 516 61 c 0
 516 37 500 0 438 0 c 2
 140 0 l 2
 100 0 84 12 84 40 c 0
 84 66 100 100 162 100 c 2
 220 100 l 1
 270 337 l 1
 224 337 l 2
 182 337 166 348 166 377 c 0
 166 401 178 437 245 437 c 2
 291 437 l 1
 299 474 l 2
 319 566 405 623 525 623 c 0
 650 623 691 602 691 570 c 0
 691 539 662 509 632 509 c 0
 608 509 566 523 494 523 c 0
 437 523 405 507 399 474 c 2
 392 437 l 1
 542 437 l 2
 574 437 599 434 599 397 c 0
EndSplineSet
Validated: 3073
EndChar

StartChar: g
Encoding: 103 103 71
Width: 600
Flags: HMW
AnchorPoint: "below" 260 -200 basechar 0
LayerCount: 2
Fore
SplineSet
97 -160 m 0
 97 -135 112 -100 175 -100 c 2
 284 -100 l 2
 341 -100 385 -67 396 -15 c 2
 407 35 l 1
 353 1 307 -14 255 -14 c 0
 141 -14 63 60 63 168 c 0
 63 318 201 451 355 451 c 0
 408 451 453 434 485 401 c 1
 492 437 l 1
 609 437 l 2
 640 437 665 433 665 397 c 0
 665 372 649 337 587 337 c 2
 571 337 l 1
 496 -15 l 2
 474 -121 375 -200 265 -200 c 2
 154 -200 l 2
 113 -200 97 -189 97 -160 c 0
335 351 m 0
 249 351 166 274 166 193 c 0
 166 130 213 86 279 86 c 0
 367 86 449 163 449 244 c 0
 449 307 402 351 335 351 c 0
EndSplineSet
Validated: 3073
Substitution2: "'smcp' lowercase to small caps in Latin-1" Gsmallcap
EndChar

StartChar: h
Encoding: 104 104 72
Width: 600
Flags: HMW
AnchorPoint: "above" 440 597 basechar 0
LayerCount: 2
Fore
SplineSet
134 564 m 0
 134 586 146 624 212 624 c 2
 328 624 l 1
 278 389 l 1
 327 430 376 450 428 450 c 0
 516 450 574 401 574 325 c 0
 574 312 573 298 570 284 c 2
 530 100 l 1
 536 100 l 2
 567 100 593 97 593 60 c 0
 593 36 577 0 515 0 c 2
 403 0 l 2
 362 0 346 11 346 40 c 0
 346 65 362 100 425 100 c 2
 431 100 l 1
 467 271 l 2
 470 283 471 294 471 302 c 0
 471 331 442 350 396 350 c 0
 348 350 324 339 256 283 c 1
 217 100 l 1
 223 100 l 2
 256 100 280 94 280 60 c 0
 280 34 264 0 201 0 c 2
 89 0 l 2
 49 0 33 11 33 40 c 0
 33 64 49 100 111 100 c 2
 117 100 l 1
 207 524 l 1
 191 524 l 2
 149 524 134 535 134 564 c 0
EndSplineSet
Validated: 3073
Substitution2: "'smcp' lowercase to small caps in Latin-1" Hsmallcap
EndChar

StartChar: i
Encoding: 105 105 73
Width: 600
Flags: HMW
AnchorPoint: "above" 410 604 basechar 0
LayerCount: 2
Fore
SplineSet
186 377 m 0
 186 400 198 437 265 437 c 2
 443 437 l 1
 372 100 l 1
 493 100 l 2
 524 100 550 96 550 60 c 0
 550 38 536 0 472 0 c 2
 129 0 l 2
 88 0 72 11 72 40 c 0
 72 66 88 100 150 100 c 2
 272 100 l 1
 322 337 l 1
 244 337 l 2
 202 337 186 348 186 377 c 0
469 623 m 1
 446 518 l 1
 328 518 l 1
 351 623 l 1
 469 623 l 1
EndSplineSet
Validated: 3073
Substitution2: "'smcp' lowercase to small caps in Latin-1" Ismallcap
Substitution2: "subst. i,j with dotless form-1" dotlessi
EndChar

StartChar: j
Encoding: 106 106 74
Width: 600
Flags: HMW
AnchorPoint: "below" 250 -200 basechar 0
AnchorPoint: "above" 480 604 basechar 0
LayerCount: 2
Fore
SplineSet
64 -160 m 0
 64 -135 80 -100 142 -100 c 2
 252 -100 l 2
 310 -100 354 -67 365 -15 c 2
 440 337 l 1
 238 337 l 2
 197 337 181 348 181 377 c 0
 181 402 197 437 259 437 c 2
 561 437 l 1
 465 -15 l 2
 443 -120 343 -200 234 -200 c 2
 121 -200 l 2
 80 -200 64 -189 64 -160 c 0
543 623 m 1
 520 518 l 1
 401 518 l 1
 423 623 l 1
 543 623 l 1
EndSplineSet
Validated: 3073
Substitution2: "subst. i,j with dotless form-1" dotlessj
EndChar

StartChar: k
Encoding: 107 107 75
Width: 600
Flags: HMW
AnchorPoint: "above" 440 597 basechar 0
LayerCount: 2
Fore
SplineSet
582 60 m 0
 582 36 566 0 504 0 c 2
 386 0 l 2
 345 0 329 11 329 40 c 0
 329 57 336 71 354 87 c 1
 270 178 l 1
 249 164 l 1
 215 0 l 1
 98 0 l 2
 58 0 42 11 42 40 c 0
 42 65 58 100 120 100 c 2
 136 100 l 1
 226 524 l 1
 210 524 l 2
 169 524 153 534 153 563 c 0
 153 587 165 624 231 624 c 2
 347 624 l 1
 275 287 l 1
 367 350 l 1
 361 361 359 366 359 376 c 0
 359 403 375 437 437 437 c 2
 549 437 l 2
 590 437 606 426 606 398 c 0
 606 373 590 337 528 337 c 2
 501 337 l 1
 362 241 l 1
 492 100 l 1
 525 100 l 2
 557 100 582 96 582 60 c 0
EndSplineSet
Validated: 3073
EndChar

StartChar: l
Encoding: 108 108 76
Width: 600
Flags: HMW
AnchorPoint: "above" 430 604 basechar 0
LayerCount: 2
Fore
SplineSet
226 564 m 0
 226 590 241 624 305 624 c 2
 483 624 l 1
 372 100 l 1
 493 100 l 2
 524 100 550 96 550 60 c 0
 550 38 536 0 472 0 c 2
 129 0 l 2
 88 0 72 11 72 40 c 0
 72 66 88 100 150 100 c 2
 272 100 l 1
 362 524 l 1
 283 524 l 2
 252 524 226 529 226 564 c 0
EndSplineSet
Validated: 3073
Substitution2: "'smcp' lowercase to small caps in Latin-1" Lsmallcap
EndChar

StartChar: m
Encoding: 109 109 77
Width: 600
Flags: HMW
LayerCount: 2
Fore
SplineSet
62 377 m 0
 62 401 78 437 141 437 c 2
 234 437 l 1
 229 413 l 1
 270 441 292 450 322 450 c 0
 361 450 391 434 413 401 c 1
 452 435 487 450 527 450 c 0
 590 450 634 409 634 350 c 0
 634 337 633 330 631 319 c 2
 584 100 l 1
 618 100 635 87 635 60 c 0
 635 36 619 0 557 0 c 2
 463 0 l 1
 529 311 l 2
 531 318 531 324 531 330 c 0
 530 343 521 350 503 350 c 0
 476 350 459 341 417 305 c 1
 374 100 l 1
 407 100 424 87 424 60 c 0
 424 36 408 0 346 0 c 2
 252 0 l 1
 318 311 l 2
 320 318 321 326 321 329 c 0
 321 343 311 350 293 350 c 0
 265 350 243 339 206 305 c 1
 163 100 l 1
 197 100 214 87 214 60 c 0
 214 36 198 0 136 0 c 2
 48 0 l 2
 7 0 -9 11 -9 40 c 0
 -9 75 21 100 63 100 c 1
 113 337 l 1
 79 337 62 350 62 377 c 0
EndSplineSet
Validated: 3073
EndChar

StartChar: n
Encoding: 110 110 78
Width: 600
Flags: HMW
LayerCount: 2
Fore
SplineSet
115 377 m 0
 115 402 131 437 194 437 c 2
 288 437 l 1
 278 389 l 1
 336 435 373 450 428 450 c 0
 516 450 575 401 575 328 c 0
 575 312 573 298 570 282 c 2
 531 100 l 1
 566 100 583 87 583 60 c 0
 583 36 567 0 505 0 c 2
 416 0 l 2
 375 0 359 11 359 40 c 0
 359 60 374 100 432 100 c 1
 469 278 l 2
 471 287 472 294 472 301 c 0
 472 333 444 350 394 350 c 0
 348 350 313 333 255 282 c 1
 217 100 l 1
 223 100 l 2
 256 100 279 94 279 60 c 0
 279 36 263 0 201 0 c 2
 89 0 l 2
 49 0 33 11 33 40 c 0
 33 65 49 100 111 100 c 2
 117 100 l 1
 167 337 l 1
 132 337 115 350 115 377 c 0
EndSplineSet
Validated: 3073
Substitution2: "'smcp' lowercase to small caps in Latin-1" Nsmallcap
EndChar

StartChar: o
Encoding: 111 111 79
Width: 600
Flags: HMW
AnchorPoint: "far-right-dot" 610 440 basechar 0
LayerCount: 2
Fore
SplineSet
74 174 m 0
 74 286 190 450 389 450 c 0
 513 450 599 372 599 260 c 0
 599 115 450 -16 287 -16 c 0
 159 -16 74 60 74 174 c 0
366 350 m 0
 264 350 176 277 176 192 c 0
 176 129 231 84 308 84 c 0
 409 84 497 158 497 242 c 0
 497 305 442 350 366 350 c 0
EndSplineSet
Validated: 3073
EndChar

StartChar: p
Encoding: 112 112 80
Width: 600
Flags: HMW
AnchorPoint: "below" 260 -200 basechar 0
LayerCount: 2
Fore
SplineSet
73 377 m 0
 73 402 89 437 151 437 c 2
 267 437 l 1
 257 392 l 1
 315 434 361 450 423 450 c 0
 545 450 623 379 623 269 c 0
 623 127 490 10 329 10 c 0
 272 10 231 27 188 66 c 1
 153 -100 l 1
 211 -100 l 2
 244 -100 267 -105 267 -139 c 0
 267 -165 251 -200 189 -200 c 2
 15 -200 l 2
 -25 -200 -41 -189 -41 -160 c 0
 -41 -135 -25 -100 37 -100 c 2
 53 -100 l 1
 146 337 l 1
 129 337 l 2
 88 337 73 348 73 377 c 0
346 110 m 0
 487 110 522 218 522 252 c 0
 522 312 473 350 398 350 c 0
 250 350 221 237 221 208 c 0
 221 170 246 110 346 110 c 0
EndSplineSet
Validated: 3073
EndChar

StartChar: q
Encoding: 113 113 81
Width: 600
Flags: HMW
AnchorPoint: "below" 240 -200 basechar 0
LayerCount: 2
Fore
SplineSet
243 -161 m 0
 243 -135 259 -100 321 -100 c 2
 379 -100 l 1
 414 66 l 1
 354 26 306 10 247 10 c 0
 128 10 45 78 45 177 c 0
 45 242 106 450 343 450 c 0
 405 450 444 434 484 392 c 1
 493 437 l 1
 610 437 l 2
 643 437 666 432 666 397 c 0
 666 372 650 337 588 337 c 2
 572 337 l 1
 479 -100 l 1
 495 -100 l 2
 528 -100 552 -105 552 -140 c 0
 552 -164 536 -200 474 -200 c 2
 300 -200 l 2
 267 -200 243 -195 243 -161 c 0
275 110 m 0
 415 110 452 218 452 249 c 0
 452 313 405 350 326 350 c 0
 184 350 149 242 149 208 c 0
 149 148 198 110 275 110 c 0
EndSplineSet
Validated: 3073
EndChar

StartChar: r
Encoding: 114 114 82
Width: 600
Flags: HMW
LayerCount: 2
Fore
SplineSet
139 377 m 0
 139 400 154 437 216 437 c 2
 351 437 l 1
 338 373 l 1
 435 434 472 449 521 449 c 0
 574 449 630 410 630 375 c 0
 630 345 599 314 568 314 c 0
 537 314 530 350 497 350 c 0
 466 350 418 323 311 248 c 1
 280 100 l 1
 419 100 l 2
 450 100 476 96 476 60 c 0
 476 38 462 0 398 0 c 2
 100 0 l 2
 60 0 44 11 44 40 c 0
 44 65 59 100 121 100 c 2
 180 100 l 1
 230 338 l 1
 195 338 l 2
 155 338 139 349 139 377 c 0
EndSplineSet
Validated: 3073
Substitution2: "'smcp' lowercase to small caps in Latin-1" Rsmallcap
EndChar

StartChar: s
Encoding: 115 115 83
Width: 600
Flags: HMW
LayerCount: 2
Fore
SplineSet
516 281 m 0
 458 281 506 350 376 350 c 0
 321 350 269 331 269 312 c 0
 269 270 427 288 507 239 c 0
 538 219 556 187 556 150 c 0
 556 57 445 -16 301 -16 c 0
 243 -16 195 -6 159 13 c 1
 145 4 137 1 124 1 c 0
 100 1 83 16 83 39 c 0
 83 45 84 52 87 67 c 2
 94 100 l 2
 104 146 124 167 159 167 c 0
 185 167 198 153 201 123 c 1
 224 97 264 84 318 84 c 0
 386 84 444 106 444 131 c 0
 444 162 393 172 328 179 c 0
 206 192 156 224 156 289 c 0
 156 379 260 450 394 450 c 0
 442 450 482 442 517 424 c 1
 530 444 539 450 555 450 c 0
 577 450 592 436 592 414 c 0
 592 407 591 398 588 384 c 2
 580 347 l 2
 577 332 567 281 516 281 c 0
EndSplineSet
Validated: 3073
EndChar

StartChar: t
Encoding: 116 116 84
Width: 600
Flags: HMW
AnchorPoint: "above" 440 597 basechar 0
LayerCount: 2
Fore
SplineSet
545 397 m 0
 545 373 529 337 467 337 c 2
 286 337 l 1
 244 141 l 2
 242 132 241 123 241 117 c 0
 241 95 267 84 318 84 c 0
 432 84 474 129 508 129 c 0
 531 129 547 113 547 89 c 0
 547 10 345 -16 291 -16 c 0
 232 -16 137 6 137 92 c 0
 137 104 138 112 140 122 c 2
 186 337 l 1
 151 337 l 2
 110 337 94 348 94 377 c 0
 94 399 105 437 172 437 c 2
 207 437 l 1
 226 525 l 2
 229 541 239 591 290 591 c 0
 313 591 330 575 330 553 c 0
 330 545 330 544 326 525 c 2
 307 437 l 1
 488 437 l 2
 519 437 545 434 545 397 c 0
EndSplineSet
Validated: 3073
EndChar

StartChar: u
Encoding: 117 117 85
Width: 600
Flags: HMW
LayerCount: 2
Fore
SplineSet
390 377 m 0
 390 403 406 437 468 437 c 2
 603 437 l 1
 531 100 l 1
 566 100 583 87 583 61 c 0
 583 36 567 0 504 0 c 2
 410 0 l 1
 420 48 l 1
 360 1 326 -13 270 -13 c 0
 182 -13 123 36 123 110 c 0
 123 127 125 140 128 156 c 2
 166 338 l 1
 150 338 l 2
 110 338 94 349 94 378 c 0
 94 403 109 437 172 437 c 2
 288 437 l 1
 229 159 l 2
 227 151 226 144 226 136 c 0
 226 105 253 87 301 87 c 0
 351 87 380 101 443 155 c 1
 482 338 l 1
 447 338 l 2
 406 338 390 349 390 377 c 0
EndSplineSet
Validated: 3073
EndChar

StartChar: v
Encoding: 118 118 86
Width: 600
Flags: HMW
LayerCount: 2
Fore
SplineSet
327 397 m 0
 327 373 312 337 250 337 c 2
 244 337 l 1
 307 122 l 1
 461 337 l 1
 451 337 l 2
 410 337 394 348 394 377 c 0
 394 402 410 437 472 437 c 2
 606 437 l 2
 639 437 663 432 663 398 c 0
 663 372 647 337 585 337 c 2
 569 337 l 1
 330 0 l 1
 227 0 l 1
 131 337 l 1
 118 337 l 2
 77 337 61 348 61 377 c 0
 61 402 77 437 139 437 c 2
 271 437 l 2
 304 437 327 432 327 397 c 0
EndSplineSet
Validated: 3073
EndChar

StartChar: w
Encoding: 119 119 87
Width: 600
Flags: HMW
LayerCount: 2
Fore
SplineSet
607 437 m 2
 638 437 664 434 664 397 c 0
 664 385 655 343 600 338 c 1
 445 0 l 1
 353 0 l 1
 320 181 l 1
 214 0 l 1
 120 0 l 1
 107 338 l 1
 77 339 62 352 62 377 c 0
 62 402 77 437 140 437 c 2
 232 437 l 2
 265 437 288 432 288 398 c 0
 288 372 273 338 213 338 c 1
 219 185 l 1
 312 343 l 1
 401 343 l 1
 428 185 l 1
 501 338 l 1
 494 338 l 2
 461 338 437 343 437 377 c 0
 437 402 453 437 515 437 c 2
 607 437 l 2
EndSplineSet
Validated: 3073
EndChar

StartChar: x
Encoding: 120 120 88
Width: 600
Flags: HMW
LayerCount: 2
Fore
SplineSet
584 437 m 2
 617 437 641 432 641 398 c 0
 641 365 615 341 576 337 c 1
 421 227 l 1
 545 100 l 1
 575 99 590 86 590 60 c 0
 590 36 574 0 512 0 c 2
 400 0 l 2
 359 0 343 11 343 40 c 0
 343 67 364 92 395 100 c 1
 333 161 l 1
 246 100 l 1
 269 89 276 81 276 62 c 0
 276 35 260 0 197 0 c 2
 87 0 l 2
 46 0 30 11 30 40 c 0
 30 52 40 95 96 100 c 1
 268 228 l 1
 163 337 l 1
 134 340 120 353 120 377 c 0
 120 402 136 437 198 437 c 2
 291 437 l 2
 324 437 347 432 347 397 c 0
 347 377 333 355 310 342 c 1
 361 293 l 1
 432 343 l 1
 419 354 414 363 414 376 c 0
 414 401 430 437 492 437 c 2
 584 437 l 2
EndSplineSet
Validated: 3073
EndChar

StartChar: y
Encoding: 121 121 89
Width: 600
Flags: HMW
AnchorPoint: "below" 454 0 basechar 0
LayerCount: 2
Fore
SplineSet
-22 -160 m 0
 -22 -136 -6 -100 56 -100 c 2
 156 -100 l 1
 233 3 l 1
 132 337 l 1
 105 341 92 353 92 377 c 0
 92 402 108 437 170 437 c 2
 260 437 l 2
 293 437 316 432 316 398 c 0
 316 362 287 338 245 337 c 1
 313 114 l 1
 479 337 l 1
 474 337 l 2
 442 337 425 351 425 377 c 0
 425 402 441 437 503 437 c 2
 595 437 l 2
 626 437 652 434 652 397 c 0
 652 365 626 341 589 337 c 1
 265 -100 l 1
 270 -100 l 2
 303 -100 327 -105 327 -139 c 0
 327 -164 311 -200 249 -200 c 2
 35 -200 l 2
 -6 -200 -22 -189 -22 -160 c 0
EndSplineSet
Validated: 3073
Substitution2: "'smcp' lowercase to small caps in Latin-1" Ysmallcap
EndChar

StartChar: z
Encoding: 122 122 90
Width: 600
Flags: HMW
LayerCount: 2
Fore
SplineSet
269 337 m 1
 265 321 258 262 203 262 c 0
 180 262 163 278 163 299 c 0
 163 305 165 319 167 328 c 2
 190 437 l 1
 599 437 l 1
 582 356 l 1
 265 100 l 1
 441 100 l 1
 451 135 472 154 502 154 c 0
 525 154 542 138 542 117 c 0
 542 110 541 103 538 88 c 2
 519 0 l 1
 85 0 l 1
 103 83 l 1
 417 337 l 1
 269 337 l 1
EndSplineSet
Validated: 3073
EndChar

StartChar: braceleft
Encoding: 123 123 91
Width: 600
Flags: HMW
LayerCount: 2
Fore
SplineSet
349 5 m 2
 348 1 348 -2 348 -6 c 0
 348 -29 364 -51 388 -52 c 0
 413 -54 432 -70 432 -93 c 0
 432 -129 394 -153 359 -153 c 0
 286 -153 243 -107 243 -40 c 0
 243 -28 245 -15 248 -2 c 2
 274 123 l 2
 275 126 275 129 275 132 c 0
 275 156 255 180 224 180 c 0
 196 180 180 195 180 218 c 0
 180 253 212 281 246 281 c 0
 282 281 314 311 320 339 c 2
 348 472 l 2
 365 552 441 623 525 623 c 0
 554 623 576 607 576 583 c 0
 576 547 538 524 510 522 c 0
 482 520 453 492 447 465 c 2
 422 348 l 2
 411 296 368 247 338 230 c 1
 358 215 376 179 376 143 c 0
 376 136 375 130 374 123 c 2
 349 5 l 2
EndSplineSet
Validated: 3073
EndChar

StartChar: bar
Encoding: 124 124 92
Width: 600
Flags: HMW
LayerCount: 2
Fore
SplineSet
468 556 m 2
 331 -87 l 2
 319 -147 282 -153 267 -153 c 0
 244 -153 227 -137 227 -116 c 0
 227 -109 228 -100 231 -87 c 2
 368 556 l 2
 371 571 384 622 432 622 c 0
 455 622 472 606 472 584 c 0
 472 578 471 570 468 556 c 2
EndSplineSet
Validated: 3073
EndChar

StartChar: braceright
Encoding: 125 125 93
Width: 600
Flags: HMW
LayerCount: 2
Fore
SplineSet
253 5 m 2
 278 123 l 2
 287 166 329 212 360 230 c 1
 342 244 323 279 323 320 c 0
 323 329 324 339 326 348 c 2
 351 465 l 2
 352 469 352 473 352 476 c 0
 352 499 336 520 312 522 c 0
 287 524 268 540 268 563 c 0
 268 589 293 623 339 623 c 0
 411 623 456 571 456 505 c 0
 456 494 454 483 452 472 c 2
 424 339 l 2
 423 336 423 332 423 329 c 0
 423 304 442 281 474 281 c 0
 501 281 518 265 518 241 c 0
 518 218 500 180 452 180 c 0
 417 180 384 150 378 123 c 2
 352 -2 l 2
 333 -90 261 -153 175 -153 c 0
 145 -153 124 -137 124 -113 c 0
 124 -77 162 -54 190 -52 c 0
 218 -51 247 -22 253 5 c 2
EndSplineSet
Validated: 3073
EndChar

StartChar: asciitilde
Encoding: 126 126 94
Width: 600
Flags: HMW
LayerCount: 2
Fore
SplineSet
449 284 m 0
 481 284 519 364 565 364 c 0
 588 364 606 347 606 324 c 0
 606 305 596 288 571 262 c 0
 506 197 474 179 428 179 c 0
 347 179 301 281 271 281 c 0
 244 281 196 201 156 201 c 0
 133 201 114 219 114 240 c 0
 114 289 219 385 295 385 c 0
 383 385 414 284 449 284 c 0
EndSplineSet
Validated: 3073
EndChar

StartChar: cent
Encoding: 162 162 97
Width: 600
Flags: HMW
LayerCount: 2
Fore
SplineSet
351 197 m 0
 425 197 469 245 501 245 c 0
 523 245 541 227 541 204 c 0
 541 158 472 116 372 99 c 1
 356 22 l 2
 342 -39 306 -44 291 -44 c 0
 269 -44 251 -27 251 -7 c 0
 251 1 251 2 255 22 c 0
 273 103 l 1
 191 124 144 183 144 265 c 0
 144 380 237 489 361 517 c 1
 376 571 372 661 442 661 c 0
 465 661 482 645 482 623 c 0
 482 616 481 614 477 594 c 0
 463 527 l 1
 493 523 514 515 531 503 c 1
 540 506 546 507 552 507 c 0
 576 507 593 491 593 469 c 0
 593 449 577 370 561 354 c 0
 549 341 531 333 516 333 c 0
 477 333 478 360 477 384 c 0
 476 414 456 427 410 427 c 0
 322 427 246 363 246 288 c 0
 246 235 290 197 351 197 c 0
EndSplineSet
Validated: 3073
EndChar

StartChar: sterling
Encoding: 163 163 98
Width: 600
Flags: HMW
LayerCount: 2
Fore
SplineSet
444 303 m 0
 444 279 428 243 366 243 c 2
 320 243 l 1
 309 180 297 148 267 100 c 1
 471 100 l 1
 482 130 501 146 530 146 c 0
 554 146 571 131 571 108 c 0
 571 45 521 0 442 0 c 2
 121 0 l 2
 80 0 64 11 64 40 c 0
 64 72 84 94 126 100 c 0
 170 106 204 156 219 243 c 1
 150 243 l 2
 116 243 93 248 93 283 c 0
 93 306 105 343 172 343 c 2
 216 343 l 1
 213 361 212 372 212 385 c 0
 212 504 306 598 425 598 c 0
 497 598 563 553 563 505 c 0
 563 474 532 444 501 444 c 0
 460 444 470 498 404 498 c 0
 351 498 315 462 315 409 c 0
 315 399 317 363 319 343 c 1
 387 343 l 2
 420 343 444 338 444 303 c 0
EndSplineSet
Validated: 3073
EndChar

StartChar: currency
Encoding: 164 164 99
Width: 600
Flags: HMW
LayerCount: 2
Fore
SplineSet
213 388 m 1
 199 406 171 438 171 461 c 0
 171 489 204 519 234 519 c 0
 251 519 257 515 275 493 c 2
 301 462 l 1
 342 481 368 488 403 488 c 0
 440 488 462 482 495 461 c 1
 532 491 l 2
 559 513 568 517 585 517 c 0
 609 517 626 500 626 476 c 0
 626 456 618 444 589 420 c 2
 551 388 l 1
 558 363 561 341 561 326 c 0
 561 286 543 240 510 196 c 1
 535 162 l 2
 549 144 553 136 553 124 c 0
 553 95 520 64 488 64 c 0
 472 64 465 69 448 90 c 2
 421 122 l 1
 380 103 355 97 320 97 c 0
 285 97 262 103 229 123 c 1
 190 91 l 2
 162 68 155 64 137 64 c 0
 114 64 96 81 96 105 c 0
 96 125 104 137 133 162 c 2
 173 196 l 1
 166 221 163 243 163 258 c 0
 163 297 181 344 213 388 c 1
382 388 m 0
 322 388 266 332 266 273 c 0
 266 230 298 197 341 197 c 0
 401 197 459 254 459 313 c 0
 459 357 427 388 382 388 c 0
EndSplineSet
Validated: 3073
EndChar

StartChar: yen
Encoding: 165 165 100
Width: 600
Flags: HMW
LayerCount: 2
Fore
SplineSet
303 580 m 2
 335 580 360 577 360 541 c 0
 360 513 338 487 310 481 c 1
 375 348 l 1
 498 481 l 1
 477 487 467 500 467 520 c 0
 467 546 483 580 545 580 c 2
 636 580 l 2
 674 580 693 574 693 540 c 0
 693 518 678 480 618 480 c 2
 616 480 l 1
 435 281 l 1
 507 281 l 2
 526 281 533 275 533 259 c 0
 533 239 517 225 495 225 c 2
 398 225 l 1
 391 191 l 1
 488 191 l 2
 507 191 514 185 514 170 c 0
 514 149 499 135 476 135 c 2
 379 135 l 1
 372 100 l 1
 418 100 l 2
 450 100 475 98 475 61 c 0
 475 37 459 0 397 0 c 2
 204 0 l 2
 163 0 147 11 147 40 c 0
 147 63 159 100 225 100 c 2
 272 100 l 1
 279 135 l 1
 182 135 l 2
 163 135 156 141 156 157 c 0
 156 177 171 191 194 191 c 2
 291 191 l 1
 298 225 l 1
 201 225 l 2
 183 225 176 231 176 247 c 0
 176 267 191 281 213 281 c 2
 285 281 l 1
 189 480 l 1
 181 480 l 2
 150 480 133 494 133 520 c 0
 133 546 149 580 211 580 c 2
 303 580 l 2
EndSplineSet
Validated: 3073
EndChar

StartChar: brokenbar
Encoding: 166 166 101
Width: 600
Flags: HMW
LayerCount: 2
Fore
SplineSet
468 556 m 2
 425 353 l 2
 422 340 413 287 361 287 c 0
 338 287 321 303 321 324 c 0
 321 330 323 344 325 353 c 2
 368 556 l 2
 371 571 384 622 432 622 c 0
 455 622 472 606 472 584 c 0
 472 578 471 570 468 556 c 2
374 116 m 2
 331 -87 l 2
 328 -99 319 -153 267 -153 c 0
 244 -153 227 -137 227 -116 c 0
 227 -109 228 -100 231 -87 c 0
 274 116 l 2
 278 131 290 182 339 182 c 0
 361 182 378 166 378 145 c 0
 378 138 376 125 374 116 c 2
EndSplineSet
Validated: 3073
EndChar

StartChar: section
Encoding: 167 167 102
Width: 600
Flags: HMW
LayerCount: 2
Fore
SplineSet
222 415 m 0
 222 479 295 583 418 583 c 2
 643 583 l 1
 616 456 l 2
 608 418 591 401 560 401 c 0
 541 401 525 415 525 432 c 0
 525 452 532 475 536 493 c 1
 392 493 l 2
 350 493 310 464 310 433 c 0
 310 410 340 379 397 342 c 2
 478 291 l 2
 569 233 594 204 594 154 c 0
 594 85 542 27 464 10 c 1
 465 7 465 4 465 3 c 0
 465 -36 427 -170 276 -170 c 2
 45 -170 l 1
 72 -43 l 2
 80 -6 98 12 128 12 c 0
 149 12 164 -2 164 -20 c 0
 164 -33 155 -66 152 -82 c 1
 297 -82 l 2
 337 -82 376 -52 376 -21 c 0
 376 2 345 34 291 69 c 2
 198 130 l 2
 123 178 93 215 93 259 c 0
 93 325 144 382 223 402 c 1
 222 408 222 411 222 415 c 0
261 326 m 1
 247 326 l 1
 217 325 193 307 193 284 c 0
 193 260 213 237 262 205 c 2
 352 147 l 1
 398 114 412 103 425 88 c 1
 443 88 l 1
 472 89 494 106 494 126 c 0
 494 150 466 181 417 214 c 2
 329 271 l 2
 300 290 291 297 261 326 c 1
EndSplineSet
Validated: 3073
EndChar

StartChar: dieresis
Encoding: 168 168 103
Width: 600
Flags: HMW
LayerCount: 2
Fore
SplineSet
335 654 m 0
 364 654 384 634 384 606 c 0
 384 569 348 534 309 534 c 0
 282 534 261 555 261 582 c 0
 261 618 298 654 335 654 c 0
543 654 m 0
 572 654 592 634 592 606 c 0
 592 569 556 534 517 534 c 0
 490 534 469 555 469 582 c 0
 469 618 506 654 543 654 c 0
EndSplineSet
Validated: 3073
EndChar

StartChar: copyright
Encoding: 169 169 104
Width: 600
Flags: HMW
LayerCount: 2
Fore
SplineSet
344 189 m 0
 427 189 413 229 452 229 c 0
 469 229 481 217 481 200 c 0
 481 159 404 118 327 118 c 0
 245 118 189 166 189 238 c 0
 189 264 196 284 200 305 c 0
 219 397 301 466 390 466 c 0
 419 466 439 461 465 447 c 1
 472 460 483 466 497 466 c 0
 513 466 524 455 524 441 c 0
 524 435 522 428 521 422 c 0
 513 386 509 324 465 324 c 0
 444 324 437 334 437 363 c 0
 437 380 409 395 377 395 c 0
 279 395 262 281 262 252 c 0
 264 211 293 189 344 189 c 0
429 598 m 0
 571 598 675 495 675 355 c 0
 675 164 491 -15 293 -15 c 0
 152 -15 48 88 48 228 c 0
 48 420 232 598 429 598 c 0
412 525 m 0
 263 525 123 389 123 243 c 0
 123 136 202 58 310 58 c 0
 460 58 600 194 600 340 c 0
 600 447 521 525 412 525 c 0
EndSplineSet
Validated: 3073
EndChar

StartChar: ordfeminine
Encoding: 170 170 105
Width: 600
Flags: HMW
LayerCount: 2
Fore
SplineSet
266 532 m 0
 266 582 358 595 420 595 c 0
 494 595 539 565 539 515 c 0
 539 504 539 499 537 490 c 2
 509 362 l 1
 516 362 l 2
 548 362 559 354 559 331 c 0
 559 303 536 284 500 284 c 2
 415 284 l 1
 417 295 l 1
 374 279 343 273 305 273 c 0
 241 273 195 307 195 354 c 0
 195 386 235 487 396 487 c 0
 416 487 429 486 457 482 c 1
 458 486 459 490 459 494 c 0
 459 511 443 517 406 517 c 0
 359 517 314 501 296 501 c 0
 279 501 266 514 266 532 c 0
436 383 m 1
 442 410 l 1
 410 416 396 417 377 417 c 0
 332 417 288 394 288 370 c 0
 288 360 305 352 326 352 c 0
 359 352 404 365 436 383 c 1
529 209 m 0
 529 189 518 162 469 162 c 2
 213 162 l 2
 177 162 168 166 168 184 c 0
 168 226 182 239 230 239 c 2
 484 239 l 2
 517 239 529 231 529 209 c 0
EndSplineSet
Validated: 3073
EndChar

StartChar: guillemotleft
Encoding: 171 171 106
Width: 600
Flags: HMW
LayerCount: 2
Fore
SplineSet
222 218 m 1
 343 77 l 1
 350 70 354 60 354 55 c 0
 354 38 334 20 314 20 c 0
 305 20 301 22 289 33 c 2
 80 218 l 1
 367 402 l 2
 384 413 389 415 398 415 c 0
 414 415 425 405 425 391 c 0
 425 380 419 370 403 358 c 2
 222 218 l 1
451 218 m 1
 572 77 l 2
 579 69 583 61 583 54 c 0
 583 38 563 20 543 20 c 0
 534 20 530 22 518 33 c 2
 309 218 l 1
 596 402 l 2
 613 413 618 415 627 415 c 0
 643 415 654 405 654 391 c 0
 654 380 648 370 632 358 c 2
 451 218 l 1
EndSplineSet
Validated: 3073
EndChar

StartChar: logicalnot
Encoding: 172 172 107
Width: 600
Flags: HMW
LayerCount: 2
Fore
SplineSet
125 385 m 0
 125 407 136 445 203 445 c 2
 560 445 l 1
 504 181 l 2
 501 168 492 115 440 115 c 0
 417 115 400 131 400 152 c 0
 400 159 402 170 404 181 c 0
 439 345 l 1
 182 345 l 2
 141 345 125 356 125 385 c 0
EndSplineSet
Validated: 3073
EndChar

StartChar: registered
Encoding: 174 174 109
Width: 600
Flags: HMW
LayerCount: 2
Fore
SplineSet
321 246 m 1
 311 197 l 1
 335 197 346 188 346 169 c 0
 346 144 324 126 294 126 c 2
 225 126 l 2
 200 126 187 135 187 154 c 0
 187 179 208 197 239 197 c 1
 279 387 l 1
 254 388 243 396 243 416 c 0
 243 441 264 458 296 458 c 2
 389 458 l 2
 455 458 496 426 496 373 c 0
 496 329 464 287 415 266 c 1
 434 244 439 235 453 197 c 1
 473 195 482 187 482 169 c 0
 482 144 461 126 430 126 c 2
 390 126 l 1
 388 175 362 233 336 246 c 1
 321 246 l 1
336 316 m 1
 362 316 l 2
 395 316 424 337 424 360 c 0
 424 377 406 387 376 387 c 2
 351 387 l 1
 336 316 l 1
429 598 m 0
 572 598 675 495 675 355 c 0
 675 163 491 -15 293 -15 c 0
 152 -15 48 88 48 228 c 0
 48 420 232 598 429 598 c 0
413 525 m 0
 263 525 123 389 123 243 c 0
 123 136 202 58 310 58 c 0
 460 58 600 194 600 340 c 0
 600 447 521 525 413 525 c 0
EndSplineSet
Validated: 3073
EndChar

StartChar: macron
Encoding: 175 175 110
Width: 600
Flags: HMW
LayerCount: 2
Fore
SplineSet
311 626 m 2
 555 626 l 2
 588 626 600 617 600 593 c 0
 600 566 574 546 538 546 c 2
 294 546 l 2
 261 546 249 554 249 579 c 0
 249 607 274 626 311 626 c 2
EndSplineSet
Validated: 3073
EndChar

StartChar: degree
Encoding: 176 176 111
Width: 600
Flags: HMW
LayerCount: 2
Fore
SplineSet
428 596 m 0
 509 596 568 537 568 457 c 0
 568 346 462 243 350 243 c 0
 269 243 210 302 210 383 c 0
 210 494 315 596 428 596 c 0
414 535 m 0
 341 535 272 468 272 396 c 0
 272 343 310 304 363 304 c 0
 437 304 506 372 506 444 c 0
 506 497 467 535 414 535 c 0
EndSplineSet
Validated: 3073
EndChar

StartChar: plusminus
Encoding: 177 177 112
Width: 600
Flags: HMW
LayerCount: 2
Fore
SplineSet
640 390 m 0
 640 366 624 330 562 330 c 2
 420 330 l 1
 399 230 l 2
 396 218 387 164 335 164 c 0
 312 164 295 180 295 201 c 0
 295 210 295 211 299 230 c 2
 321 330 l 1
 179 330 l 2
 138 330 122 341 122 370 c 0
 122 393 134 430 200 430 c 2
 342 430 l 1
 369 558 l 1
 378 602 399 624 433 624 c 0
 456 624 473 608 473 586 c 0
 473 579 472 574 469 558 c 0
 442 430 l 1
 583 430 l 2
 620 430 640 425 640 390 c 0
52 40 m 0
 52 63 64 100 130 100 c 2
 513 100 l 2
 550 100 570 95 570 60 c 0
 570 36 554 0 492 0 c 2
 109 0 l 2
 68 0 52 11 52 40 c 0
EndSplineSet
Validated: 3073
EndChar

StartChar: twosuperior
Encoding: 178 178 113
Width: 600
Flags: HMW
LayerCount: 2
Fore
SplineSet
294 648 m 0
 294 670 348 759 450 759 c 0
 514 759 558 720 558 664 c 0
 558 600 533 573 341 436 c 1
 450 436 l 1
 457 457 470 468 489 468 c 0
 504 468 516 457 516 443 c 0
 516 439 515 431 514 425 c 0
 502 369 l 1
 222 369 l 1
 237 437 l 1
 472 603 490 619 490 651 c 0
 490 675 467 692 435 692 c 0
 356 692 367 622 321 622 c 0
 306 622 294 633 294 648 c 0
EndSplineSet
Validated: 3073
EndChar

StartChar: threesuperior
Encoding: 179 179 114
Width: 600
Flags: HMW
LayerCount: 2
Fore
SplineSet
280 456 m 0
 301 456 292 435 368 435 c 0
 434 435 472 457 472 497 c 0
 472 568 367 527 367 574 c 0
 367 595 387 614 410 614 c 2
 434 614 l 2
 466 614 496 640 496 666 c 0
 496 687 475 700 441 700 c 0
 368 700 379 663 342 663 c 0
 327 663 315 675 315 689 c 0
 315 729 385 767 459 767 c 0
 523 767 564 733 564 678 c 0
 564 614 510 594 494 578 c 1
 524 561 540 534 540 504 c 0
 540 429 467 368 356 368 c 0
 286 368 239 387 239 415 c 0
 239 436 259 456 280 456 c 0
EndSplineSet
Validated: 3073
EndChar

StartChar: acute
Encoding: 180 180 115
Width: 600
Flags: HMW
LayerCount: 2
Fore
SplineSet
464 666 m 1
 600 666 l 1
 410 512 l 2
 400 504 388 496 376 496 c 0
 355 496 343 514 343 531 c 0
 343 537 346 544 349 548 c 2
 464 666 l 1
EndSplineSet
Validated: 3073
EndChar

StartChar: micro
Encoding: 181 181 116
Width: 600
Flags: HMW
LayerCount: 2
Fore
SplineSet
583 61 m 0
 583 37 567 0 504 0 c 2
 410 0 l 1
 415 23 l 1
 354 -4 301 -16 249 -16 c 0
 229 -16 212 -13 193 -7 c 1
 176 -87 l 2
 164 -147 126 -153 112 -153 c 0
 89 -153 72 -137 72 -116 c 0
 72 -109 73 -100 76 -87 c 0
 166 338 l 1
 150 338 l 2
 110 338 94 349 94 377 c 0
 94 406 125 438 153 438 c 0
 156 438 l 2
 171 437 l 1
 288 437 l 1
 225 144 l 2
 223 134 222 125 222 120 c 0
 222 98 243 84 276 84 c 0
 321 84 368 100 439 138 c 1
 482 338 l 1
 447 338 l 2
 406 338 390 349 390 377 c 0
 390 403 406 437 468 437 c 2
 603 437 l 1
 531 100 l 1
 567 100 583 88 583 61 c 0
EndSplineSet
Validated: 3073
EndChar

StartChar: paragraph
Encoding: 182 182 117
Width: 600
Flags: HMW
LayerCount: 2
Fore
SplineSet
672 552 m 0
 672 531 660 505 610 505 c 2
 575 505 l 1
 447 -96 l 1
 484 -96 l 2
 517 -96 529 -104 529 -127 c 0
 529 -144 520 -174 467 -174 c 2
 374 -174 l 2
 353 -174 345 -165 341 -140 c 1
 323 -169 315 -174 291 -174 c 2
 154 -174 l 2
 121 -174 108 -165 108 -143 c 0
 108 -123 120 -96 171 -96 c 2
 249 -96 l 1
 309 185 l 1
 197 197 123 256 123 334 c 0
 123 486 263 583 429 583 c 2
 626 583 l 2
 659 583 672 574 672 552 c 0
326 266 m 1
 376 500 l 1
 310 488 257 449 248 405 c 2
 239 361 l 2
 238 356 237 351 237 347 c 0
 237 308 269 279 326 266 c 1
499 505 m 1
 455 505 l 1
 327 -96 l 1
 339 -102 343 -108 344 -124 c 1
 352 -109 359 -102 371 -96 c 1
 499 505 l 1
EndSplineSet
Validated: 3073
EndChar

StartChar: middot
Encoding: 183 183 118
Width: 600
Flags: HMW
LayerCount: 2
Fore
SplineSet
344 292 m 0
 378 292 404 265 404 231 c 0
 404 199 377 172 344 172 c 0
 311 172 284 199 284 232 c 0
 284 265 311 292 344 292 c 0
EndSplineSet
Validated: 3073
EndChar

StartChar: cedilla
Encoding: 184 184 119
Width: 600
Flags: HMW
LayerCount: 2
Fore
SplineSet
194 -102 m 0
 210 -102 236 -130 274 -130 c 0
 300 -130 316 -118 316 -99 c 0
 316 -81 300 -71 270 -71 c 0
 264 -71 259 -71 247 -73 c 1
 262 0 l 1
 332 0 l 1
 330 -12 l 1
 372 -21 388 -39 388 -79 c 0
 388 -146 330 -200 258 -200 c 0
 223 -200 150 -182 150 -145 c 0
 150 -123 171 -102 194 -102 c 0
EndSplineSet
Validated: 3073
EndChar

StartChar: onesuperior
Encoding: 185 185 120
Width: 600
Flags: HMW
LayerCount: 2
Fore
SplineSet
489 760 m 1
 420 436 l 1
 477 436 l 2
 504 436 514 429 514 410 c 0
 514 385 494 369 463 369 c 2
 281 369 l 2
 256 369 244 377 244 396 c 0
 244 421 264 436 296 436 c 2
 353 436 l 1
 403 673 l 1
 353 661 l 2
 341 658 337 657 331 657 c 0
 317 657 307 668 307 684 c 0
 307 706 320 718 350 726 c 2
 489 760 l 1
EndSplineSet
Validated: 3073
EndChar

StartChar: ordmasculine
Encoding: 186 186 121
Width: 600
Flags: HMW
LayerCount: 2
Fore
SplineSet
427 595 m 0
 508 595 566 540 566 463 c 0
 566 363 468 273 359 273 c 0
 278 273 219 326 219 400 c 0
 219 498 322 595 427 595 c 0
411 517 m 0
 356 517 300 466 300 416 c 0
 300 380 334 351 375 351 c 0
 431 351 485 397 485 445 c 0
 485 487 454 517 411 517 c 0
526 209 m 0
 526 188 514 162 465 162 c 2
 210 162 l 2
 179 162 166 171 166 193 c 0
 166 213 178 239 227 239 c 2
 482 239 l 2
 514 239 526 231 526 209 c 0
EndSplineSet
Validated: 3073
EndChar

StartChar: guillemotright
Encoding: 187 187 122
Width: 600
Flags: HMW
LayerCount: 2
Fore
SplineSet
476 217 m 1
 355 358 l 1
 348 365 344 375 344 380 c 0
 344 397 364 415 384 415 c 0
 393 415 397 413 409 402 c 2
 617 217 l 1
 331 33 l 2
 314 22 309 20 300 20 c 0
 284 20 273 30 273 44 c 0
 273 55 279 65 295 77 c 2
 476 217 l 1
246 217 m 1
 125 358 l 2
 118 366 114 374 114 381 c 0
 114 397 134 415 154 415 c 0
 163 415 167 413 179 402 c 2
 387 217 l 1
 101 33 l 2
 84 22 79 20 70 20 c 0
 54 20 43 30 43 44 c 0
 43 55 49 65 65 77 c 2
 246 217 l 1
EndSplineSet
Validated: 3073
EndChar

StartChar: AE
Encoding: 198 198 133
Width: 600
Flags: HMW
LayerCount: 2
Fore
SplineSet
67 100 m 1
 264 483 l 1
 250 483 l 2
 218 483 193 490 193 519 c 0
 193 570 229 583 271 583 c 2
 710 583 l 1
 675 418 l 2
 670 392 647 372 615 372 c 0
 587 372 574 385 574 406 c 0
 574 410 574 414 575 418 c 2
 589 483 l 1
 473 483 l 1
 443 342 l 1
 462 342 l 1
 470 372 492 392 522 392 c 0
 547 392 562 378 562 351 c 0
 562 345 561 338 559 331 c 2
 543 253 l 2
 536 218 509 197 481 197 c 0
 455 197 439 205 439 229 c 0
 439 233 440 238 441 243 c 1
 422 243 l 1
 391 100 l 1
 514 100 l 1
 519 123 l 2
 525 153 541 179 581 179 c 0
 612 179 622 167 622 146 c 0
 622 139 621 131 619 123 c 2
 593 0 l 1
 268 0 l 2
 246 0 231 14 231 38 c 0
 231 78 263 100 291 100 c 1
 304 158 l 1
 202 158 l 1
 171 100 l 1
 192 97 204 84 204 65 c 0
 204 23 172 0 134 0 c 2
 59 0 l 2
 21 0 2 12 2 37 c 0
 2 77 35 100 67 100 c 1
325 259 m 1
 370 471 l 1
 256 259 l 1
 325 259 l 1
EndSplineSet
Validated: 3073
EndChar

StartChar: Ccedilla
Encoding: 199 199 134
Width: 600
Flags: HMW
LayerCount: 2
Fore
SplineSet
347 86 m 0
 488 86 504 159 547 159 c 0
 570 159 588 141 588 118 c 0
 588 95 530 -2 334 -14 c 1
 376 -22 386 -40 386 -80 c 0
 386 -145 328 -200 258 -200 c 0
 201 -200 148 -174 148 -145 c 0
 148 -123 169 -102 192 -102 c 0
 208 -102 234 -130 272 -130 c 0
 298 -130 314 -118 314 -99 c 0
 314 -82 298 -71 273 -71 c 0
 267 -71 263 -71 246 -73 c 1
 265 -9 l 1
 150 14 80 83 80 195 c 0
 80 213 82 231 86 249 c 2
 100 315 l 2
 134 475 277 597 432 597 c 0
 482 597 516 590 576 559 c 1
 593 576 606 583 623 583 c 0
 646 583 663 567 663 545 c 0
 663 538 663 534 659 517 c 0
 641 433 l 2
 637 418 625 367 577 367 c 0
 554 367 538 382 538 404 c 2
 538 406 l 1
 539 425 l 1
 539 427 l 2
 539 464 482 497 415 497 c 0
 216 497 182 266 182 214 c 0
 182 135 245 86 347 86 c 0
EndSplineSet
Validated: 3073
EndChar

StartChar: Eth
Encoding: 208 208 143
Width: 600
Flags: HMW
LayerCount: 2
Fore
SplineSet
23 40 m 0
 23 60 38 100 96 100 c 1
 126 243 l 1
 119 243 l 2
 78 243 62 254 62 283 c 0
 62 308 78 343 140 343 c 2
 147 343 l 1
 177 483 l 1
 142 483 126 496 126 523 c 0
 126 546 138 583 204 583 c 2
 417 583 l 2
 539 583 622 497 622 369 c 0
 622 167 489 0 285 0 c 2
 80 0 l 2
 39 0 23 12 23 40 c 0
378 304 m 0
 378 278 362 243 300 243 c 2
 226 243 l 1
 196 100 l 1
 306 100 l 2
 347 100 472 105 506 261 c 2
 516 307 l 2
 519 321 520 335 520 350 c 0
 520 406 493 483 387 483 c 2
 277 483 l 1
 247 343 l 1
 321 343 l 2
 355 343 378 338 378 304 c 0
EndSplineSet
Validated: 3073
EndChar

StartChar: multiply
Encoding: 215 215 150
Width: 600
Flags: HMW
LayerCount: 2
Fore
SplineSet
344 209 m 1
 219 106 l 2
 194 85 183 80 167 80 c 0
 143 80 126 97 126 120 c 0
 126 141 134 153 163 177 c 2
 288 280 l 1
 207 383 l 2
 192 401 189 408 189 421 c 0
 189 450 221 480 252 480 c 0
 267 480 277 474 293 454 c 2
 374 351 l 1
 499 454 l 2
 525 475 534 480 551 480 c 0
 575 480 592 463 592 440 c 0
 592 420 583 407 555 383 c 2
 430 280 l 1
 511 177 l 2
 525 159 529 151 529 139 c 0
 529 110 497 80 466 80 c 0
 450 80 441 85 425 106 c 2
 344 209 l 1
EndSplineSet
Validated: 3073
EndChar

StartChar: Ostroke
Encoding: 216 216 151
Width: 600
Flags: HMW
LayerCount: 2
Fore
SplineSet
644 365 m 0
 644 138 443 -14 293 -14 c 0
 243 -14 198 0 160 28 c 1
 92 -40 l 2
 67 -65 58 -70 39 -70 c 0
 16 -70 -1 -54 -1 -33 c 0
 -1 -16 5 -5 30 19 c 2
 103 92 l 1
 80 132 70 171 70 220 c 0
 70 413 242 597 422 597 c 0
 475 597 520 581 561 549 c 1
 619 607 l 2
 644 632 655 638 673 638 c 0
 695 638 712 622 712 600 c 0
 712 582 707 572 682 548 c 0
 616 483 l 1
 635 449 644 409 644 365 c 0
533 400 m 1
 239 107 l 1
 262 93 287 86 314 86 c 0
 430 86 541 212 541 342 c 0
 541 364 539 380 533 400 c 1
185 174 m 1
 482 471 l 1
 458 488 431 497 400 497 c 0
 285 497 173 371 173 243 c 0
 173 217 177 197 185 174 c 1
EndSplineSet
Validated: 3073
EndChar

StartChar: Thorn
Encoding: 222 222 157
Width: 600
Flags: HMW
LayerCount: 2
Fore
SplineSet
588 321 m 0
 588 249 535 140 322 140 c 2
 224 140 l 1
 216 100 l 1
 314 100 l 2
 348 100 372 95 372 61 c 0
 372 36 356 0 293 0 c 2
 80 0 l 2
 39 0 23 12 23 40 c 0
 23 65 39 100 101 100 c 2
 116 100 l 1
 197 483 l 1
 182 483 l 2
 149 483 126 488 126 523 c 0
 126 547 142 583 204 583 c 2
 417 583 l 2
 458 583 474 572 474 543 c 0
 474 519 458 483 396 483 c 2
 297 483 l 1
 289 443 l 1
 387 443 l 2
 461 443 503 435 535 415 c 0
 568 394 588 358 588 321 c 0
246 240 m 1
 376 240 l 2
 448 240 484 261 484 302 c 0
 484 331 459 343 398 343 c 2
 267 343 l 1
 246 240 l 1
EndSplineSet
Validated: 3073
EndChar

StartChar: germandbls
Encoding: 223 223 158
Width: 600
Flags: HMW
LayerCount: 2
Fore
SplineSet
296 342 m 0
 296 437 444 369 444 470 c 0
 444 503 420 523 380 523 c 0
 331 523 302 502 293 461 c 0
 216 100 l 1
 239 96 250 84 250 63 c 0
 250 40 239 0 171 0 c 2
 78 0 l 2
 38 0 22 11 22 40 c 0
 22 65 38 100 100 100 c 2
 116 100 l 1
 196 478 l 2
 214 563 299 623 400 623 c 0
 488 623 546 570 546 490 c 0
 546 441 530 405 489 365 c 1
 542 328 569 278 569 214 c 0
 569 156 529 -16 370 -16 c 0
 310 -16 272 18 272 74 c 0
 272 121 300 156 338 156 c 0
 359 156 375 143 375 125 c 2
 375 113 l 2
 375 94 383 84 399 84 c 0
 434 84 467 137 467 191 c 0
 467 258 420 294 342 303 c 0
 309 307 296 318 296 342 c 0
EndSplineSet
Validated: 3073
EndChar

StartChar: ae
Encoding: 230 230 165
Width: 600
Flags: HMW
LayerCount: 2
Fore
SplineSet
523 450 m 0
 600 450 647 391 647 295 c 0
 647 271 644 246 638 218 c 2
 629 172 l 1
 389 172 l 1
 393 109 410 84 451 84 c 0
 498 84 544 118 573 118 c 0
 595 118 608 102 608 80 c 0
 608 1 470 -16 431 -16 c 0
 391 -16 369 -9 337 16 c 1
 326 5 313 -1 297 -1 c 0
 282 -1 272 5 264 16 c 1
 222 -7 191 -16 148 -16 c 0
 61 -16 18 29 18 100 c 0
 18 245 182 286 248 286 c 0
 263 286 282 284 307 281 c 1
 311 301 l 2
 312 305 312 309 312 313 c 0
 312 335 297 350 273 350 c 0
 236 350 180 325 155 325 c 0
 132 325 117 342 117 365 c 0
 117 440 269 450 295 450 c 0
 341 450 372 433 399 394 c 1
 443 433 481 450 523 450 c 0
233 197 m 0
 165 197 109 176 109 129 c 0
 109 101 131 84 168 84 c 0
 199 84 228 96 275 130 c 1
 287 189 l 1
 265 195 250 197 233 197 c 0
538 258 m 1
 538 265 541 280 541 295 c 0
 541 321 533 350 498 350 c 0
 442 350 416 277 409 258 c 1
 538 258 l 1
EndSplineSet
Validated: 3073
EndChar

StartChar: ccedilla
Encoding: 231 231 166
Width: 600
Flags: HMW
LayerCount: 2
Fore
SplineSet
328 84 m 0
 485 84 479 140 524 140 c 0
 548 140 565 123 565 99 c 0
 565 76 531 -10 318 -16 c 1
 360 -24 370 -40 370 -80 c 0
 370 -145 312 -200 243 -200 c 0
 185 -200 133 -174 133 -145 c 0
 133 -123 154 -102 177 -102 c 0
 193 -102 219 -130 256 -130 c 0
 282 -130 298 -118 298 -99 c 0
 298 -80 282 -71 249 -71 c 0
 245 -71 239 -72 230 -73 c 1
 248 -14 l 1
 133 -2 72 62 72 156 c 0
 72 226 135 450 386 450 c 0
 442 450 488 440 523 420 c 1
 534 441 546 450 566 450 c 0
 589 450 606 436 606 415 c 0
 606 406 605 404 601 384 c 0
 585 307 l 2
 582 292 572 241 521 241 c 0
 484 241 480 264 480 289 c 0
 480 338 415 350 365 350 c 0
 206 350 175 215 175 179 c 0
 175 115 225 84 328 84 c 0
EndSplineSet
Validated: 3073
EndChar

StartChar: eth
Encoding: 240 240 175
Width: 600
Flags: HMW
LayerCount: 2
Fore
SplineSet
331 551 m 1
 268 580 260 579 260 597 c 0
 260 619 284 640 308 640 c 0
 331 640 360 630 401 609 c 2
 426 596 l 1
 512 637 l 2
 525 643 537 646 547 646 c 0
 562 646 572 635 572 620 c 0
 572 605 561 592 542 583 c 2
 491 558 l 1
 609 462 617 362 617 312 c 0
 617 106 459 -16 298 -16 c 0
 173 -16 83 62 83 170 c 0
 83 286 204 443 382 443 c 0
 431 443 459 433 514 396 c 1
 486 446 445 490 404 518 c 1
 301 468 l 2
 280 457 276 456 267 456 c 0
 253 456 244 467 244 484 c 0
 244 503 249 509 274 522 c 2
 331 551 l 1
318 84 m 0
 402 84 504 143 504 238 c 0
 504 303 450 350 374 350 c 0
 278 350 187 271 187 188 c 0
 187 130 245 84 318 84 c 0
EndSplineSet
Validated: 3073
EndChar

StartChar: divide
Encoding: 247 247 182
Width: 600
Flags: HMW
LayerCount: 2
Fore
SplineSet
101 270 m 0
 101 293 113 330 179 330 c 2
 562 330 l 2
 599 330 619 325 619 290 c 0
 619 266 603 230 541 230 c 2
 158 230 l 2
 117 230 101 241 101 270 c 0
335 160 m 0
 375 160 397 141 397 108 c 0
 397 63 357 28 306 28 c 0
 267 28 244 47 244 80 c 0
 244 125 284 160 335 160 c 0
413 532 m 0
 454 532 476 513 476 480 c 0
 476 435 436 400 385 400 c 0
 346 400 323 419 323 452 c 0
 323 496 363 532 413 532 c 0
EndSplineSet
Validated: 3073
EndChar

StartChar: ostroke
Encoding: 248 248 183
Width: 600
Flags: HMW
LayerCount: 2
Fore
SplineSet
619 402 m 2
 568 359 l 1
 585 329 594 297 594 260 c 0
 594 116 445 -16 282 -16 c 0
 236 -16 196 -6 159 14 c 1
 91 -44 l 2
 67 -65 56 -70 41 -70 c 0
 18 -70 2 -54 2 -32 c 0
 2 -13 10 -1 37 22 c 2
 96 72 l 1
 77 103 68 136 68 174 c 0
 68 317 217 450 377 450 c 0
 422 450 476 437 506 419 c 1
 565 468 l 2
 589 489 599 494 615 494 c 0
 638 494 654 478 654 456 c 0
 654 437 646 424 619 402 c 2
481 286 m 1
 251 91 l 1
 268 86 282 84 301 84 c 0
 403 84 492 157 492 241 c 0
 492 258 489 271 481 286 c 1
182 145 m 1
 415 342 l 1
 395 347 378 350 359 350 c 0
 259 350 170 276 170 192 c 0
 170 177 174 161 182 145 c 1
EndSplineSet
Validated: 3073
EndChar

StartChar: thorn
Encoding: 254 254 189
Width: 600
Flags: HMW
LayerCount: 2
Fore
SplineSet
123 564 m 0
 123 589 139 624 201 624 c 2
 317 624 l 1
 267 392 l 1
 325 434 371 450 433 450 c 0
 555 450 633 379 633 269 c 0
 633 127 500 10 339 10 c 0
 282 10 241 27 198 66 c 1
 163 -100 l 1
 221 -100 l 2
 254 -100 277 -105 277 -139 c 0
 277 -165 261 -200 199 -200 c 2
 25 -200 l 2
 -15 -200 -31 -189 -31 -160 c 0
 -31 -135 -15 -100 47 -100 c 2
 63 -100 l 1
 195 524 l 1
 179 524 l 2
 138 524 123 535 123 564 c 0
356 110 m 0
 497 110 532 218 532 252 c 0
 532 312 483 350 408 350 c 0
 260 350 231 237 231 208 c 0
 231 170 256 110 356 110 c 0
EndSplineSet
Validated: 3073
EndChar

StartChar: Aogonek
Encoding: 260 260 195
Width: 600
Flags: HMW
AnchorPoint: "above" 410 583 basechar 0
LayerCount: 2
Fore
SplineSet
455 -124 m 0
 483 -124 510 -100 533 -100 c 0
 552 -100 565 -113 565 -130 c 0
 565 -182 473 -200 431 -200 c 0
 382 -200 354 -175 354 -134 c 0
 354 -65 389 -40 459 0 c 1
 412 0 l 2
 367 0 354 11 354 32 c 0
 354 80 388 100 433 100 c 2
 456 100 l 1
 446 158 l 1
 208 158 l 1
 172 100 l 1
 195 100 l 2
 230 100 252 90 252 63 c 0
 252 20 226 0 174 0 c 2
 51 0 l 2
 20 0 5 12 5 35 c 0
 5 76 34 100 63 100 c 1
 300 483 l 1
 237 483 l 2
 205 483 179 489 179 519 c 0
 179 571 219 583 258 583 c 2
 474 583 l 1
 570 100 l 1
 594 100 609 92 609 68 c 0
 609 27 587 4 558 1 c 1
 516 -24 434 -54 434 -109 c 0
 434 -119 442 -124 455 -124 c 0
426 258 m 1
 389 450 l 1
 269 258 l 1
 426 258 l 1
EndSplineSet
Validated: 3073
EndChar

StartChar: aogonek
Encoding: 261 261 196
Width: 600
Flags: HMW
LayerCount: 2
Fore
SplineSet
435 -124 m 0
 465 -124 490 -100 515 -100 c 0
 533 -100 546 -112 546 -130 c 0
 546 -181 451 -200 412 -200 c 0
 364 -200 335 -175 335 -134 c 0
 335 -49 417 -14 442 0 c 1
 388 0 l 1
 393 23 l 1
 340 -2 278 -16 219 -16 c 0
 130 -16 65 32 65 98 c 0
 65 136 121 288 346 288 c 0
 378 288 408 285 447 278 c 1
 450 290 453 297 453 311 c 0
 453 338 426 350 369 350 c 0
 299 350 241 327 207 327 c 0
 185 327 169 343 169 366 c 0
 169 434 305 450 389 450 c 0
 493 450 557 407 557 337 c 0
 557 324 556 314 553 302 c 0
 510 100 l 1
 527 100 l 2
 560 100 583 95 583 61 c 0
 583 -4 416 -39 416 -109 c 0
 416 -119 423 -124 435 -124 c 0
320 196 m 0
 236 196 174 150 174 118 c 0
 174 99 203 84 241 84 c 0
 296 84 355 101 418 135 c 1
 428 185 l 1
 390 192 354 196 320 196 c 0
EndSplineSet
Validated: 3073
EndChar

StartChar: Dcroat
Encoding: 272 272 207
Width: 600
Flags: HMW
LayerCount: 2
Fore
SplineSet
23 40 m 0
 23 60 38 100 96 100 c 1
 126 243 l 1
 119 243 l 2
 78 243 62 254 62 283 c 0
 62 308 78 343 140 343 c 2
 147 343 l 1
 177 483 l 1
 142 483 126 496 126 523 c 0
 126 546 138 583 204 583 c 2
 417 583 l 2
 539 583 622 497 622 369 c 0
 622 167 489 0 285 0 c 2
 80 0 l 2
 39 0 23 12 23 40 c 0
378 304 m 0
 378 278 362 243 300 243 c 2
 226 243 l 1
 196 100 l 1
 306 100 l 2
 347 100 472 105 506 261 c 2
 516 307 l 2
 519 321 520 335 520 350 c 0
 520 406 493 483 387 483 c 2
 277 483 l 1
 247 343 l 1
 321 343 l 2
 355 343 378 338 378 304 c 0
EndSplineSet
Validated: 3073
EndChar

StartChar: dcroat
Encoding: 273 273 208
Width: 600
Flags: HMW
LayerCount: 2
Fore
SplineSet
430 565 m 0
 430 586 442 624 508 624 c 2
 624 624 l 1
 600 510 l 1
 615 510 l 2
 648 510 672 505 672 472 c 0
 672 445 656 410 594 410 c 2
 579 410 l 1
 513 100 l 1
 529 100 l 2
 560 100 585 96 585 60 c 0
 585 35 569 0 507 0 c 2
 391 0 l 1
 399 35 l 1
 339 -1 296 -14 238 -14 c 0
 75 -14 34 95 34 168 c 0
 34 236 65 308 116 360 c 0
 177 422 248 451 338 451 c 0
 397 451 440 435 477 400 c 1
 503 525 l 1
 487 525 l 2
 446 525 430 535 430 565 c 0
441 244 m 0
 441 284 422 351 314 351 c 0
 175 351 137 227 137 193 c 0
 137 126 184 86 262 86 c 0
 403 86 441 208 441 244 c 0
EndSplineSet
Validated: 3073
EndChar

StartChar: Eogonek
Encoding: 280 280 215
Width: 600
Flags: HMW
LayerCount: 2
Fore
SplineSet
451 -122 m 0
 480 -122 504 -100 527 -100 c 0
 546 -100 558 -113 558 -132 c 0
 558 -181 467 -200 429 -200 c 0
 381 -200 352 -172 352 -127 c 0
 352 -71 379 -44 464 0 c 1
 80 0 l 2
 40 0 23 12 23 40 c 0
 23 66 38 100 101 100 c 2
 116 100 l 1
 197 483 l 1
 182 483 l 2
 141 483 125 494 125 523 c 0
 125 546 137 583 204 583 c 2
 652 583 l 1
 620 433 l 2
 617 418 608 366 556 366 c 0
 534 366 516 382 516 404 c 0
 516 426 526 462 531 483 c 1
 297 483 l 1
 267 342 l 1
 352 342 l 1
 354 358 365 416 417 416 c 0
 440 416 457 400 457 378 c 0
 457 370 457 369 453 349 c 0
 428 236 l 2
 425 222 416 170 365 170 c 0
 342 170 325 186 325 207 c 0
 325 213 328 233 331 243 c 1
 246 243 l 1
 216 100 l 1
 471 100 l 1
 483 152 l 2
 486 167 496 219 546 219 c 0
 569 219 587 203 587 182 c 0
 587 174 587 170 583 152 c 0
 550 0 l 1
 490 -27 434 -60 434 -106 c 0
 434 -117 439 -122 451 -122 c 0
EndSplineSet
Validated: 3073
EndChar

StartChar: eogonek
Encoding: 281 281 216
Width: 600
Flags: HMW
LayerCount: 2
Fore
SplineSet
363 -124 m 0
 393 -124 419 -100 443 -100 c 0
 461 -100 474 -112 474 -130 c 0
 474 -181 379 -200 340 -200 c 0
 292 -200 263 -175 263 -134 c 0
 263 -85 292 -48 346 -14 c 1
 322 -15 308 -16 294 -16 c 0
 158 -16 74 55 74 169 c 0
 74 318 221 450 387 450 c 0
 517 450 600 375 600 259 c 0
 600 228 592 199 587 172 c 1
 178 172 l 1
 189 112 237 84 325 84 c 0
 412 84 489 117 528 117 c 0
 551 117 566 101 566 79 c 0
 566 51 551 34 512 19 c 0
 422 -15 344 -71 344 -109 c 0
 344 -119 351 -124 363 -124 c 0
200 260 m 1
 495 260 l 1
 490 314 439 350 367 350 c 0
 293 350 228 315 200 260 c 1
EndSplineSet
Validated: 3073
EndChar

StartChar: Hbar
Encoding: 294 294 229
Width: 600
Flags: HMW
LayerCount: 2
Fore
SplineSet
628 400 m 0
 628 376 612 340 549 340 c 1
 498 100 l 1
 504 100 l 2
 535 100 561 97 561 59 c 0
 561 36 546 0 483 0 c 2
 362 0 l 2
 320 0 306 14 306 40 c 0
 306 66 321 100 383 100 c 2
 398 100 l 1
 428 241 l 1
 214 241 l 1
 184 100 l 1
 199 100 l 2
 230 100 256 96 256 59 c 0
 256 36 241 0 178 0 c 2
 57 0 l 2
 16 0 1 12 1 39 c 0
 1 63 13 100 78 100 c 2
 84 100 l 1
 135 340 l 1
 104 340 80 346 80 380 c 0
 80 406 95 440 157 440 c 1
 166 483 l 1
 138 486 123 499 123 521 c 0
 123 544 135 583 201 583 c 2
 302 583 l 2
 332 583 358 580 358 544 c 0
 358 517 343 483 281 483 c 2
 266 483 l 1
 236 341 l 1
 450 341 l 1
 480 483 l 1
 465 483 l 2
 432 483 408 488 408 524 c 0
 408 548 424 583 486 583 c 2
 587 583 l 2
 626 583 643 576 643 544 c 0
 643 508 615 486 580 483 c 1
 571 440 l 1
 609 440 628 434 628 400 c 0
EndSplineSet
Validated: 3073
EndChar

StartChar: hbar
Encoding: 295 295 230
Width: 600
Flags: HMW
LayerCount: 2
Fore
SplineSet
108 564 m 0
 108 589 123 624 185 624 c 2
 413 624 l 2
 446 624 470 619 470 584 c 0
 470 559 455 524 392 524 c 2
 280 524 l 1
 251 389 l 1
 300 430 349 450 401 450 c 0
 493 450 547 401 547 324 c 0
 547 311 546 298 543 284 c 2
 504 100 l 1
 510 100 l 2
 548 100 566 94 566 60 c 0
 566 34 551 0 489 0 c 2
 377 0 l 2
 334 0 319 14 319 40 c 0
 319 66 335 100 398 100 c 2
 404 100 l 1
 440 271 l 2
 443 284 445 294 445 302 c 0
 445 323 430 350 369 350 c 0
 322 350 298 338 229 283 c 1
 190 100 l 1
 196 100 l 2
 234 100 253 94 253 60 c 0
 253 34 237 0 175 0 c 2
 63 0 l 2
 20 0 6 15 6 41 c 0
 6 65 22 100 84 100 c 2
 90 100 l 1
 180 524 l 1
 164 524 l 2
 126 524 108 530 108 564 c 0
EndSplineSet
Validated: 3073
EndChar

StartChar: Iogonek
Encoding: 302 302 237
Width: 600
Flags: HMW
LayerCount: 2
Fore
SplineSet
380 -121 m 0
 409 -121 433 -99 456 -99 c 0
 475 -99 487 -112 487 -131 c 0
 487 -180 396 -199 358 -199 c 0
 310 -199 281 -171 281 -126 c 0
 281 -72 309 -44 394 0 c 1
 150 0 l 2
 109 0 93 11 93 40 c 0
 93 66 109 100 171 100 c 2
 272 100 l 1
 353 483 l 1
 252 483 l 2
 211 483 196 494 196 523 c 0
 196 549 212 583 274 583 c 2
 575 583 l 2
 609 583 632 578 632 544 c 0
 632 518 616 483 554 483 c 2
 453 483 l 1
 372 100 l 1
 472 100 l 2
 504 100 529 96 529 61 c 0
 529 33 514 16 475 -1 c 0
 412 -27 363 -68 363 -105 c 0
 363 -116 368 -121 380 -121 c 0
EndSplineSet
Validated: 3073
EndChar

StartChar: iogonek
Encoding: 303 303 238
Width: 600
Flags: HMW
LayerCount: 2
Fore
SplineSet
402 -124 m 0
 432 -124 458 -100 482 -100 c 0
 500 -100 513 -112 513 -130 c 0
 513 -181 418 -200 379 -200 c 0
 331 -200 302 -175 302 -134 c 0
 302 -49 384 -14 409 0 c 1
 129 0 l 2
 88 0 72 11 72 40 c 0
 72 66 88 100 150 100 c 2
 272 100 l 1
 322 337 l 1
 244 337 l 2
 202 337 186 348 186 377 c 0
 186 400 198 437 265 437 c 2
 443 437 l 1
 372 100 l 1
 493 100 l 2
 526 100 550 95 550 61 c 0
 550 -6 383 -37 383 -109 c 0
 383 -119 390 -124 402 -124 c 0
469 623 m 1
 446 518 l 1
 328 518 l 1
 351 623 l 1
 469 623 l 1
EndSplineSet
Validated: 3073
EndChar

StartChar: dotlessi
Encoding: 305 305 240
Width: 600
Flags: HMW
LayerCount: 2
Fore
SplineSet
186 377 m 0
 186 400 198 437 265 437 c 2
 443 437 l 1
 372 100 l 1
 493 100 l 2
 524 100 550 96 550 60 c 0
 550 38 536 0 472 0 c 2
 129 0 l 2
 88 0 72 11 72 40 c 0
 72 66 88 100 150 100 c 2
 272 100 l 1
 322 337 l 1
 244 337 l 2
 202 337 186 348 186 377 c 0
EndSplineSet
Validated: 3073
Substitution2: "'smcp' lowercase to small caps in Latin-1" Ismallcap
EndChar

StartChar: IJ
Encoding: 306 306 241
Width: 600
Flags: HMW
LayerCount: 2
Fore
SplineSet
646 483 m 1
 577 187 l 2
 549 65 468 -14 360 -14 c 0
 303 -14 260 10 240 51 c 1
 277 213 l 2
 286 251 302 280 343 280 c 0
 373 280 382 265 382 244 c 0
 382 235 380 224 377 213 c 2
 355 117 l 2
 355 116 355 115 355 114 c 0
 355 100 373 86 395 86 c 0
 432 86 466 138 480 198 c 2
 546 483 l 1
 517 483 l 2
 485 483 460 490 460 518 c 0
 460 560 497 583 540 583 c 2
 666 583 l 2
 695 583 713 577 713 552 c 0
 713 499 689 483 646 483 c 1
153 0 m 2
 49 0 l 2
 15 0 3 21 3 40 c 0
 3 92 44 100 73 100 c 1
 162 483 l 1
 140 483 114 486 114 516 c 0
 114 566 155 583 184 583 c 2
 296 583 l 2
 329 583 352 574 352 547 c 0
 352 497 312 483 273 483 c 2
 262 483 l 1
 173 100 l 1
 194 100 217 86 217 61 c 0
 217 21 183 0 153 0 c 2
EndSplineSet
Validated: 3073
EndChar

StartChar: ij
Encoding: 307 307 242
Width: 600
Flags: HMW
LayerCount: 2
Fore
SplineSet
103 377 m 0
 103 400 115 437 182 437 c 2
 360 437 l 1
 289 100 l 1
 370 100 l 2
 401 100 427 96 427 60 c 0
 427 38 413 0 349 0 c 2
 76 0 l 2
 35 0 19 11 19 40 c 0
 19 66 35 100 97 100 c 2
 189 100 l 1
 239 337 l 1
 161 337 l 2
 119 337 103 348 103 377 c 0
386 623 m 1
 363 518 l 1
 245 518 l 1
 268 623 l 1
 386 623 l 1
171 -160 m 0
 171 -135 187 -100 249 -100 c 2
 359 -100 l 2
 417 -100 461 -67 472 -15 c 2
 547 337 l 1
 445 337 l 2
 404 337 388 348 388 377 c 0
 388 402 404 437 466 437 c 2
 668 437 l 1
 572 -15 l 1
 550 -120 450 -200 341 -200 c 2
 228 -200 l 2
 187 -200 171 -189 171 -160 c 0
650 623 m 1
 627 518 l 1
 508 518 l 1
 530 623 l 1
 650 623 l 1
EndSplineSet
Validated: 3073
EndChar

StartChar: kgreenlandic
Encoding: 312 312 247
Width: 600
Flags: HMW
LayerCount: 2
Fore
SplineSet
262 38 m 0
 262 59 272 74 287 87 c 1
 226 164 l 1
 191 0 l 1
 75 0 l 2
 37 0 18 13 18 38 c 0
 18 61 29 100 96 100 c 2
 112 100 l 1
 162 337 l 1
 146 337 l 2
 115 337 90 340 90 375 c 0
 90 398 102 437 168 437 c 2
 284 437 l 1
 252 287 l 1
 344 350 l 1
 338 360 335 369 335 379 c 0
 335 403 350 437 414 437 c 2
 526 437 l 2
 559 437 582 433 582 400 c 0
 582 374 567 337 504 337 c 2
 476 337 l 1
 317 227 l 1
 425 100 l 1
 458 100 l 2
 489 100 515 97 515 61 c 0
 515 37 500 0 437 0 c 2
 319 0 l 2
 281 0 262 13 262 38 c 0
EndSplineSet
Validated: 3073
EndChar

StartChar: Lslash
Encoding: 321 321 256
Width: 600
Flags: HMW
LayerCount: 2
Fore
SplineSet
494 543 m 0
 494 518 478 483 415 483 c 2
 359 483 l 1
 333 359 l 1
 431 411 l 2
 454 423 464 426 476 426 c 0
 496 426 513 408 513 388 c 0
 513 360 501 345 462 325 c 2
 308 244 l 1
 278 100 l 1
 492 100 l 1
 512 191 l 1
 521 236 542 258 576 258 c 0
 599 258 616 242 616 220 c 0
 616 213 615 207 612 191 c 0
 571 0 l 1
 100 0 l 2
 59 0 43 11 43 40 c 0
 43 66 59 100 121 100 c 2
 178 100 l 1
 199 203 l 1
 139 171 l 2
 120 161 105 156 94 156 c 0
 74 156 56 174 56 195 c 0
 56 223 68 238 107 258 c 2
 224 318 l 1
 259 483 l 1
 202 483 l 2
 161 483 145 494 145 523 c 0
 145 546 157 583 224 583 c 2
 437 583 l 2
 468 583 494 580 494 543 c 0
EndSplineSet
Validated: 3073
EndChar

StartChar: lslash
Encoding: 322 322 257
Width: 600
Flags: HMW
LayerCount: 2
Fore
SplineSet
229 564 m 0
 229 590 245 624 308 624 c 2
 483 624 l 1
 435 399 l 1
 474 419 l 1
 498 433 505 435 519 435 c 0
 539 435 557 417 557 395 c 0
 557 367 544 351 506 332 c 2
 410 283 l 1
 371 100 l 1
 493 100 l 2
 526 100 550 95 550 61 c 0
 550 37 534 0 472 0 c 2
 129 0 l 2
 89 0 72 12 72 40 c 0
 72 66 88 100 150 100 c 2
 272 100 l 1
 302 243 l 1
 281 232 243 209 220 209 c 0
 199 209 182 227 182 249 c 0
 182 276 195 293 233 312 c 0
 327 359 l 1
 362 524 l 1
 286 524 l 2
 245 524 229 535 229 564 c 0
EndSplineSet
Validated: 3073
EndChar

StartChar: Eng
Encoding: 330 330 265
Width: 600
Flags: HMW
LayerCount: 2
Fore
SplineSet
255 -69 m 0
 255 -36 288 -9 315 -9 c 0
 329 -9 346 -23 383 -23 c 0
 430 -23 486 96 522 264 c 0
 534 321 539 366 539 402 c 0
 539 513 491 537 444 537 c 0
 398 537 353 520 295 469 c 1
 216 100 l 1
 219 100 l 2
 243 100 279 99 279 64 c 0
 279 13 239 0 201 0 c 2
 89 0 l 2
 55 0 32 10 32 37 c 0
 32 96 87 100 116 100 c 1
 206 524 l 1
 173 525 155 538 155 562 c 0
 155 607 193 624 234 624 c 2
 328 624 l 1
 317 576 l 1
 375 622 422 637 477 637 c 0
 550 637 642 603 642 429 c 0
 642 385 637 332 623 268 c 0
 552 -65 454 -123 365 -123 c 0
 295 -123 255 -103 255 -69 c 0
EndSplineSet
Validated: 3073
Substitution2: "'locl' Localized Forms for Sami-1" Engsami
EndChar

StartChar: eng
Encoding: 331 331 266
Width: 600
Flags: HMW
LayerCount: 2
Fore
SplineSet
6 37 m 0
 6 62 18 100 84 100 c 2
 90 100 l 1
 140 337 l 1
 107 338 89 351 89 375 c 0
 89 400 104 437 168 437 c 2
 262 437 l 1
 251 389 l 1
 309 435 346 450 401 450 c 0
 488 450 548 407 548 324 c 0
 548 311 547 297 544 282 c 2
 481 -14 l 2
 458 -121 365 -200 266 -200 c 0
 195 -200 156 -180 156 -146 c 0
 156 -112 191 -86 216 -86 c 0
 230 -86 247 -100 284 -100 c 0
 330 -100 370 -67 381 -14 c 2
 443 278 l 2
 444 286 445 292 445 299 c 0
 445 334 421 350 368 350 c 0
 322 350 287 333 229 282 c 1
 190 100 l 1
 196 100 l 2
 227 100 253 94 253 64 c 0
 253 38 241 0 175 0 c 2
 63 0 l 2
 29 0 6 9 6 37 c 0
EndSplineSet
Validated: 3073
EndChar

StartChar: OE
Encoding: 338 338 273
Width: 600
Flags: HMW
LayerCount: 2
Fore
SplineSet
418 243 m 1
 387 100 l 1
 534 100 l 1
 539 122 l 2
 542 138 552 188 603 188 c 0
 625 188 642 172 642 151 c 0
 642 144 641 137 638 122 c 2
 612 0 l 1
 259 0 l 2
 123 0 34 87 34 220 c 0
 34 416 194 583 383 583 c 2
 717 583 l 1
 682 418 l 2
 678 402 669 352 617 352 c 0
 596 352 578 369 578 389 c 0
 578 396 580 407 582 418 c 0
 596 483 l 1
 469 483 l 1
 439 342 l 1
 457 342 l 1
 467 378 489 397 519 397 c 0
 542 397 559 381 559 359 c 0
 559 352 558 350 554 331 c 0
 538 253 l 2
 534 238 522 187 473 187 c 0
 451 187 434 204 434 225 c 0
 434 229 435 236 436 243 c 1
 418 243 l 1
369 483 m 1
 179 480 137 303 137 248 c 0
 137 187 160 100 287 100 c 1
 369 483 l 1
EndSplineSet
Validated: 3073
EndChar

StartChar: oe
Encoding: 339 339 274
Width: 600
Flags: HMW
LayerCount: 2
Fore
SplineSet
628 77 m 0
 628 -3 468 -16 434 -16 c 0
 378 -16 340 8 315 58 c 1
 270 10 218 -16 169 -16 c 0
 86 -16 28 53 28 152 c 0
 28 286 134 450 268 450 c 0
 317 450 356 423 382 370 c 1
 429 424 478 450 532 450 c 0
 610 450 666 384 666 291 c 0
 666 250 656 207 648 171 c 1
 397 171 l 1
 397 113 419 84 461 84 c 0
 518 84 560 117 590 117 c 0
 611 117 628 100 628 77 c 0
247 349 m 0
 189 349 131 261 131 175 c 0
 131 118 153 84 190 84 c 0
 248 84 306 172 306 258 c 0
 306 315 284 349 247 349 c 0
509 349 m 0
 464 349 438 302 418 257 c 1
 559 257 l 1
 559 263 l 2
 559 320 542 349 509 349 c 0
EndSplineSet
Validated: 3073
EndChar

StartChar: Scedilla
Encoding: 350 350 285
Width: 600
Flags: HMW
LayerCount: 2
Fore
SplineSet
273 411 m 0
 273 306 576 377 576 199 c 0
 576 85 479 0 335 -13 c 1
 378 -24 386 -54 386 -86 c 0
 386 -153 336 -200 265 -200 c 0
 203 -200 153 -175 153 -144 c 0
 153 -120 169 -104 191 -104 c 0
 220 -104 230 -134 280 -134 c 0
 301 -134 314 -124 314 -108 c 0
 314 -88 297 -77 268 -77 c 0
 262 -77 256 -78 244 -79 c 1
 265 -12 l 1
 230 -8 188 7 158 25 c 1
 137 6 128 1 112 1 c 0
 89 1 72 17 72 38 c 0
 72 44 73 55 76 67 c 0
 90 133 l 1
 100 178 120 199 155 199 c 0
 190 199 192 180 194 151 c 0
 197 115 254 86 319 86 c 0
 402 86 470 125 470 173 c 0
 470 250 310 225 223 281 c 0
 189 304 167 344 167 385 c 0
 167 501 284 597 425 597 c 0
 476 597 518 586 548 564 c 1
 564 589 575 597 594 597 c 0
 618 597 634 582 634 561 c 0
 634 554 634 549 630 531 c 0
 611 443 l 2
 608 428 595 376 547 376 c 0
 508 376 509 400 508 430 c 0
 508 470 466 497 404 497 c 0
 334 497 273 457 273 411 c 0
EndSplineSet
Validated: 3073
EndChar

StartChar: scedilla
Encoding: 351 351 286
Width: 600
Flags: HMW
LayerCount: 2
Fore
SplineSet
516 281 m 0
 458 281 506 350 376 350 c 0
 321 350 269 331 269 312 c 0
 269 270 434 286 507 238 c 0
 538 219 556 187 556 150 c 0
 556 63 463 -5 329 -15 c 1
 371 -23 381 -40 381 -80 c 0
 381 -147 323 -200 251 -200 c 0
 216 -200 143 -182 143 -145 c 0
 143 -123 164 -102 187 -102 c 0
 203 -102 229 -130 267 -130 c 0
 293 -130 309 -118 309 -99 c 0
 309 -81 293 -71 263 -71 c 0
 257 -71 252 -71 240 -73 c 1
 259 -14 l 1
 214 -9 184 -1 159 13 c 1
 145 4 137 1 124 1 c 0
 100 1 83 16 83 39 c 0
 83 45 84 52 87 67 c 2
 94 100 l 2
 104 146 124 167 159 167 c 0
 185 167 198 153 201 123 c 1
 224 97 264 84 318 84 c 0
 386 84 444 106 444 131 c 0
 444 162 393 172 328 179 c 0
 206 192 156 224 156 289 c 0
 156 379 260 450 394 450 c 0
 442 450 482 442 517 424 c 1
 530 444 539 450 555 450 c 0
 577 450 592 436 592 414 c 0
 592 407 591 398 588 384 c 2
 580 347 l 2
 577 332 567 281 516 281 c 0
EndSplineSet
Validated: 3073
EndChar

StartChar: uni0162
Encoding: 354 354 289
Width: 600
Flags: HMW
LayerCount: 2
Fore
SplineSet
128 40 m 0
 128 66 144 100 206 100 c 2
 270 100 l 1
 352 483 l 1
 245 483 l 1
 225 390 l 2
 222 378 213 324 161 324 c 0
 139 324 121 341 121 361 c 0
 121 368 122 378 125 390 c 2
 166 583 l 1
 682 583 l 1
 641 390 l 2
 638 376 629 324 577 324 c 0
 554 324 537 340 537 361 c 0
 537 368 538 377 541 390 c 2
 561 483 l 1
 452 483 l 1
 370 100 l 1
 436 100 l 2
 469 100 493 95 493 61 c 0
 493 37 477 0 415 0 c 2
 340 0 l 1
 338 -13 l 1
 376 -20 390 -39 390 -79 c 0
 390 -146 332 -200 260 -200 c 0
 225 -200 152 -182 152 -145 c 0
 152 -123 173 -102 196 -102 c 0
 212 -102 238 -130 276 -130 c 0
 302 -130 318 -118 318 -99 c 0
 318 -81 302 -71 272 -71 c 0
 266 -71 261 -71 249 -73 c 1
 270 0 l 1
 184 0 l 2
 144 0 128 12 128 40 c 0
EndSplineSet
Validated: 3073
EndChar

StartChar: uni0163
Encoding: 355 355 290
Width: 600
Flags: HMW
LayerCount: 2
Fore
SplineSet
545 397 m 0
 545 373 529 337 467 337 c 2
 286 337 l 1
 244 141 l 2
 242 132 241 123 241 117 c 0
 241 95 267 84 318 84 c 0
 432 84 474 129 508 129 c 0
 531 129 547 113 547 89 c 0
 547 20 393 -9 318 -15 c 1
 360 -24 377 -39 377 -79 c 0
 377 -146 319 -200 247 -200 c 0
 212 -200 139 -182 139 -145 c 0
 139 -123 160 -102 183 -102 c 0
 199 -102 225 -130 263 -130 c 0
 289 -130 305 -118 305 -99 c 0
 305 -81 289 -71 259 -71 c 0
 253 -71 248 -71 236 -73 c 1
 248 -12 l 1
 195 -3 137 25 137 92 c 0
 137 104 138 112 140 122 c 2
 186 337 l 1
 151 337 l 2
 110 337 94 348 94 377 c 0
 94 399 105 437 172 437 c 2
 207 437 l 1
 226 525 l 2
 229 541 239 591 290 591 c 0
 313 591 330 575 330 553 c 0
 330 545 330 544 326 525 c 2
 307 437 l 1
 488 437 l 2
 519 437 545 434 545 397 c 0
EndSplineSet
Validated: 3073
EndChar

StartChar: Tbar
Encoding: 358 358 293
Width: 600
Flags: HMW
LayerCount: 2
Fore
SplineSet
103 213 m 0
 103 263 138 277 181 277 c 2
 246 277 l 1
 290 483 l 1
 183 483 l 1
 163 390 l 2
 155 355 141 324 99 324 c 0
 69 324 60 340 60 363 c 0
 60 371 61 380 63 390 c 2
 104 583 l 1
 620 583 l 1
 579 390 l 2
 571 352 557 324 515 324 c 0
 485 324 476 340 476 363 c 0
 476 371 477 381 479 390 c 2
 499 483 l 1
 390 483 l 1
 346 277 l 1
 412 277 l 2
 445 277 469 270 469 242 c 0
 469 216 457 177 391 177 c 2
 325 177 l 1
 308 100 l 1
 374 100 l 2
 405 100 431 94 431 64 c 0
 431 39 420 0 353 0 c 2
 122 0 l 2
 76 0 65 20 65 39 c 0
 65 65 77 100 143 100 c 2
 208 100 l 1
 225 177 l 1
 160 177 l 2
 127 177 103 185 103 213 c 0
EndSplineSet
Validated: 3073
EndChar

StartChar: tbar
Encoding: 359 359 294
Width: 600
Flags: HMW
LayerCount: 2
Fore
SplineSet
514 402 m 0
 514 376 502 337 436 337 c 2
 255 337 l 1
 242 277 l 1
 278 277 l 2
 311 277 335 270 335 242 c 0
 335 216 323 177 257 177 c 2
 221 177 l 1
 213 141 l 2
 211 134 210 127 210 121 c 0
 210 96 227 84 287 84 c 0
 401 84 442 129 477 129 c 0
 501 129 516 112 516 89 c 0
 516 24 359 -16 264 -16 c 0
 164 -16 106 25 106 93 c 0
 106 102 107 112 109 122 c 2
 121 177 l 1
 86 177 l 2
 53 177 29 185 29 213 c 0
 29 263 64 277 107 277 c 2
 142 277 l 1
 155 337 l 1
 120 337 l 2
 87 337 63 345 63 373 c 0
 63 423 98 437 141 437 c 2
 176 437 l 1
 194 525 l 2
 202 560 217 591 259 591 c 0
 288 591 298 577 298 554 c 0
 298 545 297 536 294 525 c 2
 276 437 l 1
 457 437 l 2
 490 437 514 430 514 402 c 0
EndSplineSet
Validated: 3073
EndChar

StartChar: Uogonek
Encoding: 370 370 305
Width: 600
Flags: HMW
LayerCount: 2
Fore
SplineSet
628 583 m 2
 660 583 685 579 685 544 c 0
 685 510 659 483 612 483 c 1
 553 205 l 1
 532 125 506 88 421 14 c 0
 335 -62 316 -78 316 -106 c 0
 316 -117 322 -122 333 -122 c 0
 362 -122 386 -100 409 -100 c 0
 428 -100 440 -113 440 -132 c 0
 440 -181 349 -200 311 -200 c 0
 263 -200 234 -172 234 -127 c 0
 234 -85 255 -57 293 -31 c 1
 331 -9 l 1
 309 -13 296 -14 278 -14 c 0
 169 -14 90 59 90 158 c 0
 90 173 91 188 95 205 c 0
 154 483 l 1
 118 483 103 495 103 523 c 0
 103 546 115 583 181 583 c 2
 311 583 l 2
 342 583 367 580 367 544 c 0
 367 518 352 483 289 483 c 2
 254 483 l 1
 193 196 l 1
 192 189 191 182 191 176 c 0
 191 124 237 86 299 86 c 0
 370 86 438 135 451 196 c 2
 512 483 l 1
 477 483 l 2
 436 483 421 494 421 523 c 0
 421 546 433 583 499 583 c 2
 628 583 l 2
EndSplineSet
Validated: 3073
EndChar

StartChar: uogonek
Encoding: 371 371 306
Width: 600
Flags: HMW
LayerCount: 2
Fore
SplineSet
442 -124 m 0
 472 -124 498 -100 522 -100 c 0
 540 -100 553 -112 553 -130 c 0
 553 -181 458 -200 419 -200 c 0
 371 -200 342 -175 342 -134 c 0
 342 -49 424 -14 449 0 c 1
 410 0 l 1
 420 48 l 1
 360 1 326 -13 270 -13 c 0
 182 -13 123 36 123 110 c 0
 123 127 125 140 128 156 c 0
 166 338 l 1
 150 338 l 2
 110 338 94 349 94 378 c 0
 94 403 109 437 172 437 c 2
 288 437 l 1
 229 159 l 1
 227 151 226 144 226 136 c 0
 226 105 253 87 301 87 c 0
 351 87 380 101 443 155 c 1
 482 338 l 1
 447 338 l 2
 406 338 390 349 390 377 c 0
 390 403 406 437 468 437 c 2
 603 437 l 1
 531 100 l 1
 566 100 583 87 583 61 c 0
 583 -5 423 -42 423 -109 c 0
 423 -119 430 -124 442 -124 c 0
EndSplineSet
Validated: 3073
EndChar

StartChar: longs
Encoding: 383 383 318
Width: 600
Flags: HMW
LayerCount: 2
Fore
SplineSet
612 509 m 0
 588 509 546 523 474 523 c 0
 417 523 386 507 379 474 c 0
 353 348 325 226 300 100 c 1
 439 100 l 2
 472 100 496 95 496 61 c 0
 496 37 480 0 418 0 c 2
 120 0 l 2
 80 0 64 12 64 40 c 0
 64 66 80 100 142 100 c 2
 200 100 l 1
 250 337 l 1
 204 337 l 2
 162 337 146 348 146 377 c 0
 146 401 158 437 225 437 c 2
 271 437 l 1
 279 474 l 2
 299 566 385 623 505 623 c 0
 630 623 671 602 671 570 c 0
 671 539 642 509 612 509 c 0
EndSplineSet
Validated: 3073
EndChar

StartChar: florin
Encoding: 402 402 319
Width: 600
Flags: HMW
LayerCount: 2
Fore
SplineSet
657 586 m 0
 657 561 633 524 597 524 c 0
 572 524 570 538 527 538 c 0
 487 538 446 501 436 456 c 2
 425 404 l 1
 482 404 l 2
 514 404 540 399 540 369 c 0
 540 320 506 304 461 304 c 2
 404 304 l 1
 353 66 l 2
 331 -41 237 -123 138 -123 c 0
 68 -123 29 -103 29 -69 c 0
 29 -35 63 -9 88 -9 c 0
 102 -9 119 -23 156 -23 c 0
 202 -23 242 13 253 66 c 2
 304 304 l 1
 247 304 l 2
 214 304 189 311 189 340 c 0
 189 388 221 404 268 404 c 2
 325 404 l 1
 337 459 l 2
 358 558 453 638 549 638 c 0
 618 638 657 619 657 586 c 0
EndSplineSet
Validated: 3073
EndChar

StartChar: uni01A9
Encoding: 425 425 320
Width: 600
Flags: HMW
LayerCount: 2
Fore
SplineSet
519 238 m 0
 548 238 558 224 558 201 c 0
 558 192 557 183 555 172 c 2
 518 0 l 1
 64 0 l 1
 85 100 l 1
 278 293 l 1
 167 486 l 1
 188 583 l 1
 642 583 l 1
 606 413 l 2
 598 376 582 347 542 347 c 0
 512 347 502 363 502 385 c 0
 502 394 504 403 506 413 c 2
 521 483 l 1
 296 483 l 1
 405 293 l 1
 213 100 l 1
 439 100 l 1
 455 172 l 2
 463 210 478 238 519 238 c 0
EndSplineSet
Validated: 3073
EndChar

StartChar: uni01D5
Encoding: 469 469 329
Width: 600
Flags: HM
LayerCount: 2
Fore
SplineSet
602 506 m 2
 634 506 659 502 659 467 c 0
 659 433 633 406 586 406 c 1
 543 205 l 2
 516 81 397 -14 268 -14 c 0
 159 -14 80 59 80 158 c 0
 80 173 81 188 85 205 c 2
 128 406 l 1
 92 406 77 418 77 446 c 0
 77 469 89 506 155 506 c 2
 285 506 l 2
 316 506 341 503 341 467 c 0
 341 441 326 406 263 406 c 2
 228 406 l 1
 183 196 l 2
 182 189 181 182 181 176 c 0
 181 124 227 86 289 86 c 0
 360 86 428 135 441 196 c 2
 486 406 l 1
 451 406 l 2
 410 406 395 417 395 446 c 0
 395 469 407 506 473 506 c 2
 602 506 l 2
312 672 m 0
 341 672 361 652 361 624 c 0
 361 587 325 552 286 552 c 0
 259 552 238 573 238 600 c 0
 238 636 275 672 312 672 c 0
520 672 m 0
 549 672 569 652 569 624 c 0
 569 587 533 552 494 552 c 0
 467 552 446 573 446 600 c 0
 446 636 483 672 520 672 c 0
325 798 m 2
 569 798 l 2
 602 798 614 789 614 765 c 0
 614 738 588 718 552 718 c 2
 308 718 l 2
 275 718 263 726 263 751 c 0
 263 779 288 798 325 798 c 2
EndSplineSet
Validated: 3073
EndChar

StartChar: uni01D7
Encoding: 471 471 331
Width: 600
Flags: HM
LayerCount: 2
Fore
SplineSet
504 800 m 1
 640 800 l 1
 450 646 l 2
 440 638 428 630 416 630 c 0
 395 630 383 648 383 665 c 0
 383 671 386 678 389 682 c 2
 504 800 l 1
561 667 m 0
 590 667 610 647 610 619 c 0
 610 582 574 547 535 547 c 0
 508 547 487 568 487 595 c 0
 487 631 524 667 561 667 c 0
613 516 m 2
 645 516 670 512 670 477 c 0
 670 443 644 416 597 416 c 1
 553 205 l 2
 527 81 407 -14 278 -14 c 0
 169 -14 90 59 90 158 c 0
 90 173 91 188 95 205 c 2
 139 416 l 1
 103 416 88 428 88 456 c 0
 88 479 100 516 166 516 c 2
 296 516 l 2
 327 516 352 513 352 477 c 0
 352 451 337 416 274 416 c 2
 239 416 l 1
 193 196 l 2
 192 189 191 182 191 176 c 0
 191 124 237 86 299 86 c 0
 370 86 438 135 451 196 c 2
 497 416 l 1
 462 416 l 2
 421 416 406 427 406 456 c 0
 406 479 418 516 484 516 c 2
 613 516 l 2
306 667 m 0
 335 667 355 647 355 619 c 0
 355 582 319 547 280 547 c 0
 253 547 232 568 232 595 c 0
 232 631 269 667 306 667 c 0
EndSplineSet
Validated: 3073
EndChar

StartChar: uni01D9
Encoding: 473 473 333
Width: 600
Flags: HM
LayerCount: 2
Fore
SplineSet
603 503 m 2
 635 503 660 499 660 464 c 0
 660 430 634 403 587 403 c 1
 543 205 l 2
 516 81 397 -14 268 -14 c 0
 159 -14 80 59 80 158 c 0
 80 173 81 188 85 205 c 2
 129 403 l 1
 93 403 78 415 78 443 c 0
 78 466 90 503 156 503 c 2
 286 503 l 2
 317 503 342 500 342 464 c 0
 342 438 327 403 264 403 c 2
 229 403 l 1
 183 196 l 2
 181 189 181 182 181 176 c 0
 181 124 227 86 289 86 c 0
 360 86 427 135 441 196 c 2
 487 403 l 1
 452 403 l 2
 411 403 396 414 396 443 c 0
 396 466 408 503 474 503 c 2
 603 503 l 2
310 649 m 0
 339 649 359 629 359 601 c 0
 359 564 323 529 284 529 c 0
 257 529 236 550 236 577 c 0
 236 613 273 649 310 649 c 0
518 649 m 0
 547 649 567 629 567 601 c 0
 567 564 531 529 492 529 c 0
 465 529 444 550 444 577 c 0
 444 613 481 649 518 649 c 0
429 725 m 1
 553 787 l 2
 566 794 574 800 583 800 c 0
 600 800 612 786 612 770 c 0
 612 746 594 737 582 730 c 2
 413 636 l 1
 271 737 l 0
 263 744 260 751 260 759 c 0
 260 780 281 800 301 800 c 0
 310 800 317 794 328 787 c 2
 429 725 l 1
EndSplineSet
Validated: 3073
EndChar

StartChar: uni01DB
Encoding: 475 475 335
Width: 600
Flags: HM
LayerCount: 2
Fore
SplineSet
387 800 m 1
 454 688 l 2
 458 681 460 671 460 665 c 0
 460 648 442 630 421 630 c 0
 409 630 396 637 388 646 c 2
 251 800 l 1
 387 800 l 1
546 649 m 0
 575 649 595 629 595 601 c 0
 595 564 559 529 520 529 c 0
 493 529 472 550 472 577 c 0
 472 613 509 649 546 649 c 0
612 500 m 2
 644 500 669 496 669 461 c 0
 669 427 643 400 596 400 c 1
 553 205 l 2
 526 81 407 -14 278 -14 c 0
 169 -14 90 59 90 158 c 0
 90 173 91 188 95 205 c 2
 138 400 l 1
 102 400 87 412 87 440 c 0
 87 463 99 500 165 500 c 2
 295 500 l 2
 326 500 351 497 351 461 c 0
 351 435 336 400 273 400 c 2
 238 400 l 1
 193 196 l 2
 191 189 191 182 191 176 c 0
 191 124 237 86 299 86 c 0
 370 86 438 135 451 196 c 2
 496 400 l 1
 461 400 l 2
 420 400 405 411 405 440 c 0
 405 463 417 500 483 500 c 2
 612 500 l 2
291 649 m 0
 320 649 340 629 340 601 c 0
 340 564 304 529 265 529 c 0
 238 529 217 550 217 577 c 0
 217 613 254 649 291 649 c 0
EndSplineSet
Validated: 3073
EndChar

StartChar: uni01EA
Encoding: 490 490 345
Width: 600
Flags: HM
LayerCount: 2
Fore
SplineSet
222 -124 m 0
 252 -124 278 -100 302 -100 c 0
 320 -100 333 -112 333 -130 c 0
 333 -181 238 -200 199 -200 c 0
 151 -200 122 -175 122 -134 c 0
 122 -79 147 -47 218 -6 c 1
 122 19 55 108 55 220 c 0
 55 443 257 597 406 597 c 0
 534 597 629 498 629 366 c 0
 629 153 453 6 307 -12 c 1
 272 -32 203 -68 203 -109 c 0
 203 -119 210 -124 222 -124 c 0
385 497 m 0
 270 497 158 371 158 243 c 0
 158 153 217 86 297 86 c 0
 414 86 526 211 526 342 c 0
 526 431 466 497 385 497 c 0
EndSplineSet
Validated: 3073
EndChar

StartChar: uni01EB
Encoding: 491 491 346
Width: 600
Flags: HM
LayerCount: 2
Fore
SplineSet
240 -124 m 0
 270 -124 296 -100 320 -100 c 0
 338 -100 351 -112 351 -130 c 0
 351 -181 256 -200 217 -200 c 0
 169 -200 140 -175 140 -134 c 0
 140 -79 167 -52 237 -12 c 1
 137 5 74 76 74 174 c 0
 74 286 190 450 389 450 c 0
 513 450 599 372 599 260 c 0
 599 129 478 10 334 -12 c 1
 304 -29 221 -65 221 -109 c 0
 221 -119 228 -124 240 -124 c 0
366 350 m 0
 264 350 176 277 176 192 c 0
 176 129 231 84 308 84 c 0
 409 84 497 158 497 242 c 0
 497 305 442 350 366 350 c 0
EndSplineSet
Validated: 3073
EndChar

StartChar: Aringacute
Encoding: 506 506 354
Width: 600
Flags: HM
LayerCount: 2
Fore
SplineSet
404 800 m 1
 540 800 l 1
 350 646 l 2
 340 638 328 630 316 630 c 0
 295 630 283 648 283 665 c 0
 283 671 286 678 289 682 c 2
 404 800 l 1
360 32 m 0
 360 53 376 80 438 80 c 2
 461 80 l 1
 450 126 l 1
 212 126 l 1
 176 80 l 1
 199 80 l 2
 230 80 256 77 256 48 c 0
 256 29 240 0 178 0 c 2
 46 0 l 2
 5 0 -11 9 -11 32 c 0
 -11 53 5 80 68 80 c 1
 304 386 l 1
 241 386 l 2
 200 386 184 395 184 418 c 0
 184 436 195 466 262 466 c 2
 478 466 l 1
 575 80 l 1
 607 80 633 77 633 48 c 0
 633 28 617 0 555 0 c 2
 416 0 l 2
 376 0 360 9 360 32 c 0
430 206 m 1
 392 360 l 1
 273 206 l 1
 430 206 l 1
433 660 m 0
 480 660 512 628 512 585 c 0
 512 523 452 479 401 479 c 0
 356 479 323 512 323 555 c 0
 323 614 381 660 433 660 c 0
422 598 m 0
 406 598 387 584 387 565 c 0
 387 551 398 541 412 541 c 0
 429 541 448 555 448 574 c 0
 448 588 437 598 422 598 c 0
EndSplineSet
Validated: 3073
EndChar

StartChar: Ljecyr
Encoding: 1033 1033 384
Width: 600
Flags: HMW
AnchorPoint: "cyr-above" 390 595 basechar 0
LayerCount: 2
Fore
SplineSet
638 200 m 0
 638 120 587 0 422 0 c 2
 303 0 l 18
 274 0 257 28 257 41 c 0
 257 72 274 100 319 100 c 1
 401 483 l 1
 323 483 l 1
 248 130 l 2
 232 57 173 0 105 0 c 2
 69 0 l 2
 -5 0 -23 63 -23 101 c 0
 -23 138 -10 203 45 203 c 0
 69 203 84 189 84 161 c 0
 84 145 78 127 78 116 c 0
 78 107 88 102 102 100 c 0
 126 100 144 113 150 139 c 2
 223 483 l 1
 194 486 180 498 180 520 c 0
 180 568 213 583 258 583 c 2
 508 583 l 2
 542 583 564 577 564 542 c 0
 564 531 556 485 505 485 c 1
 474 340 l 1
 539 340 638 319 638 200 c 0
530 189 m 0
 530 234 488 240 453 240 c 1
 423 100 l 1
 458 100 l 2
 483 100 530 122 530 189 c 0
EndSplineSet
Validated: 3073
EndChar

StartChar: Njecyr
Encoding: 1034 1034 385
Width: 600
Flags: HMW
AnchorPoint: "cyr-above" 310 595 basechar 0
LayerCount: 2
Fore
SplineSet
440 341 m 1
 613 341 624 260 624 201 c 0
 624 114 540 1 388 1 c 2
 272 1 l 2
 234 1 216 14 216 39 c 0
 216 84 241 101 289 101 c 1
 319 242 l 1
 151 241 l 1
 121 100 l 1
 151 100 172 98 172 61 c 0
 172 37 153 0 114 0 c 2
 4 0 l 2
 -37 0 -53 12 -53 38 c 0
 -53 69 -33 100 21 100 c 1
 103 483 l 1
 74 486 60 497 60 519 c 0
 60 571 95 583 136 583 c 2
 218 583 l 2
 244 583 274 578 274 544 c 0
 274 511 253 483 203 483 c 1
 172 341 l 1
 341 342 l 1
 371 484 l 1
 331 484 308 493 308 524 c 0
 308 547 310 584 376 584 c 2
 478 584 l 2
 514 584 535 576 535 544 c 0
 535 496 491 488 471 484 c 1
 440 341 l 1
424 101 m 2
 458 101 517 113 517 191 c 0
 517 233 461 241 439 241 c 2
 419 241 l 1
 389 101 l 1
 424 101 l 2
EndSplineSet
Validated: 3073
EndChar

StartChar: Tshecyr
Encoding: 1035 1035 386
Width: 600
Flags: HMW
AnchorPoint: "cyr-above" 310 595 basechar 0
LayerCount: 2
Fore
SplineSet
269 100 m 2
 301 100 326 93 326 60 c 0
 326 36 310 0 248 0 c 2
 146 0 l 2
 111 0 89 8 89 41 c 0
 89 57 101 93 153 100 c 1
 235 483 l 1
 173 483 l 1
 169 468 159 417 109 417 c 0
 83 417 69 431 69 458 c 0
 69 465 70 473 72 481 c 2
 94 583 l 1
 520 583 l 1
 499 485 l 2
 495 468 486 419 435 419 c 0
 414 419 395 431 395 455 c 0
 395 462 397 471 399 483 c 1
 335 483 l 1
 305 341 l 1
 340 366 378 379 419 379 c 0
 517 379 586 357 586 279 c 0
 586 211 563 161 553 100 c 1
 584 97 597 80 597 62 c 0
 597 37 581 0 518 0 c 2
 416 0 l 2
 373 0 360 14 360 41 c 0
 360 79 391 100 437 100 c 2
 453 100 l 1
 483 241 l 1
 477 264 446 279 397 279 c 0
 344 279 309 266 283 241 c 1
 253 100 l 1
 269 100 l 2
EndSplineSet
Validated: 3073
EndChar

StartChar: Dzhecyr
Encoding: 1039 1039 390
Width: 600
Flags: HMW
AnchorPoint: "cyr-above" 390 595 basechar 0
LayerCount: 2
Fore
SplineSet
462 0 m 2
 317 0 l 1
 306 -28 299 -65 297 -90 c 1
 284 -96 267 -99 250 -99 c 0
 234 -99 217 -96 203 -90 c 1
 215 -66 220 -35 223 0 c 1
 76 0 l 2
 48 0 20 10 20 39 c 0
 20 85 62 100 83 100 c 1
 164 483 l 1
 158 483 l 2
 132 483 102 490 102 522 c 0
 102 574 160 583 179 583 c 2
 300 583 l 2
 333 583 357 577 357 544 c 0
 357 522 334 483 279 483 c 2
 264 483 l 1
 183 100 l 1
 397 100 l 1
 478 483 l 1
 463 483 l 2
 437 483 407 486 407 522 c 0
 407 578 458 583 484 583 c 2
 605 583 l 2
 638 583 662 577 662 544 c 0
 662 495 624 483 578 483 c 1
 497 100 l 1
 525 97 540 84 540 62 c 0
 540 12 486 0 462 0 c 2
EndSplineSet
Validated: 3073
EndChar

StartChar: Becyr
Encoding: 1041 1041 392
Width: 600
Flags: HMW
AnchorPoint: "cyr-above" 396 595 basechar 0
LayerCount: 2
Fore
SplineSet
556 366 m 0
 522 366 516 395 516 402 c 0
 516 409 517 419 520 432 c 2
 530 483 l 1
 284 483 l 1
 254 342 l 1
 423 342 l 2
 545 342 586 252 586 187 c 0
 586 71 518 0 352 0 c 2
 67 0 l 2
 35 0 10 7 10 39 c 0
 10 65 26 100 88 100 c 2
 103 100 l 1
 184 483 l 1
 169 483 l 2
 136 483 113 488 113 521 c 0
 113 547 128 583 191 583 c 2
 652 583 l 1
 620 432 l 2
 617 417 606 366 556 366 c 0
482 163 m 0
 482 232 425 242 358 242 c 2
 233 242 l 1
 203 100 l 1
 368 100 l 2
 450 100 482 128 482 163 c 0
EndSplineSet
Validated: 3073
EndChar

StartChar: Gecyr
Encoding: 1043 1043 394
Width: 600
Flags: HMW
AnchorPoint: "cyr-above" 393 595 basechar 0
LayerCount: 2
Fore
SplineSet
566 366 m 0
 532 366 526 395 526 402 c 0
 526 409 527 419 530 432 c 2
 540 483 l 1
 284 483 l 1
 203 100 l 1
 303 100 l 2
 336 100 359 96 359 61 c 0
 359 37 344 0 282 0 c 2
 67 0 l 2
 35 0 10 7 10 39 c 0
 10 65 26 100 88 100 c 2
 103 100 l 1
 184 483 l 1
 169 483 l 2
 136 483 113 488 113 522 c 0
 113 545 125 583 191 583 c 2
 662 583 l 1
 630 432 l 2
 627 417 616 366 566 366 c 0
EndSplineSet
Validated: 3073
EndChar

StartChar: Decyr
Encoding: 1044 1044 395
Width: 600
Flags: HMW
AnchorPoint: "cyr-above" 418 595 basechar 0
LayerCount: 2
Fore
SplineSet
596 583 m 2
 629 583 652 579 652 544 c 0
 652 530 644 488 589 483 c 1
 507 100 l 1
 611 100 l 1
 574 -75 l 2
 570 -91 561 -141 510 -141 c 0
 489 -141 470 -127 470 -104 c 0
 470 -97 471 -88 474 -75 c 2
 490 0 l 1
 106 0 l 1
 90 -75 l 2
 87 -88 77 -141 26 -141 c 0
 2 -141 -14 -123 -14 -103 c 0
 -14 -96 -13 -88 -10 -75 c 2
 27 100 l 1
 129 100 l 2
 161 100 183 139 189 169 c 2
 256 483 l 1
 225 486 213 502 213 521 c 0
 213 547 228 583 291 583 c 2
 596 583 l 2
255 100 m 1
 407 100 l 1
 489 483 l 1
 356 483 l 1
 287 160 l 2
 282 137 271 111 255 100 c 1
EndSplineSet
Validated: 3073
EndChar

StartChar: Zhecyr
Encoding: 1046 1046 397
Width: 600
Flags: HMW
AnchorPoint: "cyr-above" 428 595 basechar 0
LayerCount: 2
Fore
SplineSet
452 483 m 1
 418 337 l 1
 560 487 l 1
 545 493 538 503 538 518 c 0
 538 565 577 583 618 583 c 2
 672 583 l 2
 698 583 716 576 716 550 c 0
 716 507 692 490 659 483 c 1
 518 330 l 1
 555 308 573 262 573 199 c 0
 573 170 569 136 561 100 c 1
 586 100 604 89 604 64 c 0
 604 21 572 0 538 0 c 2
 460 0 l 1
 471 50 477 96 477 135 c 0
 477 211 454 260 400 260 c 1
 363 100 l 1
 394 100 408 87 408 65 c 0
 408 22 386 0 339 0 c 2
 242 0 l 2
 210 0 196 13 196 35 c 0
 196 77 224 100 264 100 c 1
 301 260 l 1
 219 260 157 148 121 0 c 1
 37 0 l 2
 12 0 0 12 0 33 c 0
 0 77 31 100 66 100 c 1
 94 214 147 298 215 330 c 1
 146 483 l 1
 124 486 112 496 112 516 c 0
 112 562 142 583 179 583 c 2
 233 583 l 2
 264 583 289 574 289 546 c 0
 289 515 271 496 245 487 c 1
 319 337 l 1
 353 483 l 1
 326 483 307 495 307 519 c 0
 307 560 344 583 377 583 c 2
 474 583 l 2
 501 583 520 570 520 546 c 0
 520 505 484 483 452 483 c 1
EndSplineSet
Validated: 3073
EndChar

StartChar: Zecyr
Encoding: 1047 1047 398
Width: 600
Flags: HMW
AnchorPoint: "cyr-above" 400 595 basechar 0
LayerCount: 2
Fore
SplineSet
217 279 m 0
 217 304 233 341 295 341 c 2
 337 341 l 2
 469 341 492 414 492 432 c 0
 492 470 451 497 394 497 c 0
 236 497 278 376 199 376 c 0
 167 376 160 404 160 412 c 0
 160 419 162 428 165 443 c 2
 183 531 l 2
 186 544 196 597 246 597 c 0
 266 597 274 589 278 564 c 1
 318 586 364 597 415 597 c 0
 525 597 598 537 598 452 c 0
 598 396 564 324 513 298 c 1
 529 285 565 254 565 197 c 0
 565 80 452 -14 295 -14 c 0
 241 -14 190 -1 147 25 c 1
 126 5 118 1 102 1 c 0
 75 1 62 14 62 40 c 0
 62 48 63 57 65 67 c 2
 79 133 l 2
 82 150 91 199 143 199 c 0
 178 199 181 181 184 151 c 0
 186 115 243 86 309 86 c 0
 427 86 458 152 458 172 c 0
 458 199 427 240 333 240 c 2
 274 240 l 2
 240 240 217 246 217 279 c 0
EndSplineSet
Validated: 3073
EndChar

StartChar: Iicyr
Encoding: 1048 1048 399
Width: 600
Flags: HMW
AnchorPoint: "cyr-above" 401 595 basechar 0
LayerCount: 2
Fore
SplineSet
305 39 m 0
 305 65 320 100 382 100 c 2
 397 100 l 1
 445 326 l 1
 192 141 l 1
 183 100 l 1
 198 100 l 2
 231 100 255 95 255 61 c 0
 255 36 239 0 177 0 c 2
 56 0 l 2
 24 0 0 5 0 39 c 0
 0 65 15 100 77 100 c 2
 83 100 l 1
 165 483 l 1
 134 486 122 502 122 521 c 0
 122 547 137 583 200 583 c 2
 301 583 l 2
 332 583 357 580 357 544 c 0
 357 519 342 483 280 483 c 2
 265 483 l 1
 216 256 l 1
 470 441 l 1
 479 483 l 1
 464 483 l 2
 431 483 407 488 407 522 c 0
 407 549 423 583 485 583 c 2
 586 583 l 2
 618 583 642 580 642 544 c 0
 642 530 634 488 579 483 c 1
 497 100 l 1
 503 100 l 2
 534 100 560 97 560 61 c 0
 560 36 544 0 482 0 c 2
 361 0 l 2
 326 0 305 8 305 39 c 0
EndSplineSet
Validated: 3073
EndChar

StartChar: Kacyr
Encoding: 1050 1050 401
Width: 600
Flags: HMW
AnchorPoint: "cyr-above" 412 595 basechar 0
LayerCount: 2
Fore
SplineSet
591 61 m 0
 591 37 576 0 513 0 c 2
 403 0 l 1
 386 143 312 278 230 278 c 1
 192 100 l 1
 227 100 l 2
 260 100 284 95 284 61 c 0
 284 37 269 0 206 0 c 2
 56 0 l 2
 24 0 0 7 0 39 c 0
 0 64 15 100 77 100 c 2
 92 100 l 1
 174 483 l 1
 159 483 l 2
 126 483 102 488 102 522 c 0
 102 549 118 583 180 583 c 2
 330 583 l 2
 361 583 386 580 386 544 c 0
 386 519 371 483 309 483 c 2
 274 483 l 1
 242 334 l 1
 453 487 l 1
 437 493 429 503 429 519 c 0
 429 545 445 583 508 583 c 2
 608 583 l 2
 640 583 664 580 664 544 c 0
 664 521 650 483 591 483 c 1
 382 330 l 1
 436 298 481 215 502 100 c 1
 534 100 l 2
 567 100 591 95 591 61 c 0
EndSplineSet
Validated: 3073
EndChar

StartChar: Elcyr
Encoding: 1051 1051 402
Width: 600
Flags: HMW
AnchorPoint: "cyr-above" 410 595 basechar 0
LayerCount: 2
Fore
SplineSet
114 166 m 0
 114 153 110 137 110 130 c 0
 110 109 129 100 150 100 c 0
 174 100 199 116 204 139 c 0
 277 483 l 1
 246 486 234 502 234 521 c 0
 234 547 249 583 312 583 c 2
 593 583 l 2
 626 583 649 579 649 544 c 0
 649 530 641 488 586 483 c 1
 504 100 l 1
 510 100 l 2
 541 100 567 97 567 61 c 0
 567 36 551 0 489 0 c 2
 378 0 l 2
 343 0 322 8 322 39 c 0
 322 65 344 100 389 100 c 2
 404 100 l 1
 486 483 l 1
 377 483 l 1
 302 130 l 2
 281 32 203 0 123 0 c 0
 56 0 6 40 6 102 c 0
 6 140 19 204 74 204 c 0
 106 204 114 174 114 166 c 0
EndSplineSet
Validated: 3073
EndChar

StartChar: Pecyr
Encoding: 1055 1055 406
Width: 600
Flags: HMW
AnchorPoint: "cyr-above" 411 595 basechar 0
LayerCount: 2
Fore
SplineSet
315 39 m 0
 315 65 330 100 392 100 c 2
 407 100 l 1
 489 483 l 1
 275 483 l 1
 193 100 l 1
 208 100 l 2
 241 100 265 95 265 61 c 0
 265 36 249 0 187 0 c 2
 66 0 l 2
 34 0 10 5 10 39 c 0
 10 65 25 100 87 100 c 2
 93 100 l 1
 175 483 l 1
 144 486 132 502 132 521 c 0
 132 547 147 583 210 583 c 2
 596 583 l 2
 628 583 652 580 652 544 c 0
 652 530 644 488 589 483 c 1
 507 100 l 1
 513 100 l 2
 544 100 570 97 570 61 c 0
 570 36 554 0 492 0 c 2
 371 0 l 2
 336 0 315 8 315 39 c 0
EndSplineSet
Validated: 3073
EndChar

StartChar: Ucyr
Encoding: 1059 1059 410
Width: 600
Flags: HMW
AnchorPoint: "cyr-above" 390 595 basechar 0
LayerCount: 2
Fore
SplineSet
597 583 m 2
 629 583 654 578 654 545 c 0
 654 511 627 484 585 483 c 1
 287 100 l 1
 320 98 332 81 332 62 c 0
 332 38 318 0 254 0 c 2
 143 0 l 2
 111 0 87 6 87 39 c 0
 87 73 115 100 157 100 c 1
 249 216 l 1
 141 483 l 1
 109 485 92 499 92 522 c 0
 92 558 122 583 170 583 c 2
 261 583 l 2
 292 583 318 580 318 544 c 0
 318 519 306 500 269 484 c 1
 325 312 l 1
 457 484 l 1
 436 494 428 508 428 523 c 0
 428 545 444 583 507 583 c 2
 597 583 l 2
EndSplineSet
Validated: 3073
EndChar

StartChar: Efcyr
Encoding: 1060 1060 411
Width: 600
Flags: HMW
AnchorPoint: "cyr-above" 387 595 basechar 0
LayerCount: 2
Fore
SplineSet
391 349 m 1
 364 234 l 1
 433 234 515 244 515 305 c 0
 515 343 455 349 391 349 c 1
523 483 m 2
 422 483 l 1
 414 449 l 1
 497 449 620 444 620 339 c 0
 620 163 436 134 341 134 c 1
 333 100 l 1
 434 100 l 2
 467 100 491 93 491 65 c 0
 491 21 459 0 411 0 c 2
 109 0 l 2
 71 0 53 12 53 36 c 0
 53 87 91 100 132 100 c 2
 233 100 l 1
 241 134 l 1
 159 134 37 137 37 251 c 0
 37 423 209 449 314 449 c 1
 322 483 l 1
 221 483 l 2
 189 483 164 490 164 518 c 0
 164 569 202 583 244 583 c 2
 546 583 l 2
 579 583 602 576 602 548 c 0
 602 497 563 483 523 483 c 2
291 349 m 1
 220 349 141 344 141 283 c 0
 141 242 200 234 264 234 c 1
 291 349 l 1
EndSplineSet
Validated: 3073
EndChar

StartChar: Tsecyr
Encoding: 1062 1062 413
Width: 600
Flags: HMW
AnchorPoint: "cyr-above" 381 595 basechar 0
LayerCount: 2
Fore
SplineSet
478 -141 m 0
 457 -141 438 -127 438 -104 c 0
 438 -97 439 -88 442 -75 c 2
 458 0 l 1
 56 0 l 2
 24 0 0 3 0 39 c 0
 0 53 8 95 63 100 c 1
 145 483 l 1
 139 483 l 2
 101 483 82 489 82 523 c 0
 82 547 98 583 160 583 c 2
 281 583 l 2
 312 583 337 579 337 546 c 0
 337 519 323 483 260 483 c 2
 245 483 l 1
 163 100 l 1
 377 100 l 1
 459 483 l 1
 444 483 l 2
 406 483 387 489 387 523 c 0
 387 546 403 583 465 583 c 2
 586 583 l 2
 617 583 642 579 642 546 c 0
 642 518 627 483 565 483 c 2
 559 483 l 1
 477 100 l 1
 579 100 l 1
 542 -75 l 2
 538 -91 529 -141 478 -141 c 0
EndSplineSet
Validated: 3073
EndChar

StartChar: Checyr
Encoding: 1063 1063 414
Width: 600
Flags: HMW
AnchorPoint: "cyr-above" 360 595 basechar 0
LayerCount: 2
Fore
SplineSet
255 39 m 0
 255 65 271 100 333 100 c 2
 348 100 l 1
 367 196 l 1
 339 176 304 167 260 167 c 0
 183 167 89 179 89 273 c 0
 89 283 89 293 92 305 c 2
 130 483 l 1
 99 486 87 503 87 522 c 0
 87 547 103 583 165 583 c 2
 266 583 l 2
 297 583 323 580 323 544 c 0
 323 519 307 483 245 483 c 2
 230 483 l 1
 193 308 l 1
 201 277 242 267 282 267 c 0
 329 267 370 283 392 308 c 1
 429 483 l 1
 414 483 l 2
 381 483 358 488 358 522 c 0
 358 548 373 583 435 583 c 2
 536 583 l 2
 569 583 593 579 593 542 c 0
 593 529 584 488 529 483 c 1
 448 100 l 1
 454 100 l 2
 484 100 510 97 510 61 c 0
 510 35 494 0 432 0 c 2
 311 0 l 2
 277 0 255 7 255 39 c 0
EndSplineSet
Validated: 3073
EndChar

StartChar: Shacyrillic
Encoding: 1064 1064 415
Width: 600
Flags: HMW
AnchorPoint: "cyr-above" 427 595 basechar 0
LayerCount: 2
Fore
SplineSet
393 583 m 2
 457 583 l 2
 487 583 509 572 509 546 c 0
 509 509 485 488 452 483 c 1
 363 100 l 1
 471 100 l 1
 560 483 l 1
 536 487 525 499 525 518 c 0
 525 559 551 583 595 583 c 2
 659 583 l 2
 688 583 704 566 704 544 c 0
 704 516 692 492 660 483 c 1
 571 100 l 1
 587 94 594 80 594 65 c 0
 594 19 565 0 526 0 c 2
 54 0 l 2
 25 0 9 14 9 37 c 0
 9 74 29 92 55 100 c 1
 144 483 l 1
 128 490 121 501 121 516 c 0
 121 559 150 583 191 583 c 2
 255 583 l 2
 289 583 301 570 301 550 c 0
 301 513 277 488 244 483 c 1
 155 100 l 1
 263 100 l 1
 352 483 l 1
 331 487 317 499 317 520 c 0
 317 564 355 583 393 583 c 2
EndSplineSet
Validated: 3073
EndChar

StartChar: Shchacyr
Encoding: 1065 1065 416
Width: 600
Flags: HMW
AnchorPoint: "cyr-above" 427 595 basechar 0
LayerCount: 2
Fore
SplineSet
393 583 m 2
 457 583 l 2
 487 583 509 570 509 545 c 0
 509 507 483 488 452 483 c 1
 363 100 l 1
 471 100 l 1
 560 483 l 1
 537 486 525 499 525 518 c 0
 525 559 552 583 595 583 c 2
 659 583 l 2
 688 583 704 566 704 544 c 0
 704 516 692 491 660 483 c 1
 571 100 l 1
 603 100 l 1
 563 -75 l 2
 555 -110 538 -141 496 -141 c 0
 467 -141 458 -125 458 -103 c 0
 458 -94 460 -85 462 -75 c 2
 479 0 l 1
 54 0 l 2
 25 0 10 11 10 34 c 0
 10 71 29 91 55 100 c 1
 144 483 l 1
 128 490 121 501 121 516 c 0
 121 559 150 583 191 583 c 2
 255 583 l 2
 289 583 301 570 301 550 c 0
 301 512 277 489 244 483 c 1
 155 100 l 1
 263 100 l 1
 352 483 l 1
 330 486 317 499 317 519 c 0
 317 563 355 583 393 583 c 2
EndSplineSet
Validated: 3073
EndChar

StartChar: Hardsigncyr
Encoding: 1066 1066 417
Width: 600
Flags: HMW
AnchorPoint: "cyr-above" 370 595 basechar 0
LayerCount: 2
Fore
SplineSet
70 324 m 0
 47 324 30 339 30 361 c 0
 30 368 31 377 34 390 c 2
 75 583 l 1
 414 583 l 2
 448 583 470 575 470 545 c 0
 470 518 455 483 393 483 c 2
 345 483 l 1
 323 383 l 1
 401 383 l 2
 525 383 601 340 601 228 c 0
 601 89 474 0 340 0 c 2
 127 0 l 2
 100 0 81 13 81 44 c 0
 81 71 98 100 148 100 c 2
 163 100 l 1
 245 483 l 1
 154 483 l 1
 134 390 l 2
 131 375 118 324 70 324 c 0
361 100 m 2
 442 100 494 150 494 213 c 0
 494 257 460 283 400 283 c 2
 302 283 l 1
 263 100 l 1
 361 100 l 2
EndSplineSet
Validated: 3073
EndChar

StartChar: Yericyr
Encoding: 1067 1067 418
Width: 600
Flags: HMW
AnchorPoint: "cyr-above" 427 595 basechar 0
LayerCount: 2
Fore
SplineSet
637 483 m 1
 548 100 l 1
 578 100 598 92 598 66 c 0
 598 21 567 0 519 0 c 2
 430 0 l 2
 385 0 374 20 374 38 c 0
 374 87 415 100 448 100 c 1
 537 483 l 1
 496 483 485 502 485 520 c 0
 485 572 529 583 565 583 c 2
 654 583 l 2
 685 583 709 579 709 550 c 0
 709 508 682 483 637 483 c 1
269 483 m 2
 253 483 l 1
 229 383 l 1
 251 383 l 2
 398 383 433 318 433 251 c 0
 433 101 327 0 183 0 c 2
 49 0 l 2
 20 0 3 9 3 33 c 0
 3 79 32 96 64 100 c 1
 153 483 l 1
 127 485 115 494 115 514 c 0
 115 561 141 583 184 583 c 2
 292 583 l 2
 323 583 348 575 348 547 c 0
 348 500 311 483 269 483 c 2
164 100 m 1
 206 100 l 2
 283 100 324 149 324 225 c 0
 324 261 303 283 248 283 c 2
 206 283 l 1
 164 100 l 1
EndSplineSet
Validated: 3073
EndChar

StartChar: Softsigncyr
Encoding: 1068 1068 419
Width: 600
Flags: HMW
AnchorPoint: "cyr-above" 400 595 basechar 0
LayerCount: 2
Fore
SplineSet
417 544 m 0
 417 518 402 483 340 483 c 2
 322 483 l 1
 301 383 l 1
 399 383 l 2
 517 383 598 345 598 228 c 0
 598 89 471 0 337 0 c 2
 104 0 l 2
 73 0 48 3 48 38 c 0
 48 65 63 100 125 100 c 2
 140 100 l 1
 222 483 l 1
 207 483 l 2
 175 483 150 486 150 520 c 0
 150 545 166 583 228 583 c 2
 361 583 l 2
 396 583 417 575 417 544 c 0
358 100 m 2
 439 100 491 150 491 213 c 0
 491 257 457 283 397 283 c 2
 279 283 l 1
 240 100 l 1
 358 100 l 2
EndSplineSet
Validated: 3073
EndChar

StartChar: Ereversedcyr
Encoding: 1069 1069 420
Width: 600
Flags: HMW
AnchorPoint: "cyr-above" 400 595 basechar 0
LayerCount: 2
Fore
SplineSet
9 99 m 0
 9 135 44 159 70 159 c 0
 115 159 100 86 239 86 c 0
 355 86 444 147 469 241 c 1
 253 241 l 2
 220 241 196 247 196 280 c 0
 196 303 208 341 274 341 c 2
 488 341 l 1
 489 347 489 352 489 358 c 0
 489 440 434 497 347 497 c 0
 283 497 211 469 190 420 c 0
 180 393 166 367 129 367 c 0
 108 367 89 382 89 404 c 0
 89 412 90 421 93 433 c 2
 111 517 l 2
 115 533 124 583 175 583 c 0
 192 583 203 577 212 559 c 1
 273 581 308 597 372 597 c 0
 504 597 591 507 591 380 c 0
 591 359 589 337 584 315 c 2
 570 249 l 2
 538 97 390 -14 220 -14 c 0
 52 -14 9 73 9 99 c 0
EndSplineSet
Validated: 3073
EndChar

StartChar: IUcyr
Encoding: 1070 1070 421
Width: 600
Flags: HMW
AnchorPoint: "cyr-above" 457 595 basechar 0
LayerCount: 2
Fore
SplineSet
389 -14 m 0
 284 -14 245 60 245 151 c 0
 245 180 249 210 256 241 c 1
 208 241 l 1
 175 100 l 1
 200 100 220 90 220 64 c 0
 220 16 181 0 151 0 c 2
 63 0 l 2
 30 0 10 19 10 41 c 0
 10 75 41 100 75 100 c 1
 164 483 l 1
 137 486 121 499 121 520 c 0
 121 570 161 583 201 583 c 2
 286 583 l 2
 315 583 333 577 333 552 c 0
 333 507 302 483 264 483 c 1
 231 341 l 1
 288 341 l 1
 321 486 399 596 530 597 c 0
 634 597 667 527 667 436 c 0
 667 214 569 -14 389 -14 c 0
507 497 m 0
 412 497 355 301 355 171 c 0
 355 120 371 86 412 86 c 0
 511 86 568 295 568 421 c 0
 568 467 553 497 507 497 c 0
EndSplineSet
Validated: 3073
EndChar

StartChar: IAcyr
Encoding: 1071 1071 422
Width: 600
Flags: HMW
AnchorPoint: "cyr-above" 400 595 basechar 0
LayerCount: 2
Fore
SplineSet
295 37 m 0
 295 61 306 100 372 100 c 2
 407 100 l 1
 433 222 l 1
 337 222 l 1
 292 207 177 97 106 0 c 1
 47 0 l 2
 14 0 -9 8 -9 38 c 0
 -9 62 0 100 48 100 c 2
 61 100 l 1
 118 167 164 213 220 254 c 1
 167 287 141 326 141 374 c 0
 141 474 239 583 402 583 c 2
 625 583 l 2
 657 583 681 580 681 546 c 0
 681 519 667 483 604 483 c 2
 589 483 l 1
 507 100 l 1
 522 100 l 2
 554 100 579 97 579 63 c 0
 579 38 563 0 501 0 c 2
 351 0 l 2
 319 0 295 7 295 37 c 0
377 483 m 2
 271 483 250 413 250 395 c 0
 250 352 301 322 378 322 c 2
 454 322 l 1
 489 483 l 1
 377 483 l 2
EndSplineSet
Validated: 3073
EndChar

StartChar: becyr
Encoding: 1073 1073 424
Width: 600
Flags: HMW
AnchorPoint: "cyr-above" 400 635 basechar 0
LayerCount: 2
Fore
SplineSet
559 671 m 0
 593 671 599 642 599 635 c 0
 599 628 598 619 595 605 c 2
 579 500 l 1
 473 500 l 2
 331 500 280 484 240 422 c 1
 266 439 302 451 362 451 c 0
 525 451 566 343 566 270 c 0
 566 199 504 -14 265 -14 c 0
 141 -14 58 47 58 167 c 0
 58 187 61 210 66 234 c 0
 130 534 233 598 481 598 c 2
 493 598 l 1
 497 612 502 671 559 671 c 0
463 244 m 0
 463 290 438 351 340 351 c 0
 190 351 160 225 160 191 c 0
 160 128 207 86 284 86 c 0
 426 86 463 207 463 244 c 0
EndSplineSet
Validated: 3073
Substitution2: "'locl' local. forms in Cyrillic for South Slavic-1" cyr_serb_be
EndChar

StartChar: vecyr
Encoding: 1074 1074 425
Width: 600
Flags: HMW
LayerCount: 2
Fore
SplineSet
371 280 m 2
 448 280 464 291 464 313 c 0
 464 334 438 337 310 337 c 1
 297 280 l 1
 371 280 l 2
299 100 m 2
 399 100 437 108 437 142 c 0
 437 173 369 180 276 180 c 1
 259 100 l 1
 299 100 l 2
539 163 m 0
 539 97 508 0 332 0 c 2
 144 0 l 2
 105 0 87 13 87 37 c 0
 87 62 101 100 159 100 c 1
 210 337 l 1
 176 337 158 350 158 375 c 0
 158 398 169 437 237 437 c 2
 405 437 l 2
 445 437 570 434 570 345 c 0
 570 318 556 250 492 226 c 1
 524 216 539 199 539 163 c 0
EndSplineSet
Validated: 3073
EndChar

StartChar: gecyr
Encoding: 1075 1075 426
Width: 600
Flags: HMW
LayerCount: 2
Fore
SplineSet
493 244 m 0
 472 244 453 258 453 280 c 0
 453 296 459 321 462 336 c 1
 462 336 399 337 320 337 c 1
 269 100 l 1
 303 100 321 87 321 62 c 0
 321 27 295 0 252 0 c 2
 154 0 l 2
 115 0 97 13 97 37 c 0
 97 62 111 100 169 100 c 1
 220 337 l 1
 186 337 168 350 168 375 c 0
 168 401 183 437 247 437 c 2
 584 437 l 1
 557 310 l 2
 554 295 544 244 493 244 c 0
EndSplineSet
Validated: 3073
EndChar

StartChar: decyr
Encoding: 1076 1076 427
Width: 600
Flags: HMW
LayerCount: 2
Fore
SplineSet
267 100 m 1
 420 100 l 1
 470 336 l 1
 330 337 l 1
 288 143 l 2
 285 128 277 106 267 100 c 1
61 -92 m 0
 52 -92 21 -87 21 -58 c 0
 21 -51 22 -41 25 -26 c 0
 52 100 l 1
 151 100 l 2
 167 100 184 126 188 143 c 2
 230 337 l 1
 196 337 178 351 178 376 c 0
 178 402 194 437 257 437 c 2
 587 437 l 2
 625 437 643 424 643 399 c 0
 643 374 629 337 571 337 c 1
 520 100 l 1
 577 100 l 1
 550 -26 l 2
 547 -43 537 -92 486 -92 c 0
 462 -92 446 -77 446 -65 c 0
 446 -63 446 -59 447 -55 c 10
 456 0 l 1
 131 0 l 1
 125 -26 l 2
 116 -70 93 -92 61 -92 c 0
EndSplineSet
Validated: 3073
EndChar

StartChar: zhecyr
Encoding: 1078 1078 429
Width: 600
Flags: HMW
LayerCount: 2
Fore
SplineSet
365 100 m 1
 380 98 401 82 401 58 c 0
 401 18 372 0 328 0 c 2
 257 0 l 2
 221 0 206 14 206 36 c 0
 206 71 239 97 266 100 c 1
 280 161 l 1
 183 87 l 1
 156 61 128 38 106 0 c 9
 30 0 l 2
 14 0 1 8 1 30 c 0
 1 67 22 100 50 100 c 1
 217 227 l 1
 105 337 l 1
 86 342 79 354 79 370 c 0
 79 417 106 437 143 437 c 2
 212 437 l 2
 242 437 268 426 268 397 c 0
 268 372 260 367 242 350 c 1
 309 287 l 1
 321 337 l 1
 297 340 285 361 285 379 c 0
 285 407 308 437 348 437 c 2
 439 437 l 2
 471 437 479 412 479 395 c 0
 479 345 431 344 420 337 c 1
 408 287 l 1
 505 350 l 1
 499 360 496 371 496 379 c 0
 496 429 540 437 575 437 c 2
 644 437 l 2
 673 437 685 425 685 404 c 0
 685 366 664 337 636 337 c 1
 472 227 l 1
 581 100 l 1
 601 100 608 88 608 72 c 0
 608 21 584 0 545 0 c 2
 479 0 l 17
 476 36 459 57 442 87 c 1
 379 161 l 1
 365 100 l 1
EndSplineSet
Validated: 3073
EndChar

StartChar: zecyr
Encoding: 1079 1079 430
Width: 600
Flags: HMW
LayerCount: 2
Fore
SplineSet
226 217 m 0
 226 241 241 278 301 278 c 2
 336 278 l 2
 436 278 454 309 454 317 c 0
 454 334 411 350 362 350 c 0
 320 350 285 341 253 321 c 1
 246 312 l 2
 229 290 214 281 193 281 c 0
 171 281 153 294 153 317 c 0
 153 338 162 368 165 384 c 0
 174 430 194 450 226 450 c 0
 241 450 248 443 252 424 c 1
 295 442 338 450 387 450 c 0
 495 450 565 403 565 336 c 0
 565 298 545 259 512 235 c 1
 510 225 l 1
 534 209 547 179 547 147 c 0
 547 45 424 -16 292 -16 c 0
 235 -16 186 -6 150 13 c 1
 137 4 128 1 115 1 c 0
 91 1 74 16 74 38 c 0
 74 45 75 53 78 67 c 2
 85 100 l 2
 88 116 101 167 150 167 c 0
 176 167 189 153 192 123 c 1
 216 97 255 84 309 84 c 0
 335 84 436 94 436 132 c 0
 436 158 385 178 320 178 c 2
 278 178 l 2
 244 178 226 192 226 217 c 0
EndSplineSet
Validated: 3073
EndChar

StartChar: iicyr
Encoding: 1080 1080 431
Width: 600
Flags: HMW
LayerCount: 2
Fore
SplineSet
308 399 m 0
 308 375 294 337 236 337 c 1
 210 214 l 1
 448 325 l 1
 451 336 l 1
 417 336 399 349 399 374 c 0
 399 409 425 437 468 437 c 2
 567 437 l 2
 604 437 623 424 623 400 c 0
 623 375 609 337 551 337 c 1
 500 100 l 1
 534 100 552 87 552 62 c 0
 552 27 526 0 483 0 c 2
 385 0 l 2
 346 0 328 13 328 37 c 0
 328 61 342 100 400 100 c 1
 427 224 l 1
 188 113 l 1
 185 100 l 1
 219 100 237 87 237 62 c 0
 237 27 211 0 168 0 c 2
 70 0 l 2
 31 0 13 13 13 37 c 0
 13 61 27 100 85 100 c 1
 136 337 l 1
 102 337 84 351 84 376 c 0
 84 400 99 437 159 437 c 2
 251 437 l 2
 290 436 308 423 308 399 c 0
EndSplineSet
Validated: 3073
EndChar

StartChar: kacyr
Encoding: 1082 1082 433
Width: 600
Flags: HMW
LayerCount: 2
Fore
SplineSet
275 38 m 0
 275 59 285 74 300 87 c 1
 239 164 l 1
 204 0 l 1
 88 0 l 2
 50 0 31 13 31 38 c 0
 31 61 42 100 109 100 c 2
 125 100 l 1
 175 337 l 1
 159 337 l 2
 128 337 103 340 103 375 c 0
 103 398 115 437 181 437 c 2
 297 437 l 1
 265 287 l 1
 357 350 l 1
 351 360 348 369 348 379 c 0
 348 403 363 437 427 437 c 2
 539 437 l 2
 572 437 595 433 595 400 c 0
 595 374 580 337 517 337 c 2
 489 337 l 1
 330 227 l 1
 438 100 l 1
 471 100 l 2
 502 100 528 97 528 61 c 0
 528 37 513 0 450 0 c 2
 332 0 l 2
 294 0 275 13 275 38 c 0
EndSplineSet
Validated: 3073
EndChar

StartChar: elcyr
Encoding: 1083 1083 434
Width: 600
Flags: HMW
LayerCount: 2
Fore
SplineSet
10 81 m 0
 10 129 25 201 81 201 c 0
 110 201 120 185 120 162 c 0
 120 137 110 117 110 108 c 0
 110 94 122 87 136 87 c 0
 152 87 171 97 175 114 c 2
 223 337 l 1
 189 337 171 351 171 376 c 0
 171 402 187 437 250 437 c 2
 593 437 l 2
 630 437 649 424 649 400 c 0
 649 375 635 337 577 337 c 1
 526 100 l 1
 560 100 578 87 578 62 c 0
 578 27 552 0 509 0 c 2
 411 0 l 2
 372 0 354 13 354 37 c 0
 354 61 368 100 426 100 c 1
 477 336 l 1
 323 337 l 1
 272 100 l 2
 258 30 197 0 116 0 c 0
 54 0 10 12 10 81 c 0
EndSplineSet
Validated: 3073
EndChar

StartChar: emcyr
Encoding: 1084 1084 435
Width: 600
Flags: HMW
LayerCount: 2
Fore
SplineSet
42 375 m 0
 42 401 57 437 120 437 c 2
 305 437 l 1
 350 243 l 1
 487 437 l 1
 670 437 l 2
 708 437 726 424 726 401 c 0
 726 374 711 337 649 337 c 2
 642 337 l 1
 591 100 l 1
 598 100 l 2
 636 100 655 87 655 63 c 0
 655 37 640 0 577 0 c 2
 461 0 l 2
 424 0 406 13 406 38 c 0
 406 64 421 100 482 100 c 2
 491 100 l 1
 542 337 l 1
 524 337 l 1
 357 100 l 1
 291 100 l 1
 226 337 l 1
 208 337 l 1
 157 100 l 1
 164 100 l 2
 202 100 221 87 221 63 c 0
 221 37 206 0 143 0 c 2
 28 0 l 2
 0 0 -20 13 -20 38 c 0
 -20 66 -15 100 49 100 c 2
 57 100 l 1
 108 337 l 1
 99 337 l 2
 61 337 42 350 42 375 c 0
EndSplineSet
Validated: 3073
EndChar

StartChar: encyr
Encoding: 1085 1085 436
Width: 600
Flags: HMW
LayerCount: 2
Fore
SplineSet
338 399 m 0
 338 375 324 337 266 337 c 1
 250 263 l 1
 465 263 l 1
 481 336 l 1
 447 336 429 349 429 374 c 0
 429 409 455 437 498 437 c 2
 597 437 l 2
 634 437 653 424 653 400 c 0
 653 375 639 337 581 337 c 1
 530 100 l 1
 564 100 582 87 582 62 c 0
 582 27 556 0 513 0 c 2
 415 0 l 2
 376 0 358 13 358 37 c 0
 358 61 372 100 430 100 c 1
 444 162 l 1
 229 162 l 1
 215 100 l 1
 249 100 267 87 267 62 c 0
 267 27 241 0 198 0 c 2
 100 0 l 2
 61 0 43 13 43 37 c 0
 43 61 57 100 115 100 c 1
 166 337 l 1
 132 337 114 351 114 376 c 0
 114 400 129 437 189 437 c 2
 281 437 l 2
 320 436 338 423 338 399 c 0
EndSplineSet
Validated: 3073
EndChar

StartChar: pecyr
Encoding: 1087 1087 438
Width: 600
Flags: HMW
LayerCount: 2
Fore
SplineSet
356 37 m 0
 356 61 370 100 428 100 c 1
 479 337 l 1
 264 337 l 1
 213 100 l 1
 247 100 265 87 265 62 c 0
 265 27 239 0 196 0 c 2
 98 0 l 2
 59 0 41 13 41 37 c 0
 41 61 55 100 113 100 c 1
 164 337 l 1
 130 337 112 351 112 376 c 0
 112 402 128 437 191 437 c 2
 595 437 l 2
 632 437 651 424 651 400 c 0
 651 375 637 337 579 337 c 1
 528 100 l 1
 562 100 580 87 580 62 c 0
 580 27 554 0 511 0 c 2
 413 0 l 2
 374 0 356 13 356 37 c 0
EndSplineSet
Validated: 3073
EndChar

StartChar: tecyr
Encoding: 1090 1090 441
Width: 600
Flags: HMW
LayerCount: 2
Fore
SplineSet
190 39 m 0
 190 76 219 101 263 101 c 1
 313 337 l 1
 225 337 l 1
 219 303 212 245 156 245 c 0
 135 245 115 259 115 281 c 0
 115 288 117 297 120 311 c 2
 147 438 l 1
 623 438 l 1
 596 311 l 2
 593 297 584 245 532 245 c 0
 511 245 492 259 492 281 c 0
 492 297 498 322 501 337 c 1
 413 337 l 1
 363 101 l 1
 396 101 415 88 415 65 c 0
 415 42 402 1 346 1 c 2
 248 1 l 2
 209 1 190 14 190 39 c 0
EndSplineSet
Validated: 3073
EndChar

StartChar: efcyr
Encoding: 1092 1092 443
Width: 600
Flags: HMW
AnchorPoint: "cyr-above" 421 655 basechar 0
LayerCount: 2
Fore
SplineSet
425 350 m 2
 401 350 l 1
 345 110 l 1
 369 110 l 2
 456 110 522 168 522 253 c 0
 522 301 488 350 425 350 c 2
354 648 m 2
 470 648 l 1
 424 450 l 1
 456 450 l 2
 560 450 625 382 625 283 c 0
 625 124 487 10 356 10 c 2
 322 10 l 1
 297 -100 l 1
 335 -100 l 2
 369 -100 391 -107 391 -134 c 0
 391 -178 362 -200 312 -200 c 2
 158 -200 l 2
 126 -200 101 -193 101 -165 c 0
 101 -114 141 -100 181 -100 c 2
 197 -100 l 1
 222 10 l 1
 188 10 l 2
 79 10 19 74 19 167 c 0
 19 329 147 450 282 450 c 2
 324 450 l 1
 347 548 l 1
 331 548 l 2
 298 548 274 555 274 583 c 0
 274 634 314 648 354 648 c 2
277 350 m 2
 191 350 122 272 122 193 c 0
 122 143 151 110 221 110 c 2
 245 110 l 1
 301 350 l 1
 277 350 l 2
EndSplineSet
Validated: 3073
EndChar

StartChar: tsecyr
Encoding: 1094 1094 445
Width: 600
Flags: HMW
LayerCount: 2
Fore
SplineSet
626 399 m 0
 626 362 597 337 553 337 c 1
 503 100 l 1
 597 100 l 1
 570 -26 l 2
 567 -41 557 -92 506 -92 c 0
 485 -92 466 -78 466 -56 c 0
 466 -40 472 -15 475 0 c 1
 88 0 l 2
 50 0 32 13 32 38 c 0
 32 62 47 100 105 100 c 1
 155 337 l 1
 122 337 103 350 103 373 c 0
 103 401 118 436 181 437 c 2
 270 437 l 2
 309 437 328 424 328 399 c 0
 328 362 299 337 255 337 c 1
 205 101 l 1
 403 100 l 1
 453 337 l 1
 420 337 401 350 401 373 c 0
 401 399 416 436 479 437 c 2
 568 437 l 2
 607 437 626 424 626 399 c 0
EndSplineSet
Validated: 3073
EndChar

StartChar: checyr
Encoding: 1095 1095 446
Width: 600
Flags: HMW
LayerCount: 2
Fore
SplineSet
319 398 m 0
 319 375 305 337 246 337 c 1
 228 252 l 1
 236 233 273 224 311 224 c 0
 352 224 381 235 409 256 c 1
 426 336 l 1
 393 336 375 349 375 373 c 0
 375 410 402 437 444 437 c 2
 543 437 l 2
 581 437 599 424 599 399 c 0
 599 375 584 337 526 337 c 1
 476 100 l 1
 509 100 528 87 528 64 c 0
 528 41 515 0 459 0 c 2
 361 0 l 2
 322 0 303 13 303 38 c 0
 303 75 332 100 376 100 c 1
 386 147 l 1
 353 129 329 123 289 123 c 0
 217 123 125 145 125 226 c 0
 125 234 126 243 128 252 c 2
 146 337 l 1
 113 337 95 350 95 374 c 0
 95 399 110 437 170 437 c 2
 262 437 l 2
 300 436 319 423 319 398 c 0
EndSplineSet
Validated: 3073
EndChar

StartChar: shacyr
Encoding: 1096 1096 447
Width: 600
Flags: HMW
LayerCount: 2
Fore
SplineSet
485 397 m 0
 485 375 473 337 422 337 c 1
 372 100 l 1
 512 100 l 1
 562 337 l 1
 530 337 515 349 515 371 c 0
 515 397 526 437 588 437 c 2
 661 437 l 2
 701 437 724 421 724 395 c 0
 724 370 712 337 662 337 c 1
 612 100 l 1
 645 100 663 87 663 63 c 0
 663 36 648 0 584 0 c 2
 24 0 l 2
 -14 0 -32 13 -32 38 c 0
 -32 64 -20 100 28 100 c 1
 78 337 l 1
 46 337 31 349 31 371 c 0
 31 397 42 437 104 437 c 2
 177 437 l 2
 218 437 246 423 246 396 c 0
 246 362 220 337 178 337 c 1
 128 100 l 1
 272 100 l 1
 322 337 l 1
 290 337 275 349 275 371 c 0
 275 397 286 437 348 437 c 2
 421 437 l 2
 461 437 485 424 485 397 c 0
EndSplineSet
Validated: 3073
EndChar

StartChar: shchacyr
Encoding: 1097 1097 448
Width: 600
Flags: HMW
LayerCount: 2
Fore
SplineSet
724 395 m 0
 724 370 712 337 662 337 c 1
 612 100 l 1
 677 100 l 1
 650 -26 l 2
 647 -41 637 -92 586 -92 c 0
 564 -92 546 -77 546 -57 c 0
 546 -40 553 -14 556 0 c 1
 24 0 l 2
 -14 0 -32 13 -32 38 c 0
 -32 64 -20 100 28 100 c 1
 78 337 l 1
 46 337 31 349 31 371 c 0
 31 397 42 437 104 437 c 2
 177 437 l 2
 218 437 246 423 246 396 c 0
 246 362 220 337 178 337 c 1
 128 100 l 1
 272 100 l 1
 322 337 l 1
 290 337 275 349 275 371 c 0
 275 397 286 437 348 437 c 2
 421 437 l 2
 461 437 485 424 485 397 c 0
 485 375 473 337 422 337 c 1
 372 100 l 1
 512 100 l 1
 562 337 l 1
 530 337 515 349 515 371 c 0
 515 397 526 437 588 437 c 2
 661 437 l 2
 701 437 724 421 724 395 c 0
EndSplineSet
Validated: 3073
EndChar

StartChar: hardsigncyr
Encoding: 1098 1098 449
Width: 600
Flags: HMW
LayerCount: 2
Fore
SplineSet
111 245 m 0
 102 245 71 251 71 280 c 0
 71 287 72 297 75 311 c 2
 102 437 l 1
 384 437 l 2
 424 437 442 425 442 401 c 0
 442 377 427 337 369 337 c 1
 357 280 l 1
 559 280 598 234 598 162 c 0
 598 95 568 0 401 0 c 2
 203 0 l 2
 164 0 146 13 146 37 c 0
 146 62 160 100 218 100 c 1
 269 337 l 1
 181 337 l 1
 172 296 164 245 111 245 c 0
368 100 m 2
 459 100 496 108 496 144 c 0
 496 179 439 180 358 180 c 2
 335 180 l 1
 318 100 l 1
 368 100 l 2
EndSplineSet
Validated: 3073
EndChar

StartChar: yericyr
Encoding: 1099 1099 450
Width: 600
Flags: HMW
LayerCount: 2
Fore
SplineSet
383 37 m 0
 383 61 397 100 455 100 c 1
 506 336 l 1
 472 336 454 349 454 374 c 0
 454 399 469 437 532 437 c 2
 622 437 l 2
 659 437 678 424 678 400 c 0
 678 375 664 337 606 337 c 1
 555 100 l 1
 589 100 607 87 607 62 c 0
 607 37 592 0 529 0 c 2
 440 0 l 2
 401 0 383 13 383 37 c 0
296 401 m 0
 296 375 281 337 223 337 c 1
 211 280 l 1
 336 280 399 254 399 178 c 0
 399 98 382 0 225 0 c 2
 57 0 l 2
 18 0 0 13 0 37 c 0
 0 61 14 100 72 100 c 1
 123 337 l 1
 89 337 71 351 71 376 c 0
 71 399 83 437 150 437 c 2
 238 437 l 2
 278 437 296 425 296 401 c 0
212 100 m 2
 276 100 312 107 312 143 c 0
 312 180 282 180 189 180 c 1
 172 100 l 1
 212 100 l 2
EndSplineSet
Validated: 3073
EndChar

StartChar: softsigncyr
Encoding: 1100 1100 451
Width: 600
Flags: HMW
LayerCount: 2
Fore
SplineSet
388 401 m 0
 388 377 373 337 315 337 c 1
 302 280 l 1
 487 280 539 254 539 180 c 0
 539 101 502 0 317 0 c 2
 149 0 l 2
 110 0 92 13 92 37 c 0
 92 62 106 100 164 100 c 1
 215 337 l 1
 181 337 163 350 163 375 c 0
 163 398 174 437 242 437 c 2
 330 437 l 2
 370 437 388 425 388 401 c 0
304 100 m 2
 404 100 432 107 432 143 c 0
 432 180 374 180 281 180 c 1
 264 100 l 1
 304 100 l 2
EndSplineSet
Validated: 3073
EndChar

StartChar: ereversedcyr
Encoding: 1101 1101 452
Width: 600
Flags: HMW
LayerCount: 2
Fore
SplineSet
119 140 m 0
 159 140 140 84 292 84 c 0
 383 84 444 108 475 157 c 1
 281 157 l 2
 247 157 229 171 229 196 c 0
 229 220 244 257 304 257 c 2
 497 257 l 1
 488 317 443 350 369 350 c 0
 186 350 252 241 166 241 c 0
 132 241 125 269 125 277 c 0
 125 284 127 293 130 307 c 2
 146 384 l 2
 156 430 175 450 208 450 c 0
 229 450 238 441 240 420 c 1
 283 440 333 450 390 450 c 0
 536 450 600 360 600 261 c 0
 600 100 474 -16 278 -16 c 0
 155 -16 57 21 57 80 c 0
 57 105 83 140 119 140 c 0
EndSplineSet
Validated: 3073
EndChar

StartChar: iucyr
Encoding: 1102 1102 453
Width: 600
Flags: HMW
LayerCount: 2
Fore
SplineSet
260 258 m 1
 285 366 364 450 496 450 c 0
 602 450 641 390 641 305 c 0
 641 131 567 -16 384 -16 c 0
 283 -16 234 33 234 108 c 0
 234 123 236 140 240 157 c 1
 174 157 l 1
 161 100 l 1
 194 100 206 79 206 57 c 0
 206 12 173 0 128 0 c 2
 54 0 l 2
 20 0 9 16 9 36 c 0
 9 76 30 100 61 100 c 1
 116 337 l 1
 115 337 115 337 114 337 c 0
 94 337 86 359 86 382 c 0
 86 419 117 437 161 437 c 2
 223 437 l 2
 262 436 279 419 279 395 c 0
 279 354 250 337 216 337 c 1
 198 258 l 1
 260 258 l 1
471 350 m 0
 396 350 364 293 346 217 c 0
 341 194 338 173 338 155 c 0
 338 113 355 84 407 84 c 0
 493 84 538 180 538 278 c 0
 538 321 521 350 471 350 c 0
EndSplineSet
Validated: 3073
EndChar

StartChar: iacyr
Encoding: 1103 1103 454
Width: 600
Flags: HMW
LayerCount: 2
Fore
SplineSet
54 39 m 0
 54 62 66 100 132 100 c 2
 165 100 l 1
 249 167 l 1
 190 178 167 201 167 248 c 0
 167 328 210 433 399 437 c 2
 567 437 l 2
 606 437 624 424 624 400 c 0
 624 362 595 337 551 337 c 1
 501 100 l 1
 534 100 552 87 552 63 c 0
 552 38 541 0 474 0 c 2
 386 0 l 2
 346 0 327 12 327 37 c 0
 327 75 356 100 401 100 c 1
 413 157 l 1
 385 157 l 1
 297 87 l 1
 304 78 307 70 307 61 c 0
 307 37 292 0 229 0 c 2
 111 0 l 2
 76 0 54 6 54 39 c 0
411 337 m 0
 315 337 274 330 274 293 c 0
 274 259 326 257 402 257 c 2
 434 257 l 1
 451 337 l 1
 437 337 423 337 411 337 c 0
EndSplineSet
Validated: 3073
EndChar

StartChar: djecyr
Encoding: 1106 1106 457
Width: 600
Flags: HMW
AnchorPoint: "cyr-above" 400 665 basechar 0
LayerCount: 2
Fore
SplineSet
182 -148 m 0
 182 -97 223 -85 260 -85 c 2
 296 -85 l 2
 350 -85 398 -57 410 -1 c 2
 457 223 l 2
 459 231 461 240 461 250 c 0
 461 275 448 302 387 302 c 0
 328 302 291 271 246 235 c 1
 216 100 l 1
 222 100 l 2
 243 100 280 98 280 63 c 0
 280 13 241 0 201 0 c 2
 89 0 l 2
 67 0 32 3 32 37 c 0
 32 81 61 100 110 100 c 2
 116 100 l 1
 199 487 l 1
 194 487 l 2
 161 487 137 496 137 524 c 0
 137 577 179 587 216 587 c 2
 220 587 l 1
 223 601 l 2
 230 633 241 667 284 667 c 0
 311 667 327 654 327 625 c 0
 327 618 326 610 324 601 c 2
 321 587 l 1
 513 587 l 2
 544 587 570 581 570 551 c 0
 570 501 531 487 492 487 c 2
 300 487 l 1
 268 341 l 1
 316 382 366 402 418 402 c 0
 535 402 564 330 564 272 c 0
 564 259 562 246 560 236 c 2
 510 0 l 2
 488 -105 389 -185 278 -185 c 2
 239 -185 l 2
 219 -185 182 -183 182 -148 c 0
EndSplineSet
Validated: 3073
EndChar

StartChar: yestcyr
Encoding: 1108 1108 459
Width: 600
Flags: HMW
LayerCount: 2
Fore
SplineSet
475 289 m 0
 473 330 429 350 359 350 c 0
 279 350 223 312 191 257 c 1
 384 257 l 2
 420 257 437 244 437 220 c 0
 437 196 423 157 365 157 c 2
 171 157 l 1
 181 108 231 84 322 84 c 0
 481 84 473 140 519 140 c 0
 542 140 559 123 559 100 c 0
 559 7 357 -16 294 -16 c 0
 101 -16 66 85 66 157 c 0
 66 227 129 450 380 450 c 0
 437 450 483 440 518 420 c 1
 528 441 541 450 562 450 c 0
 587 450 600 438 600 412 c 0
 600 404 598 395 596 384 c 2
 579 307 l 2
 576 290 566 241 515 241 c 0
 480 241 475 261 475 289 c 0
EndSplineSet
Validated: 3073
EndChar

StartChar: ljecyr
Encoding: 1113 1113 464
Width: 600
Flags: HMW
LayerCount: 2
Fore
SplineSet
466 278 m 1
 540 278 599 262 599 186 c 0
 599 44 485 0 399 0 c 2
 309 0 l 2
 271 0 252 10 252 35 c 0
 252 78 283 100 326 100 c 1
 381 336 l 1
 303 336 l 1
 252 119 l 2
 237 50 175 -1 90 -1 c 0
 27 -1 2 44 2 80 c 0
 2 85 3 92 4 97 c 2
 14 139 l 2
 22 170 38 200 78 200 c 0
 108 200 117 185 117 166 c 0
 117 159 116 152 114 145 c 2
 107 113 l 2
 106 108 105 103 105 100 c 0
 105 90 110 85 121 85 c 0
 142 85 147 96 151 113 c 2
 203 336 l 1
 176 336 151 344 151 372 c 0
 151 415 183 436 232 436 c 2
 498 436 l 2
 539 436 553 420 553 398 c 0
 553 354 526 339 480 336 c 1
 466 278 l 1
425 99 m 1
 477 99 495 111 495 152 c 0
 495 170 481 178 443 178 c 1
 425 99 l 1
EndSplineSet
Validated: 3073
EndChar

StartChar: njecyr
Encoding: 1114 1114 465
Width: 600
Flags: HMW
LayerCount: 2
Fore
SplineSet
459 280 m 1
 535 280 612 264 612 182 c 0
 612 38 492 0 411 0 c 2
 300 0 l 2
 265 0 252 16 252 37 c 0
 252 81 281 100 317 100 c 1
 336 180 l 1
 188 180 l 1
 169 100 l 1
 196 100 210 82 210 59 c 0
 210 9 180 0 141 0 c 2
 52 0 l 2
 21 0 5 12 5 36 c 0
 5 78 39 100 69 100 c 1
 124 337 l 1
 100 337 82 348 82 372 c 0
 82 419 114 437 148 437 c 2
 246 437 l 2
 279 437 289 421 289 403 c 0
 289 360 269 341 224 337 c 1
 211 281 l 1
 359 281 l 1
 372 336 l 1
 343 340 332 363 332 381 c 0
 332 429 375 437 400 437 c 2
 490 437 l 2
 531 437 546 422 546 400 c 0
 546 354 512 340 472 337 c 1
 459 280 l 1
417 100 m 1
 469 100 506 104 506 147 c 0
 506 177 470 180 436 180 c 1
 417 100 l 1
EndSplineSet
Validated: 3073
EndChar

StartChar: tshecyr
Encoding: 1115 1115 466
Width: 600
Flags: HMW
AnchorPoint: "cyr-above" 420 675 basechar 0
LayerCount: 2
Fore
SplineSet
281 63 m 0
 281 13 242 0 202 0 c 2
 90 0 l 2
 68 0 33 3 33 37 c 0
 33 81 62 100 111 100 c 2
 117 100 l 1
 200 487 l 1
 194 487 l 2
 161 487 137 496 137 524 c 0
 137 577 179 587 216 587 c 2
 221 587 l 1
 228 621 l 2
 235 653 249 687 292 687 c 0
 318 687 331 675 331 648 c 0
 331 640 330 631 328 621 c 2
 321 587 l 1
 513 587 l 2
 544 587 570 581 570 551 c 0
 570 501 531 487 492 487 c 2
 300 487 l 1
 268 341 l 1
 316 382 366 402 418 402 c 0
 508 402 565 356 565 277 c 0
 565 264 563 251 560 237 c 2
 531 100 l 1
 537 100 l 2
 565 100 594 95 594 64 c 0
 594 14 555 0 516 0 c 2
 404 0 l 2
 383 0 346 2 346 37 c 0
 346 87 386 100 425 100 c 2
 431 100 l 1
 457 223 l 2
 459 230 461 240 461 249 c 0
 461 274 448 302 386 302 c 0
 327 302 290 270 246 235 c 1
 217 100 l 1
 223 100 l 2
 253 100 281 93 281 63 c 0
EndSplineSet
Validated: 3073
EndChar

StartChar: dzhecyr
Encoding: 1119 1119 470
Width: 600
Flags: HMW
LayerCount: 2
Fore
SplineSet
329 399 m 0
 329 368 310 337 263 337 c 2
 256 337 l 1
 206 100 l 1
 420 100 l 1
 471 337 l 1
 436 337 418 349 418 372 c 0
 418 399 432 437 488 437 c 2
 586 437 l 2
 625 437 644 425 644 399 c 0
 644 376 630 337 578 337 c 2
 571 337 l 1
 520 100 l 1
 555 100 572 88 572 64 c 0
 572 28 550 0 493 0 c 2
 339 0 l 1
 330 -30 322 -65 320 -90 c 1
 306 -96 289 -99 273 -99 c 0
 256 -99 239 -96 226 -90 c 1
 237 -66 242 -35 245 0 c 1
 89 0 l 2
 51 0 32 12 32 38 c 0
 32 75 59 97 105 100 c 1
 156 337 l 1
 121 337 103 349 103 372 c 0
 103 399 117 437 173 437 c 2
 271 437 l 2
 310 437 329 425 329 399 c 0
EndSplineSet
Validated: 3073
EndChar

StartChar: afii10050
Encoding: 1168 1168 471
Width: 600
Flags: HMW
LayerCount: 2
Fore
SplineSet
11 36 m 0
 11 74 32 100 89 100 c 2
 103 100 l 1
 185 483 l 1
 171 483 l 2
 138 483 114 489 114 518 c 0
 114 570 150 583 192 583 c 2
 562 583 l 1
 573 634 l 2
 585 690 616 700 637 700 c 0
 667 700 676 686 676 663 c 0
 676 654 675 645 673 634 c 2
 641 483 l 1
 285 483 l 1
 203 100 l 1
 303 100 l 2
 337 100 360 93 360 65 c 0
 360 43 351 0 282 0 c 2
 68 0 l 2
 33 0 11 9 11 36 c 0
EndSplineSet
Validated: 3073
EndChar

StartChar: afii10098
Encoding: 1169 1169 472
Width: 600
Flags: HMW
LayerCount: 2
Fore
SplineSet
332 63 m 0
 332 45 323 0 254 0 c 2
 165 0 l 2
 126 0 107 12 107 37 c 0
 107 62 123 100 180 100 c 1
 231 337 l 1
 197 337 179 351 179 375 c 0
 179 395 188 437 258 437 c 2
 495 437 l 1
 500 463 l 2
 508 501 523 529 564 529 c 0
 594 529 604 514 604 491 c 0
 604 483 602 473 600 463 c 2
 573 336 l 1
 573 336 410 337 331 337 c 1
 280 100 l 1
 313 100 332 87 332 63 c 0
EndSplineSet
Validated: 3073
EndChar

StartChar: uni0492
Encoding: 1170 1170 473
Width: 600
Flags: HMW
LayerCount: 2
Fore
SplineSet
411 356 m 0
 411 320 378 295 335 295 c 2
 245 295 l 1
 203 100 l 1
 303 100 l 2
 337 100 360 93 360 65 c 0
 360 43 351 0 282 0 c 2
 68 0 l 2
 33 0 11 9 11 36 c 0
 11 74 32 100 89 100 c 2
 103 100 l 1
 145 295 l 1
 127 295 l 2
 89 295 73 314 73 335 c 0
 73 358 92 392 149 392 c 2
 165 392 l 1
 185 483 l 1
 171 483 l 2
 138 483 114 489 114 518 c 0
 114 570 150 583 192 583 c 2
 662 583 l 1
 630 432 l 2
 622 394 608 366 566 366 c 0
 549 366 527 373 527 407 c 0
 527 414 528 422 530 432 c 2
 541 483 l 1
 285 483 l 1
 265 392 l 1
 355 392 l 2
 387 392 411 383 411 356 c 0
EndSplineSet
Validated: 3073
EndChar

StartChar: uni0493
Encoding: 1171 1171 474
Width: 600
Flags: HMW
LayerCount: 2
Fore
SplineSet
400 230 m 0
 400 213 390 177 349 177 c 2
 297 177 l 1
 280 100 l 1
 313 100 332 87 332 63 c 0
 332 18 305 0 254 0 c 2
 165 0 l 2
 126 0 107 12 107 37 c 0
 107 62 123 100 180 100 c 1
 197 177 l 1
 158 177 l 2
 137 177 124 186 124 205 c 0
 124 223 134 257 175 257 c 2
 214 257 l 1
 231 337 l 1
 197 337 179 351 179 375 c 0
 179 395 188 437 258 437 c 2
 595 437 l 1
 568 310 l 2
 560 272 545 244 504 244 c 0
 474 244 464 259 464 282 c 0
 464 290 466 300 468 310 c 2
 473 336 l 1
 473 336 410 337 331 337 c 1
 314 257 l 1
 366 257 l 2
 385 257 400 251 400 230 c 0
EndSplineSet
Validated: 3073
EndChar

StartChar: uni0496
Encoding: 1174 1174 475
Width: 600
Flags: HMW
LayerCount: 2
Fore
SplineSet
599 -141 m 0
 578 -141 559 -127 559 -104 c 0
 559 -97 560 -88 563 -75 c 2
 579 0 l 1
 524 0 l 1
 523 164 487 264 405 264 c 1
 369 100 l 1
 403 100 419 78 419 50 c 0
 419 14 393 0 345 0 c 2
 262 0 l 2
 217 0 206 23 206 50 c 0
 206 75 223 100 269 100 c 1
 305 264 l 1
 223 264 141 153 100 0 c 1
 25 0 l 2
 -20 0 -31 20 -31 50 c 0
 -31 86 -6 100 43 100 c 1
 81 228 133 298 201 330 c 1
 123 483 l 1
 89 484 78 506 78 533 c 0
 78 567 99 583 148 583 c 2
 225 583 l 2
 264 583 284 565 284 534 c 0
 284 502 266 487 243 487 c 1
 319 334 l 1
 350 483 l 1
 314 483 301 501 301 533 c 0
 301 570 326 583 378 583 c 2
 439 583 l 2
 488 583 504 566 504 533 c 0
 504 498 477 483 450 483 c 1
 419 334 l 1
 548 487 l 1
 529 487 523 510 523 530 c 0
 523 568 566 583 603 583 c 2
 670 583 l 2
 709 583 726 563 726 533 c 0
 726 497 702 484 678 483 c 1
 536 321 l 1
 581 283 623 218 623 100 c 1
 669 100 690 83 690 50 c 0
 690 22 660 -103 645 -120 c 0
 632 -133 615 -141 599 -141 c 0
EndSplineSet
Validated: 3073
EndChar

StartChar: uni0497
Encoding: 1175 1175 476
Width: 600
Flags: HMW
LayerCount: 2
Fore
SplineSet
588 100 m 1
 639 100 652 80 652 47 c 0
 652 12 636 -26 636 -26 c 0
 633 -41 623 -92 572 -92 c 0
 538 -92 532 -63 532 -56 c 0
 532 -49 533 -40 536 -26 c 2
 541 0 l 1
 481 0 l 2
 443 0 425 13 425 37 c 0
 425 48 429 99 450 99 c 1
 438 135 417 149 388 164 c 1
 375 100 l 1
 393 100 410 75 410 52 c 0
 410 10 382 0 346 0 c 2
 281 0 l 2
 237 0 227 21 227 50 c 0
 227 79 250 100 270 100 c 1
 283 164 l 1
 247 150 209 131 189 87 c 1
 195 78 198 70 198 61 c 0
 198 37 183 0 120 0 c 2
 34 0 l 2
 -12 0 -18 26 -18 50 c 0
 -18 86 8 100 57 100 c 1
 96 162 169 234 240 237 c 1
 101 336 l 1
 69 336 59 351 59 386 c 0
 59 420 79 437 127 437 c 2
 200 437 l 2
 258 437 268 413 268 377 c 0
 268 357 264 336 242 336 c 1
 310 288 l 1
 321 337 l 1
 298 337 285 363 285 387 c 0
 285 419 308 437 346 437 c 2
 415 437 l 2
 453 437 471 417 471 387 c 0
 471 358 451 337 425 337 c 1
 407 258 l 1
 510 340 l 1
 496 340 491 362 491 381 c 0
 491 428 521 437 565 437 c 2
 632 437 l 2
 678 437 696 420 696 389 c 0
 696 368 688 337 642 337 c 0
 639 337 l 1
 485 218 l 1
 537 200 563 166 588 100 c 1
EndSplineSet
Validated: 3073
EndChar

StartChar: uni049A
Encoding: 1178 1178 477
Width: 600
Flags: HMW
LayerCount: 2
Fore
SplineSet
671 548 m 0
 671 522 656 483 597 483 c 1
 388 330 l 1
 441 298 485 215 507 100 c 1
 605 100 l 1
 568 -75 l 2
 561 -110 546 -141 504 -141 c 0
 475 -141 465 -125 465 -102 c 0
 465 -94 466 -84 468 -75 c 2
 484 0 l 1
 408 0 l 1
 392 143 317 278 235 278 c 1
 197 100 l 1
 233 100 l 2
 265 100 290 92 290 63 c 0
 290 43 281 0 212 0 c 2
 62 0 l 2
 27 0 5 9 5 36 c 0
 5 74 26 100 83 100 c 2
 97 100 l 1
 179 483 l 1
 165 483 l 2
 132 483 108 489 108 518 c 0
 108 570 144 583 186 583 c 2
 336 583 l 2
 368 583 393 576 393 547 c 0
 393 525 384 483 315 483 c 2
 279 483 l 1
 247 334 l 1
 458 487 l 1
 443 493 436 504 436 519 c 0
 436 539 445 583 514 583 c 2
 614 583 l 2
 647 583 671 577 671 548 c 0
EndSplineSet
Validated: 3073
EndChar

StartChar: uni049B
Encoding: 1179 1179 478
Width: 600
Flags: HMW
LayerCount: 2
Fore
SplineSet
626 402 m 0
 626 376 616 337 548 337 c 2
 520 337 l 1
 360 227 l 1
 469 100 l 1
 569 100 l 1
 532 -75 l 2
 525 -110 510 -141 468 -141 c 0
 439 -141 429 -125 429 -102 c 0
 429 -94 430 -84 432 -75 c 2
 448 0 l 1
 362 0 l 2
 324 0 305 12 305 37 c 0
 305 58 314 73 330 87 c 1
 269 164 l 1
 234 0 l 1
 118 0 l 2
 80 0 61 12 61 37 c 0
 61 62 72 100 139 100 c 2
 155 100 l 1
 206 337 l 1
 190 337 l 2
 157 337 133 343 133 372 c 0
 133 398 143 437 211 437 c 2
 327 437 l 1
 295 287 l 1
 388 350 l 1
 381 360 379 367 379 376 c 0
 379 396 388 437 457 437 c 2
 569 437 l 2
 602 437 626 431 626 402 c 0
EndSplineSet
Validated: 3073
EndChar

StartChar: uni04A2
Encoding: 1186 1186 479
Width: 600
Flags: HMW
LayerCount: 2
Fore
SplineSet
440 519 m 0
 440 570 477 583 518 583 c 2
 619 583 l 2
 653 583 676 575 676 547 c 0
 676 531 668 488 612 483 c 1
 530 100 l 1
 602 100 l 1
 565 -75 l 2
 558 -110 543 -141 501 -141 c 0
 472 -141 462 -125 462 -102 c 0
 462 -94 463 -84 465 -75 c 2
 481 0 l 1
 394 0 l 2
 361 0 337 9 337 37 c 0
 337 62 348 100 415 100 c 2
 430 100 l 1
 460 241 l 1
 246 241 l 1
 216 100 l 1
 231 100 l 2
 262 100 288 94 288 64 c 0
 288 38 277 0 210 0 c 2
 89 0 l 2
 57 0 32 7 32 36 c 0
 32 74 53 100 110 100 c 2
 116 100 l 1
 198 483 l 1
 170 486 155 499 155 521 c 0
 155 546 165 583 233 583 c 2
 334 583 l 2
 365 583 391 577 391 547 c 0
 391 521 381 483 313 483 c 2
 298 483 l 1
 267 341 l 1
 481 341 l 1
 512 483 l 1
 497 483 l 2
 465 483 440 490 440 519 c 0
EndSplineSet
Validated: 3073
EndChar

StartChar: uni04A3
Encoding: 1187 1187 480
Width: 600
Flags: HMW
LayerCount: 2
Fore
SplineSet
652 400 m 0
 652 376 637 337 579 337 c 1
 528 100 l 1
 589 100 l 1
 552 -75 l 2
 545 -110 530 -141 488 -141 c 0
 459 -141 449 -125 449 -102 c 0
 449 -94 450 -84 452 -75 c 2
 468 0 l 1
 413 0 l 2
 374 0 355 12 355 37 c 0
 355 62 371 100 428 100 c 1
 441 162 l 1
 226 162 l 1
 213 100 l 1
 246 100 265 87 265 63 c 0
 265 38 246 0 187 0 c 2
 98 0 l 2
 59 0 40 12 40 37 c 0
 40 62 56 100 113 100 c 1
 164 337 l 1
 130 337 112 351 112 375 c 0
 112 395 121 437 191 437 c 2
 279 437 l 2
 318 437 337 424 337 399 c 0
 337 374 322 337 264 337 c 1
 248 263 l 1
 463 263 l 1
 478 336 l 1
 444 336 427 350 427 374 c 0
 427 396 441 437 496 437 c 2
 595 437 l 2
 633 437 652 425 652 400 c 0
EndSplineSet
Validated: 3073
EndChar

StartChar: uni04AC
Encoding: 1196 1196 481
Width: 600
Flags: HMW
LayerCount: 2
Fore
SplineSet
107 39 m 0
 107 64 118 100 185 100 c 2
 250 100 l 1
 332 483 l 1
 225 483 l 1
 205 390 l 2
 198 355 183 324 141 324 c 0
 112 324 102 340 102 363 c 0
 102 371 103 380 105 390 c 2
 146 583 l 1
 662 583 l 1
 621 390 l 2
 613 352 599 324 557 324 c 0
 527 324 518 340 518 363 c 0
 518 371 519 381 521 390 c 2
 541 483 l 1
 432 483 l 1
 350 100 l 1
 482 100 l 1
 445 -75 l 2
 438 -110 423 -141 381 -141 c 0
 352 -141 342 -125 342 -102 c 0
 342 -94 343 -84 345 -75 c 2
 361 0 l 1
 164 0 l 2
 118 0 107 21 107 39 c 0
EndSplineSet
Validated: 3073
EndChar

StartChar: uni04AD
Encoding: 1197 1197 482
Width: 600
Flags: HMW
LayerCount: 2
Fore
SplineSet
188 37 m 0
 188 62 204 100 261 100 c 1
 311 336 l 1
 223 336 l 1
 218 310 l 2
 210 272 195 244 154 244 c 0
 124 244 114 259 114 282 c 0
 114 290 116 300 118 310 c 2
 145 437 l 1
 621 437 l 1
 594 310 l 2
 586 272 571 244 530 244 c 0
 500 244 490 259 490 282 c 0
 490 290 492 300 494 310 c 2
 499 336 l 1
 411 336 l 1
 361 100 l 1
 422 100 l 1
 385 -75 l 2
 378 -110 363 -141 321 -141 c 0
 292 -141 282 -125 282 -102 c 0
 282 -94 283 -84 285 -75 c 2
 301 0 l 1
 246 0 l 2
 207 0 188 12 188 37 c 0
EndSplineSet
Validated: 3073
EndChar

StartChar: uni04B0
Encoding: 1200 1200 485
Width: 600
Flags: HMW
LayerCount: 2
Fore
SplineSet
474 64 m 0
 474 38 462 0 395 0 c 2
 165 0 l 2
 131 0 107 9 107 37 c 0
 107 90 148 100 186 100 c 2
 251 100 l 1
 261 145 l 1
 161 145 l 2
 127 145 103 155 103 182 c 0
 103 232 140 245 182 245 c 2
 282 245 l 1
 168 483 l 1
 132 483 113 497 113 521 c 0
 113 546 129 583 192 583 c 2
 281 583 l 2
 315 583 338 575 338 547 c 0
 338 509 310 493 288 484 c 1
 354 348 l 1
 477 484 l 1
 456 492 446 505 446 522 c 0
 446 546 457 583 525 583 c 2
 617 583 l 2
 650 583 674 577 674 548 c 0
 674 509 643 483 597 483 c 1
 382 245 l 1
 482 245 l 2
 515 245 540 238 540 209 c 0
 540 183 528 145 461 145 c 2
 361 145 l 1
 351 100 l 1
 416 100 l 2
 449 100 474 93 474 64 c 0
EndSplineSet
Validated: 3073
EndChar

StartChar: uni04B1
Encoding: 1201 1201 486
Width: 600
Flags: HMW
LayerCount: 2
Fore
SplineSet
443 -82 m 0
 443 -108 431 -146 364 -146 c 2
 134 -146 l 2
 100 -146 76 -137 76 -109 c 0
 76 -105 77 -101 78 -96 c 0
 87 -52 120 -46 155 -46 c 2
 220 -46 l 1
 230 -1 l 1
 135 -1 l 2
 101 -1 77 9 77 36 c 0
 77 86 114 99 156 99 c 2
 251 99 l 1
 137 337 l 1
 101 337 82 351 82 375 c 0
 82 400 98 437 161 437 c 2
 250 437 l 2
 283 437 307 429 307 401 c 0
 307 363 279 347 257 338 c 1
 323 202 l 1
 446 338 l 1
 425 346 415 359 415 376 c 0
 415 400 426 437 494 437 c 2
 586 437 l 2
 619 437 643 431 643 402 c 0
 643 381 633 337 566 337 c 1
 351 99 l 1
 446 99 l 2
 479 99 504 92 504 63 c 0
 504 37 492 -1 425 -1 c 2
 330 -1 l 1
 320 -46 l 1
 385 -46 l 2
 418 -46 443 -53 443 -82 c 0
EndSplineSet
Validated: 3073
EndChar

StartChar: uni04B2
Encoding: 1202 1202 487
Width: 600
Flags: HMW
LayerCount: 2
Fore
SplineSet
457 522 m 0
 457 546 472 583 536 583 c 2
 626 583 l 2
 659 583 683 577 683 548 c 0
 683 526 671 485 614 483 c 1
 417 297 l 1
 542 100 l 1
 601 100 l 1
 564 -75 l 2
 557 -110 542 -141 500 -141 c 0
 471 -141 461 -125 461 -102 c 0
 461 -94 462 -84 464 -75 c 2
 480 0 l 1
 403 0 l 2
 365 0 346 12 346 37 c 0
 346 57 357 97 413 100 c 1
 338 220 l 1
 210 100 l 1
 239 98 255 85 255 62 c 0
 255 40 245 0 177 0 c 2
 66 0 l 2
 32 0 9 10 9 37 c 0
 9 62 26 100 80 100 c 1
 288 298 l 1
 170 483 l 1
 138 485 121 498 121 521 c 0
 121 546 138 583 199 583 c 2
 290 583 l 2
 323 583 348 576 348 547 c 0
 348 509 321 494 298 484 c 1
 370 375 l 1
 486 484 l 1
 466 495 457 507 457 522 c 0
EndSplineSet
Validated: 3073
EndChar

StartChar: uni04B3
Encoding: 1203 1203 488
Width: 600
Flags: HMW
LayerCount: 2
Fore
SplineSet
415 375 m 0
 415 398 430 437 493 437 c 2
 584 437 l 2
 616 437 642 431 642 401 c 0
 642 383 633 342 577 337 c 1
 421 227 l 1
 546 100 l 1
 601 100 l 1
 564 -75 l 2
 557 -110 542 -141 500 -141 c 0
 471 -141 461 -125 461 -102 c 0
 461 -94 462 -84 464 -75 c 2
 480 0 l 1
 401 0 l 2
 368 0 343 8 343 37 c 0
 343 71 368 93 395 100 c 1
 333 161 l 1
 247 100 l 1
 267 90 276 80 276 64 c 0
 276 45 267 0 198 0 c 2
 87 0 l 2
 49 0 30 12 30 37 c 0
 30 55 40 97 96 100 c 1
 268 228 l 1
 164 337 l 1
 136 340 121 353 121 375 c 0
 121 400 137 437 199 437 c 2
 291 437 l 2
 323 437 348 431 348 402 c 0
 348 373 329 352 311 342 c 1
 361 293 l 1
 433 343 l 1
 420 353 415 363 415 375 c 0
EndSplineSet
Validated: 3073
EndChar

StartChar: uni04B6
Encoding: 1206 1206 489
Width: 600
Flags: HMW
LayerCount: 2
Fore
SplineSet
390 520 m 0
 390 545 401 583 468 583 c 2
 570 583 l 2
 603 583 627 577 627 548 c 0
 627 532 619 488 563 483 c 1
 481 100 l 1
 553 100 l 1
 516 -75 l 2
 509 -110 494 -141 452 -141 c 0
 423 -141 413 -125 413 -102 c 0
 413 -94 414 -84 416 -75 c 2
 432 0 l 1
 344 0 l 2
 298 0 287 19 287 38 c 0
 287 63 299 100 365 100 c 2
 381 100 l 1
 404 208 l 1
 372 185 335 170 290 170 c 0
 205 170 122 182 122 274 c 0
 122 283 123 294 125 305 c 2
 163 483 l 1
 136 486 120 499 120 521 c 0
 120 546 132 583 198 583 c 2
 300 583 l 2
 332 583 357 576 357 547 c 0
 357 525 348 483 279 483 c 2
 263 483 l 1
 225 308 l 1
 231 282 274 270 317 270 c 0
 360 270 398 282 425 308 c 1
 463 483 l 1
 447 483 l 2
 415 483 390 491 390 520 c 0
EndSplineSet
Validated: 3073
EndChar

StartChar: uni04B7
Encoding: 1207 1207 490
Width: 600
Flags: HMW
LayerCount: 2
Fore
SplineSet
389 373 m 0
 389 394 403 437 459 437 c 2
 558 437 l 2
 600 437 614 421 614 399 c 0
 614 374 600 337 542 337 c 1
 491 100 l 1
 552 100 l 1
 515 -75 l 2
 508 -110 493 -141 451 -141 c 0
 422 -141 412 -125 412 -102 c 0
 412 -94 413 -84 415 -75 c 2
 431 0 l 1
 376 0 l 2
 337 0 318 12 318 37 c 0
 318 62 334 100 391 100 c 1
 400 141 l 1
 376 122 343 111 306 111 c 0
 218 111 139 130 139 215 c 0
 139 226 141 238 144 252 c 2
 162 337 l 1
 128 337 110 351 110 375 c 0
 110 395 119 437 189 437 c 2
 277 437 l 2
 316 436 334 424 334 399 c 0
 334 374 320 337 262 337 c 1
 244 252 l 2
 244 250 243 247 243 245 c 0
 243 216 287 208 324 208 c 0
 364 208 420 231 424 252 c 2
 441 336 l 1
 408 336 389 349 389 373 c 0
EndSplineSet
Validated: 3073
EndChar

StartChar: uni04E8
Encoding: 1256 1256 516
Width: 600
Flags: HMW
AnchorPoint: "cyr-above" 420 595 basechar 0
LayerCount: 2
Fore
SplineSet
75 222 m 0
 75 438 273 597 427 597 c 0
 548 597 649 505 649 366 c 0
 649 140 450 -14 297 -14 c 0
 165 -14 75 87 75 222 c 0
546 338 m 1
 546 428 489 497 405 497 c 0
 321 497 235 428 197 338 c 1
 546 338 l 1
523 238 m 1
 178 238 l 1
 180 151 236 86 318 86 c 0
 400 86 485 152 523 238 c 1
EndSplineSet
Validated: 3073
EndChar

StartChar: uni04E9
Encoding: 1257 1257 517
Width: 600
Flags: HMW
LayerCount: 2
Fore
SplineSet
84 174 m 0
 84 286 200 450 399 450 c 0
 523 450 609 372 609 260 c 0
 609 115 460 -16 297 -16 c 0
 169 -16 84 60 84 174 c 0
506 257 m 1
 498 312 446 350 376 350 c 0
 302 350 235 311 204 257 c 1
 506 257 l 1
489 177 m 1
 187 177 l 1
 195 122 247 84 318 84 c 0
 392 84 458 123 489 177 c 1
EndSplineSet
Validated: 3073
EndChar

StartChar: hiriqhebrew
Encoding: 1460 1460 536
Width: 0
Flags: HMW
LayerCount: 2
Fore
SplineSet
258 -86 m 0
 258 -62 278 -43 300 -43 c 0
 324 -43 342 -63 342 -86 c 0
 342 -110 321 -129 300 -129 c 0
 279 -129 258 -109 258 -86 c 0
EndSplineSet
Validated: 3073
EndChar

StartChar: patahhebrew
Encoding: 1463 1463 539
Width: 0
Flags: HMW
LayerCount: 2
Fore
SplineSet
233 -42 m 2
 368 -42 l 2
 379 -42 394 -57 394 -68 c 0
 394 -80 379 -95 368 -95 c 2
 233 -95 l 2
 222 -95 206 -80 206 -68 c 0
 206 -57 222 -42 233 -42 c 2
EndSplineSet
Validated: 3073
EndChar

StartChar: qamatshebrew
Encoding: 1464 1464 540
Width: 0
Flags: HMW
LayerCount: 2
Fore
SplineSet
251 -93 m 1
 210 -93 l 2
 200 -93 190 -81 190 -70 c 0
 190 -56 210 -40 222 -40 c 2
 361 -40 l 2
 371 -40 378 -52 378 -62 c 0
 378 -77 362 -93 349 -93 c 2
 305 -93 l 1
 296 -130 l 2
 293 -141 276 -152 265 -152 c 0
 254 -152 241 -144 241 -138 c 0
 241 -136 242 -131 242 -130 c 2
 251 -93 l 1
EndSplineSet
Validated: 3073
EndChar

StartChar: holamhebrew
Encoding: 1465 1465 541
Width: 0
Flags: HMW
LayerCount: 2
Fore
SplineSet
416 655 m 0
 439 655 455 637 455 615 c 0
 455 592 436 574 416 574 c 0
 396 574 376 593 376 615 c 0
 376 638 395 655 416 655 c 0
EndSplineSet
Validated: 3073
EndChar

StartChar: dageshhebrew
Encoding: 1468 1468 543
Width: 0
Flags: HMW
AnchorPoint: "dagesh-heb" 350 240 mark 0
LayerCount: 2
Fore
SplineSet
352 281 m 0
 375 281 391 263 391 241 c 0
 391 218 372 200 352 200 c 0
 332 200 312 219 312 241 c 0
 312 264 331 281 352 281 c 0
EndSplineSet
Validated: 3073
EndChar

StartChar: siluqhebrew
Encoding: 1469 1469 544
Width: 0
Flags: HMW
LayerCount: 2
Fore
SplineSet
233 -178 m 2
 264 -42 l 2
 267 -31 284 -20 295 -20 c 0
 308.062 -20 318 -26.0625 318 -34 c 0
 318 -35 317.714 -38.8668 317 -42 c 2
 286 -178 l 2
 283 -189 265 -200 253 -200 c 0
 239.667 -200 232 -192.333 232 -186 c 0
 232 -185 232.396 -180.649 233 -178 c 2
EndSplineSet
Validated: 3073
EndChar

StartChar: maqafhebrew
Encoding: 1470 1470 545
Width: 0
Flags: HMW
LayerCount: 2
Fore
SplineSet
110 480 m 2
 490 480 l 2
 518 480 540 458 540 430 c 0
 540 402 518 380 490 380 c 2
 110 380 l 2
 82 380 60 402 60 430 c 0
 60 458 82 480 110 480 c 2
EndSplineSet
Validated: 3073
EndChar

StartChar: rafehebrew
Encoding: 1471 1471 546
Width: 0
Flags: HMW
LayerCount: 2
Fore
SplineSet
313 608 m 2
 448 608 l 2
 459 608 474 588 474 576 c 0
 474 565 459 545 448 545 c 2
 313 545 l 2
 302 545 286 565 286 576 c 0
 286 588 302 608 313 608 c 2
EndSplineSet
Validated: 3073
EndChar

StartChar: paseqhebrew
Encoding: 1472 1472 547
Width: 600
Flags: HMW
LayerCount: 2
Fore
SplineSet
300 622 m 0
 341 622 350 593 350 556 c 2
 350 -87 l 2
 350 -124 340 -153 300 -153 c 0
 260 -153 250 -123 250 -87 c 2
 250 556 l 2
 250 594 259 622 300 622 c 0
EndSplineSet
Validated: 3073
EndChar

StartChar: shindothebrew
Encoding: 1473 1473 548
Width: 0
Flags: HMW
LayerCount: 2
Fore
SplineSet
523 569 m 0
 523 593 543 612 565 612 c 0
 589 612 607 592 607 569 c 0
 607 545 586 526 565 526 c 0
 544 526 523 546 523 569 c 0
EndSplineSet
Validated: 3073
EndChar

StartChar: sofpasuqhebrew
Encoding: 1475 1475 550
Width: 600
Flags: HMW
LayerCount: 2
Fore
SplineSet
309 -15 m 2
 291 -15 l 2
 255 -15 225 15 225 51 c 0
 225 87 255 117 291 117 c 2
 309 117 l 2
 346 117 375 88 375 51 c 0
 375 14 346 -15 309 -15 c 2
309 304 m 2
 291 304 l 2
 255 304 225 334 225 370 c 0
 225 407 255 437 291 437 c 2
 309 437 l 2
 346 437 375 408 375 370 c 0
 375 333 346 304 309 304 c 2
EndSplineSet
Validated: 3073
EndChar

StartChar: alefhebrew
Encoding: 1488 1488 552
Width: 600
Flags: HMW
AnchorPoint: "dagesh-heb" 300 -50 basechar 0
LayerCount: 2
Fore
SplineSet
150 420 m 0
 150 456 187 480 212 480 c 0
 225 480 236 475 244 465 c 2
 424 237 l 1
 476 259 499 278 504 303 c 2
 521 380 l 1
 507 380 l 2
 484 380 467 397 467 419 c 0
 467 446 492 480 529 480 c 2
 642 480 l 1
 604 303 l 2
 587 230 535 190 483 162 c 1
 544 85 l 2
 549 78 552 70 552 61 c 0
 552 25 516 0 490 0 c 0
 477 0 466 5 458 15 c 2
 277 244 l 1
 226 223 205 207 198 177 c 2
 181 100 l 1
 195 100 l 2
 218 100 235 83 235 61 c 0
 235 34 210 0 173 0 c 2
 60 0 l 1
 98 177 l 2
 114 250 166 292 218 319 c 1
 159 395 l 2
 153 402 150 411 150 420 c 0
EndSplineSet
Validated: 3073
EndChar

StartChar: bethebrew
Encoding: 1489 1489 553
Width: 600
Flags: HMW
AnchorPoint: "dagesh-heb" 270 270 basechar 0
LayerCount: 2
Fore
SplineSet
70 39 m 0
 70 77 106 100 131 100 c 2
 366 100 l 1
 409 303 l 2
 413 322 415 332 415 340 c 0
 415 373 390 379 349 380 c 2
 191 380 l 2
 166 380 150 397 150 420 c 0
 150 447 176 480 212 480 c 2
 377 480 l 2
 489 480 517 408 517 357 c 0
 517 338 513 320 509 303 c 2
 466 100 l 1
 511 100 l 2
 536 100 552 83 552 60 c 0
 552 33 526 0 490 0 c 2
 110 0 l 2
 86 0 70 16 70 39 c 0
EndSplineSet
Validated: 3073
EndChar

StartChar: gimelhebrew
Encoding: 1490 1490 554
Width: 600
Flags: HMW
AnchorPoint: "dagesh-heb" 250 270 basechar 0
LayerCount: 2
Fore
SplineSet
174 0 m 0
 151 0 133 16 133 40 c 0
 133 74 223 193 392 221 c 1
 409 303 l 2
 413 323 414 333 414 340 c 0
 414 370 388 380 349 380 c 2
 286 380 l 2
 261 380 245 397 245 420 c 0
 245 447 271 480 307 480 c 2
 370 480 l 2
 487 480 517 413 517 358 c 0
 517 339 513 321 509 303 c 2
 484 183 l 1
 488 62 l 1
 488 53 l 2
 488 18 458 0 431 0 c 0
 409 0 387 15 386 38 c 0
 384 121 l 1
 281 104 245 50 219 22 c 0
 207 8 190 0 174 0 c 0
EndSplineSet
Validated: 3073
EndChar

StartChar: dalethebrew
Encoding: 1491 1491 555
Width: 600
Flags: HMW
AnchorPoint: "dagesh-heb" 270 270 basechar 0
LayerCount: 2
Fore
SplineSet
632 441 m 0
 632 403 596 380 571 380 c 2
 526 380 l 1
 456 50 l 2
 450 22 423 0 395 0 c 0
 371 0 355 16 355 39 c 0
 355 43 355 46 356 50 c 2
 426 380 l 1
 191 380 l 2
 166 380 150 397 150 420 c 0
 150 447 176 480 212 480 c 2
 592 480 l 2
 616 480 632 464 632 441 c 0
EndSplineSet
Validated: 3073
EndChar

StartChar: hehebrew
Encoding: 1492 1492 556
Width: 600
Flags: HMW
AnchorPoint: "dagesh-heb" 370 270 basechar 0
LayerCount: 2
Fore
SplineSet
105 50 m 2
 142 222 l 2
 148 250 175 272 203 272 c 0
 226 272 243 255 243 233 c 0
 243 229 243 226 242 222 c 2
 205 50 l 2
 199 22 172 0 145 0 c 0
 121 0 104 17 104 39 c 0
 104 43 104 46 105 50 c 2
472 480 m 2
 584 480 612 408 612 357 c 0
 612 338 608 320 604 303 c 2
 551 50 l 2
 545 22 518 0 490 0 c 0
 466 0 450 16 450 39 c 0
 450 43 450 46 451 50 c 2
 504 303 l 2
 508 322 510 332 510 340 c 0
 510 373 485 380 444 380 c 2
 191 380 l 2
 166 380 150 397 150 420 c 0
 150 447 176 480 212 480 c 2
 472 480 l 2
EndSplineSet
Validated: 3073
EndChar

StartChar: vavhebrew
Encoding: 1493 1493 557
Width: 600
Flags: HMW
AnchorPoint: "dagesh-heb" 250 270 basechar 0
LayerCount: 2
Fore
SplineSet
240 420 m 0
 240 447 266 480 302 480 c 2
 480 480 l 1
 389 50 l 2
 383 22 356 0 328 0 c 0
 304 0 288 16 288 39 c 0
 288 43 288 46 289 50 c 2
 359 380 l 1
 281 380 l 2
 256 380 240 397 240 420 c 0
EndSplineSet
Validated: 3073
EndChar

StartChar: zayinhebrew
Encoding: 1494 1494 558
Width: 600
Flags: HMW
AnchorPoint: "dagesh-heb" 210 270 basechar 0
LayerCount: 2
Fore
SplineSet
569 441 m 0
 569 414 544 380 507 380 c 2
 431 380 l 1
 361 50 l 2
 355 22 328 0 300 0 c 0
 276 0 260 16 260 39 c 0
 260 43 260 46 261 50 c 2
 331 380 l 1
 254 380 l 2
 231 380 214 397 214 419 c 0
 214 445 238 480 275 480 c 2
 529 480 l 2
 552 480 569 463 569 441 c 0
EndSplineSet
Validated: 3073
EndChar

StartChar: hethebrew
Encoding: 1495 1495 559
Width: 600
Flags: HMW
AnchorPoint: "dagesh-heb" 380 270 basechar 0
LayerCount: 2
Fore
SplineSet
510 338 m 0
 510 379 474 379 444 380 c 2
 340 380 l 1
 273 325 l 2
 254 309 252 305 250 297 c 2
 198 50 l 2
 192 22 165 0 137 0 c 0
 114 0 97 17 97 39 c 0
 97 43 97 46 98 50 c 2
 150 297 l 2
 160 346 173 359 199 380 c 1
 191 380 l 2
 166 380 150 397 150 420 c 0
 150 447 176 480 212 480 c 2
 472 480 l 2
 583 480 611 409 611 357 c 0
 611 338 608 320 604 303 c 2
 551 50 l 2
 545 22 518 0 490 0 c 0
 466 0 450 16 450 39 c 0
 450 43 450 46 451 50 c 2
 504 303 l 2
 508 321 510 331 510 338 c 0
EndSplineSet
Validated: 3073
EndChar

StartChar: tethebrew
Encoding: 1496 1496 560
Width: 600
Flags: HMW
AnchorPoint: "dagesh-heb" 410 230 basechar 0
LayerCount: 2
Fore
SplineSet
240 141 m 0
 240 101 275 101 305 100 c 2
 369 100 l 2
 407 101 443 99 462 177 c 2
 505 380 l 1
 498 380 l 1
 382 273 l 2
 370 260 353 253 338 253 c 0
 315 253 297 269 297 292 c 0
 297 306 302 322 315 333 c 0
 481 480 l 1
 626 480 l 1
 562 177 l 2
 527 4 391 0 344 0 c 2
 277 0 l 2
 166 0 138 71 138 123 c 0
 138 142 141 160 145 177 c 2
 188 380 l 1
 175 380 l 2
 150 380 134 397 134 420 c 0
 134 447 160 480 196 480 c 2
 309 480 l 1
 245 177 l 2
 242 160 240 149 240 141 c 0
EndSplineSet
Validated: 3073
EndChar

StartChar: yodhebrew
Encoding: 1497 1497 561
Width: 600
Flags: HMW
AnchorPoint: "dagesh-heb" 220 270 basechar 0
LayerCount: 2
Fore
SplineSet
234 420 m 0
 234 447 260 480 296 480 c 2
 468 480 l 1
 417 240 l 2
 411 212 384 190 356 190 c 0
 333 190 316 207 316 229 c 0
 316 233 316 236 317 240 c 2
 347 380 l 1
 275 380 l 2
 250 380 234 397 234 420 c 0
EndSplineSet
Validated: 3073
EndChar

StartChar: finalkafhebrew
Encoding: 1498 1498 562
Width: 600
Flags: HMW
AnchorPoint: "dagesh-heb" 290 270 basechar 0
LayerCount: 2
Fore
SplineSet
432 480 m 2
 544 480 572 408 572 357 c 0
 572 338 568 320 564 303 c 2
 468 -150 l 2
 462 -178 435 -200 407 -200 c 0
 384 -200 367 -183 367 -161 c 0
 367 -157 367 -154 368 -150 c 2
 464 303 l 2
 468 322 470 332 470 340 c 0
 470 373 444 380 404 380 c 2
 191 380 l 2
 166 380 150 397 150 420 c 0
 150 447 176 480 212 480 c 2
 432 480 l 2
EndSplineSet
Validated: 3073
EndChar

StartChar: kafhebrew
Encoding: 1499 1499 563
Width: 600
Flags: HMW
AnchorPoint: "dagesh-heb" 280 270 basechar 0
LayerCount: 2
Fore
SplineSet
431 480 m 2
 542 480 570 410 570 357 c 0
 570 339 567 320 563 303 c 2
 536 177 l 2
 520 86 452 0 329 0 c 2
 110 0 l 2
 86 0 70 16 70 39 c 0
 70 77 106 100 131 100 c 2
 344 100 l 2
 388 101 419 101 436 177 c 2
 463 303 l 2
 467 321 469 331 469 338 c 0
 469 379 433 379 403 380 c 2
 191 380 l 2
 166 380 150 397 150 420 c 0
 150 447 176 480 212 480 c 2
 431 480 l 2
EndSplineSet
Validated: 3073
EndChar

StartChar: lamedhebrew
Encoding: 1500 1500 564
Width: 600
Flags: HMW
AnchorPoint: "dagesh-heb" 290 270 basechar 0
LayerCount: 2
Fore
SplineSet
268 0 m 0
 244 0 228 17 228 40 c 0
 228 56 236 73 251 85 c 2
 482 275 l 2
 497 289 502 295 504 303 c 2
 521 380 l 1
 141 380 l 1
 183 579 l 2
 189 607 216 629 244 629 c 0
 267 629 284 612 284 590 c 0
 284 586 284 583 283 579 c 2
 262 480 l 1
 642 480 l 1
 604 303 l 2
 595 260 561 224 537 205 c 2
 307 15 l 2
 295 5 281 0 268 0 c 0
EndSplineSet
Validated: 3073
EndChar

StartChar: finalmemhebrew
Encoding: 1501 1501 565
Width: 600
Flags: HMW
AnchorPoint: "dagesh-heb" 360 270 basechar 0
LayerCount: 2
Fore
SplineSet
497 338 m 0
 497 373 469 381 431 381 c 2
 358 381 l 1
 260 300 l 2
 241 283 239 279 237 272 c 2
 201 100 l 1
 449 100 l 1
 492 303 l 2
 495 320 497 330 497 338 c 0
460 480 m 2
 572 480 600 409 600 357 c 0
 600 338 596 320 592 303 c 2
 528 0 l 1
 80 0 l 1
 137 272 l 2
 148 325 185 352 216 380 c 1
 179 380 l 2
 154 380 138 397 138 420 c 0
 138 447 164 480 200 480 c 2
 460 480 l 2
EndSplineSet
Validated: 3073
EndChar

StartChar: memhebrew
Encoding: 1502 1502 566
Width: 600
Flags: HMW
AnchorPoint: "dagesh-heb" 390 270 basechar 0
LayerCount: 2
Fore
SplineSet
115 420 m 0
 115 447 141 480 177 480 c 2
 294 480 l 1
 271 371 l 1
 404 480 l 1
 458 480 l 2
 549 480 611 449 611 357 c 0
 611 338 608 320 604 303 c 2
 540 0 l 1
 345 0 l 2
 321 0 305 16 305 39 c 0
 305 77 341 100 366 100 c 2
 461 100 l 1
 504 303 l 2
 507 320 509 331 509 339 c 0
 509 377 479 379 444 380 c 2
 419 380 l 1
 263 255 l 2
 243 238 247 241 239 222 c 2
 202 50 l 2
 196 22 169 0 142 0 c 0
 118 0 101 17 101 39 c 0
 101 43 101 46 102 50 c 2
 172 380 l 1
 156 380 l 2
 131 380 115 397 115 420 c 0
EndSplineSet
Validated: 3073
EndChar

StartChar: finalnunhebrew
Encoding: 1503 1503 567
Width: 600
Flags: HMW
AnchorPoint: "dagesh-heb" 220 270 basechar 0
LayerCount: 2
Fore
SplineSet
240 420 m 0
 240 447 266 480 302 480 c 2
 480 480 l 1
 346 -150 l 2
 340 -178 313 -200 285 -200 c 0
 262 -200 245 -183 245 -161 c 0
 245 -157 245 -154 246 -150 c 2
 359 380 l 1
 281 380 l 2
 256 380 240 397 240 420 c 0
EndSplineSet
Validated: 3073
EndChar

StartChar: nunhebrew
Encoding: 1504 1504 568
Width: 600
Flags: HMW
AnchorPoint: "dagesh-heb" 290 270 basechar 0
LayerCount: 2
Fore
SplineSet
377 480 m 2
 488 480 516 409 516 357 c 0
 516 338 513 320 509 303 c 2
 445 0 l 1
 173 0 l 2
 150 0 133 17 133 39 c 0
 133 66 158 100 195 100 c 2
 366 100 l 1
 409 303 l 2
 413 321 415 331 415 339 c 0
 415 373 391 379 349 380 c 1
 317 380 l 2
 294 380 277 397 277 419 c 0
 277 446 302 480 339 480 c 2
 377 480 l 2
EndSplineSet
Validated: 3073
EndChar

StartChar: samekhhebrew
Encoding: 1505 1505 569
Width: 600
Flags: HMW
AnchorPoint: "dagesh-heb" 370 270 basechar 0
LayerCount: 2
Fore
SplineSet
509 339 m 0
 509 373 481 381 443 381 c 0
 425 381 405 379 388 379 c 0
 382 379 376 380 370 380 c 1
 272 300 l 2
 256 286 251 280 249 272 c 0
 229 177 l 1
 226 161 224 151 224 143 c 0
 224 108 252 99 291 99 c 0
 309 99 329 101 346 101 c 0
 352 101 358 100 364 100 c 1
 461 180 l 2
 477 194 482 200 484 208 c 0
 504 303 l 1
 507 320 509 331 509 339 c 0
275 -1 m 0
 145 -1 122 73 122 127 c 0
 122 175 141 223 149 272 c 0
 158 323 198 355 228 380 c 1
 191 380 l 2
 166 380 150 397 150 420 c 0
 150 447 176 480 212 480 c 2
 472 480 l 2
 583 480 611 409 611 357 c 0
 611 338 608 320 604 303 c 0
 584 208 l 1
 577 165 541 129 517 110 c 2
 384 0 l 1
 374 0 365 1 355 1 c 0
 327 1 300 -1 275 -1 c 0
EndSplineSet
Validated: 3073
EndChar

StartChar: ayinhebrew
Encoding: 1506 1506 570
Width: 600
Flags: HMW
AnchorPoint: "dagesh-heb" 408 270 basechar 0
LayerCount: 2
Fore
SplineSet
70 39 m 0
 70 77 106 100 131 100 c 2
 231 100 l 1
 243 380 l 1
 191 380 l 2
 166 380 150 397 150 420 c 0
 150 447 176 480 212 480 c 2
 349 480 l 1
 332 100 l 1
 353 100 l 2
 425 100 428 125 448 183 c 2
 514 380 l 1
 476 380 l 2
 451 380 435 397 435 420 c 0
 435 447 461 480 497 480 c 2
 649 480 l 1
 544 170 l 2
 527 121 494 0 339 0 c 2
 110 0 l 2
 86 0 70 16 70 39 c 0
EndSplineSet
Validated: 3073
EndChar

StartChar: finalpehebrew
Encoding: 1507 1507 571
Width: 600
Flags: HMW
AnchorPoint: "dagesh-heb" 360 100 basechar 0
LayerCount: 2
Fore
SplineSet
509 339 m 0
 509 373 481 381 443 381 c 2
 370 381 l 1
 272 300 l 2
 250 280 251 280 246 256 c 1
 330 256 l 2
 354 256 371 239 371 217 c 0
 371 190 346 156 309 156 c 2
 125 156 l 1
 149 272 l 2
 159 323 198 355 228 380 c 1
 191 380 l 2
 166 380 150 397 150 420 c 0
 150 447 176 480 212 480 c 2
 472 480 l 2
 583 480 611 409 611 357 c 0
 611 338 608 320 604 303 c 2
 508 -150 l 2
 502 -178 475 -200 447 -200 c 0
 424 -200 407 -183 407 -161 c 0
 407 -157 407 -154 408 -150 c 2
 504 303 l 2
 507 320 509 331 509 339 c 0
EndSplineSet
Validated: 3073
EndChar

StartChar: pehebrew
Encoding: 1508 1508 572
Width: 600
Flags: HMW
AnchorPoint: "dagesh-heb" 420 320 basechar 0
LayerCount: 2
Fore
SplineSet
70 39 m 0
 70 77 106 100 131 100 c 2
 385 100 l 2
 423 101 457 99 478 177 c 2
 504 303 l 2
 508 322 510 332 510 340 c 0
 510 373 485 379 444 380 c 2
 370 380 l 1
 261 290 l 1
 338 290 l 2
 361 290 378 273 378 251 c 0
 378 224 353 190 316 190 c 2
 132 190 l 1
 152 288 147 311 228 380 c 1
 191 380 l 2
 166 380 150 397 150 420 c 0
 150 447 176 480 212 480 c 2
 472 480 l 2
 584 480 612 408 612 357 c 0
 612 338 607 320 604 303 c 2
 578 177 l 2
 544 7 402 0 370 0 c 2
 110 0 l 2
 86 0 70 16 70 39 c 0
EndSplineSet
Validated: 3073
EndChar

StartChar: finaltsadihebrew
Encoding: 1509 1509 573
Width: 600
Flags: HMW
AnchorPoint: "dagesh-heb" 150 270 basechar 0
LayerCount: 2
Fore
SplineSet
150 420 m 0
 150 447 176 480 212 480 c 2
 357 480 l 1
 331 360 l 1
 359 278 l 1
 519 373 l 1
 521 380 l 1
 476 380 l 2
 451 380 435 397 435 420 c 0
 435 447 461 480 497 480 c 2
 642 480 l 1
 608 320 l 1
 372 180 l 1
 302 -150 l 2
 296 -178 269 -200 242 -200 c 0
 218 -200 201 -183 201 -161 c 0
 201 -157 201 -154 202 -150 c 2
 275 191 l 1
 229 347 l 1
 236 380 l 1
 191 380 l 2
 166 380 150 397 150 420 c 0
EndSplineSet
Validated: 3073
EndChar

StartChar: tsadihebrew
Encoding: 1510 1510 574
Width: 600
Flags: HMW
AnchorPoint: "dagesh-heb" 150 270 basechar 0
LayerCount: 2
Fore
SplineSet
138 420 m 0
 138 447 164 480 200 480 c 2
 345 480 l 1
 321 367 l 1
 392 295 l 1
 506 369 l 1
 509 380 l 1
 464 380 l 2
 439 380 423 397 423 420 c 0
 423 447 449 480 485 480 c 2
 630 480 l 1
 596 319 l 1
 456 229 l 1
 555 127 l 1
 528 0 l 1
 98 0 l 2
 74 0 58 16 58 39 c 0
 58 77 94 100 119 100 c 2
 426 100 l 1
 211 320 l 1
 224 380 l 1
 179 380 l 2
 154 380 138 397 138 420 c 0
EndSplineSet
Validated: 3073
EndChar

StartChar: qofhebrew
Encoding: 1511 1511 575
Width: 600
Flags: HMW
AnchorPoint: "dagesh-heb" 360 270 basechar 0
LayerCount: 2
Fore
SplineSet
140 420 m 0
 140 447 166 480 202 480 c 2
 632 480 l 1
 579 230 l 2
 569 185 548 163 508 129 c 2
 372 14 l 2
 360 4 346 0 333 0 c 0
 309 0 293 17 293 39 c 0
 293 55 301 72 316 85 c 2
 459 204 l 2
 468 212 478 223 479 230 c 2
 511 380 l 1
 181 380 l 2
 156 380 140 397 140 420 c 0
261 222 m 2
 181 -150 l 2
 176 -178 148 -200 121 -200 c 0
 96 -200 80 -183 80 -160 c 0
 80 -156 80 -153 81 -150 c 2
 161 222 l 2
 166 250 194 272 221 272 c 0
 246 272 262 255 262 232 c 0
 262 228 262 225 261 222 c 2
EndSplineSet
Validated: 3073
EndChar

StartChar: reshhebrew
Encoding: 1512 1512 576
Width: 600
Flags: HMW
AnchorPoint: "dagesh-heb" 320 270 basechar 0
LayerCount: 2
Fore
SplineSet
472 480 m 2
 584 480 612 408 612 357 c 0
 612 338 608 320 604 303 c 2
 551 50 l 2
 545 22 518 0 490 0 c 0
 466 0 450 16 450 39 c 0
 450 43 450 46 451 50 c 2
 504 303 l 2
 508 322 510 332 510 340 c 0
 510 373 485 379 444 380 c 1
 191 380 l 2
 166 380 150 397 150 420 c 0
 150 447 176 480 212 480 c 2
 472 480 l 2
EndSplineSet
Validated: 3073
EndChar

StartChar: shinhebrew
Encoding: 1513 1513 577
Width: 600
Flags: HMW
AnchorPoint: "dagesh-heb" 460 270 basechar 0
LayerCount: 2
Fore
SplineSet
266 441 m 0
 266 427 255 380 212 380 c 1
 152 100 l 1
 241 100 l 1
 338 385 l 1
 324 393 318 405 318 419 c 0
 318 447 344 480 380 480 c 2
 443 480 l 2
 467 480 483 464 483 441 c 0
 483 404 449 386 437 382 c 1
 342 100 l 1
 396 100 l 2
 438 102 461 100 490 183 c 2
 557 380 l 1
 535 380 526 394 526 414 c 0
 526 469 576 480 589 480 c 2
 691 480 l 1
 587 170 l 2
 545 42 458 0 383 0 c 2
 31 0 l 1
 133 480 l 1
 226 480 l 2
 250 480 266 464 266 441 c 0
EndSplineSet
Validated: 3073
EndChar

StartChar: tavhebrew
Encoding: 1514 1514 578
Width: 600
Flags: HMW
AnchorPoint: "dagesh-heb" 410 270 basechar 0
LayerCount: 2
Fore
SplineSet
472 480 m 2
 584 480 612 408 612 357 c 0
 612 338 608 320 604 303 c 2
 551 50 l 2
 545 22 518 0 490 0 c 0
 466 0 450 16 450 39 c 0
 450 43 450 46 451 50 c 2
 504 303 l 2
 508 322 510 332 510 340 c 0
 510 373 484 380 444 380 c 2
 336 380 l 1
 286 145 l 2
 274 75 217 0 116 0 c 2
 78 0 l 2
 55 0 38 17 38 39 c 0
 38 66 63 100 100 100 c 2
 131 100 l 2
 162 101 174 98 186 145 c 2
 236 380 l 1
 191 380 l 2
 166 380 150 397 150 420 c 0
 150 447 176 480 212 480 c 2
 472 480 l 2
EndSplineSet
Validated: 3073
EndChar

StartChar: gereshhebrew
Encoding: 1523 1523 582
Width: 600
Flags: HMW
LayerCount: 2
Fore
SplineSet
254 605 m 1
 395 605 l 1
 314 351 l 2
 306 326 298 315 276 315 c 0
 256 315 242 324 242 348 c 0
 242 348 242 349 242 350 c 0
 254 605 l 1
EndSplineSet
Validated: 3073
EndChar

StartChar: endash
Encoding: 8211 8211 584
Width: 600
Flags: HMW
LayerCount: 2
Fore
SplineSet
619 290 m 0
 619 265 603 229 541 229 c 2
 158 229 l 2
 117 229 101 240 101 269 c 0
 101 294 117 329 179 329 c 2
 562 329 l 2
 595 329 619 324 619 290 c 0
EndSplineSet
Validated: 3073
EndChar

StartChar: emdash
Encoding: 8212 8212 585
Width: 600
Flags: HMW
LayerCount: 2
Fore
SplineSet
642 290 m 0
 642 265 626 229 564 229 c 2
 39 229 l 2
 -2 229 -18 240 -18 269 c 0
 -18 294 -2 329 60 329 c 2
 585 329 l 2
 618 329 642 324 642 290 c 0
EndSplineSet
Validated: 3073
EndChar

StartChar: quoteleft
Encoding: 8216 8216 587
Width: 600
Flags: HMW
LayerCount: 2
Fore
SplineSet
323 344 m 1
 191 344 l 1
 207 439 l 1
 328 612 l 2
 339 628 353 636 365 636 c 0
 380 636 391 625 391 612 c 0
 391 605 388 596 384 589 c 2
 316 439 l 1
 323 344 l 1
EndSplineSet
Validated: 3073
EndChar

StartChar: quoteright
Encoding: 8217 8217 588
Width: 600
Flags: HMW
LayerCount: 2
Fore
SplineSet
278 623 m 1
 410 623 l 1
 394 528 l 1
 273 355 l 2
 262 339 248 331 236 331 c 0
 221 331 210 342 210 355 c 0
 210 362 213 371 217 378 c 2
 285 528 l 1
 278 623 l 1
EndSplineSet
Validated: 3073
EndChar

StartChar: quotesinglbase
Encoding: 8218 8218 589
Width: 600
Flags: HMW
LayerCount: 2
Fore
SplineSet
212 98 m 1
 344 98 l 1
 328 3 l 1
 207 -170 l 2
 196 -186 182 -194 170 -194 c 0
 155 -194 144 -183 144 -170 c 0
 144 -163 147 -154 151 -147 c 2
 219 3 l 1
 212 98 l 1
EndSplineSet
Validated: 3073
EndChar

StartChar: dagger
Encoding: 8224 8224 593
Width: 600
Flags: HMW
LayerCount: 2
Fore
SplineSet
589 397 m 0
 589 372 573 337 510 337 c 2
 421 337 l 1
 344 -26 l 2
 333 -86 295 -92 280 -92 c 0
 258 -92 240 -76 240 -55 c 0
 240 -48 241 -42 244 -26 c 0
 321 337 l 1
 231 337 l 2
 198 337 175 342 175 377 c 0
 175 401 191 437 253 437 c 2
 343 437 l 1
 368 556 l 2
 371 570 381 622 432 622 c 0
 455 622 472 606 472 584 c 0
 472 577 471 572 468 556 c 0
 443 437 l 1
 532 437 l 2
 565 437 589 432 589 397 c 0
EndSplineSet
Validated: 3073
EndChar

StartChar: daggerdbl
Encoding: 8225 8225 594
Width: 600
Flags: HMW
LayerCount: 2
Fore
SplineSet
589 397 m 0
 589 372 573 337 510 337 c 2
 421 337 l 1
 391 193 l 1
 480 193 l 2
 514 193 537 188 537 153 c 0
 537 127 521 93 459 93 c 2
 369 93 l 1
 344 -26 l 2
 341 -40 332 -92 280 -92 c 0
 258 -92 240 -76 240 -55 c 0
 240 -48 241 -40 244 -26 c 2
 269 93 l 1
 179 93 l 2
 148 93 123 97 123 133 c 0
 123 157 138 193 200 193 c 2
 291 193 l 1
 321 337 l 1
 231 337 l 2
 198 337 175 342 175 377 c 0
 175 401 190 437 252 437 c 2
 343 437 l 1
 368 556 l 2
 371 572 381 622 432 622 c 0
 455 622 472 606 472 584 c 0
 472 577 471 572 468 556 c 0
 442 437 l 1
 532 437 l 2
 565 437 589 432 589 397 c 0
EndSplineSet
Validated: 3073
EndChar

StartChar: bullet
Encoding: 8226 8226 595
Width: 600
Flags: HMW
LayerCount: 2
Fore
SplineSet
329 373 m 0
 413 373 479 307 479 222 c 0
 479 141 411 74 329 74 c 0
 247 74 180 141 180 224 c 0
 180 306 247 373 329 373 c 0
EndSplineSet
Validated: 3073
EndChar

StartChar: ellipsis
Encoding: 8230 8230 596
Width: 600
Flags: HMW
LayerCount: 2
Fore
SplineSet
105 -15 m 2
 88 -15 l 2
 56 -15 34 7 34 38 c 0
 34 78 74 117 116 117 c 2
 133 117 l 2
 165 117 187 95 187 65 c 0
 187 24 147 -15 105 -15 c 2
305 -15 m 2
 288 -15 l 2
 256 -15 234 7 234 38 c 0
 234 78 274 117 316 117 c 2
 333 117 l 2
 365 117 387 95 387 65 c 0
 387 24 347 -15 305 -15 c 2
505 -15 m 2
 488 -15 l 2
 456 -15 434 7 434 38 c 0
 434 78 474 117 516 117 c 2
 533 117 l 2
 565 117 587 95 587 65 c 0
 587 24 547 -15 505 -15 c 2
EndSplineSet
Validated: 3073
EndChar

StartChar: perthousand
Encoding: 8240 8240 597
Width: 600
Flags: HMW
LayerCount: 2
Fore
SplineSet
549 377 m 2
 159 259 l 2
 146 255 144 255 138 255 c 0
 126 255 116 266 116 281 c 0
 116 300 127 311 153 319 c 2
 542 436 l 2
 555 440 557 440 563 440 c 0
 575 440 585 429 585 415 c 0
 585 396 574 385 549 377 c 2
247 618 m 0
 302 618 341 580 341 526 c 0
 341 454 271 386 197 386 c 0
 143 386 104 425 104 478 c 0
 104 550 174 618 247 618 c 0
235 560 m 0
 198 560 163 526 163 490 c 0
 163 464 183 444 209 444 c 0
 247 444 282 478 282 514 c 0
 282 541 262 560 235 560 c 0
263 232 m 0
 318 232 357 194 357 139 c 0
 357 67 287 0 213 0 c 0
 159 0 120 39 120 92 c 0
 120 164 190 232 263 232 c 0
251 174 m 0
 214 174 179 140 179 104 c 0
 179 78 199 58 225 58 c 0
 263 58 298 92 298 128 c 0
 298 155 278 174 251 174 c 0
533 232 m 0
 588 232 627 194 627 139 c 0
 627 67 557 0 483 0 c 0
 429 0 390 39 390 92 c 0
 390 164 460 232 533 232 c 0
521 174 m 0
 484 174 449 140 449 104 c 0
 449 78 469 58 495 58 c 0
 533 58 568 92 568 128 c 0
 568 155 548 174 521 174 c 0
EndSplineSet
Validated: 3073
EndChar

StartChar: guilsinglleft
Encoding: 8249 8249 598
Width: 600
Flags: HMW
LayerCount: 2
Fore
SplineSet
222 218 m 1
 343 77 l 2
 350 69 354 61 354 55 c 0
 354 38 334 20 314 20 c 0
 305 20 301 22 289 33 c 2
 80 218 l 1
 367 402 l 2
 384 413 389 415 398 415 c 0
 414 415 425 405 425 391 c 0
 425 380 419 370 403 358 c 2
 222 218 l 1
EndSplineSet
Validated: 3073
EndChar

StartChar: guilsinglright
Encoding: 8250 8250 599
Width: 600
Flags: HMW
LayerCount: 2
Fore
SplineSet
476 217 m 1
 355 358 l 2
 348 366 344 374 344 380 c 0
 344 397 364 415 384 415 c 0
 393 415 397 413 409 402 c 2
 617 217 l 1
 331 33 l 2
 314 22 309 20 300 20 c 0
 284 20 273 30 273 44 c 0
 273 55 279 65 295 77 c 2
 476 217 l 1
EndSplineSet
Validated: 3073
EndChar

StartChar: fraction
Encoding: 8260 8260 600
Width: 600
Flags: HMW
LayerCount: 2
Fore
SplineSet
628 398 m 2
 137 119 l 2
 116 107 102 102 91 102 c 0
 70 102 52 121 52 143 c 0
 52 169 63 183 101 204 c 2
 591 483 l 2
 615 497 624 500 637 500 c 0
 658 500 676 482 676 460 c 0
 676 434 664 419 628 398 c 2
EndSplineSet
Validated: 3073
EndChar

StartChar: zerosuperior
Encoding: 8304 8304 601
Width: 600
Flags: HMW
LayerCount: 2
Fore
SplineSet
452 767 m 0
 523 767 554 716 554 650 c 0
 554 633 552 615 548 596 c 2
 536 539 l 2
 518 455 463 368 368 368 c 0
 297 368 266 419 266 485 c 0
 266 502 268 520 272 539 c 2
 284 596 l 2
 302 680 357 767 452 767 c 0
352 601 m 2
 338 534 l 2
 335 520 334 508 334 497 c 0
 334 458 351 435 382 435 c 0
 422 435 455 473 468 534 c 2
 482 601 l 2
 485 615 486 627 486 638 c 0
 486 677 469 700 438 700 c 0
 398 700 365 662 352 601 c 2
EndSplineSet
Validated: 3073
EndChar

StartChar: foursuperior
Encoding: 8308 8308 602
Width: 600
Flags: HMW
LayerCount: 2
Fore
SplineSet
320 397 m 0
 320 415 330 439 371 439 c 2
 390 439 l 1
 393 455 l 1
 230 455 l 1
 242 510 l 1
 439 752 l 1
 523 752 l 1
 474 522 l 1
 494 521 505 512 505 498 c 0
 505 488 500 457 460 455 c 1
 457 439 l 1
 477 438 488 429 488 414 c 0
 488 389 468 372 436 372 c 2
 357 372 l 2
 333 372 320 381 320 397 c 0
407 522 m 1
 435 651 l 1
 328 522 l 1
 407 522 l 1
EndSplineSet
Validated: 3073
EndChar

StartChar: fivesuperior
Encoding: 8309 8309 603
Width: 600
Flags: HMW
LayerCount: 2
Fore
SplineSet
551 733 m 0
 551 719 541 691 502 691 c 2
 385 691 l 1
 372 630 l 1
 395 636 410 640 428 640 c 0
 491 640 531 596 531 534 c 0
 531 441 461 369 347 369 c 0
 278 369 229 392 229 423 c 0
 229 442 249 468 267 468 c 0
 297 468 288 436 360 436 c 0
 448 436 463 488 463 521 c 0
 463 551 447 573 413 573 c 0
 369 573 335 547 315 547 c 0
 301 547 294 558 294 572 c 0
 294 576 295 581 296 585 c 2
 332 758 l 1
 525 758 l 2
 546 758 551 744 551 733 c 0
EndSplineSet
Validated: 3073
EndChar

StartChar: sixsuperior
Encoding: 8310 8310 604
Width: 600
Flags: HMW
LayerCount: 2
Fore
SplineSet
571 730 m 0
 571 709 549 690 532 690 c 0
 523 690 508 698 497 698 c 0
 440 698 370 653 340 578 c 1
 376 609 398 620 429 620 c 0
 484 620 521 577 521 522 c 0
 521 491 498 368 368 368 c 0
 286 368 259 419 259 494 c 0
 259 658 402 767 508 767 c 0
 547 767 571 751 571 730 c 0
411 553 m 0
 377 553 331 519 331 495 c 0
 331 450 350 435 384 435 c 0
 438 435 453 491 453 507 c 0
 453 533 436 553 411 553 c 0
EndSplineSet
Validated: 3073
EndChar

StartChar: sevensuperior
Encoding: 8311 8311 605
Width: 600
Flags: HMW
LayerCount: 2
Fore
SplineSet
317 664 m 0
 302 664 293 672 293 689 c 0
 293 693 294 698 295 704 c 2
 307 764 l 1
 572 764 l 1
 560 703 l 1
 401 413 l 2
 389 391 379 383 363 383 c 0
 348 383 333 394 333 408 c 0
 333 417 339 429 342 434 c 2
 486 697 l 1
 354 697 l 1
 349 675 336 664 317 664 c 0
EndSplineSet
Validated: 3073
EndChar

StartChar: eightsuperior
Encoding: 8312 8312 606
Width: 600
Flags: HMW
LayerCount: 2
Fore
SplineSet
568 676 m 0
 568 614 510 581 494 572 c 1
 522 553 535 528 535 499 c 0
 535 473 512 368 377 368 c 0
 309 368 266 403 266 455 c 0
 266 525 327 561 348 572 c 1
 322 591 310 613 310 637 c 0
 310 692 371 767 462 767 c 0
 524 767 568 728 568 676 c 0
428 603 m 0
 473 603 499 637 499 661 c 0
 499 683 478 700 448 700 c 0
 392 700 377 657 377 644 c 0
 377 621 398 603 428 603 c 0
392 435 m 0
 452 435 468 477 468 490 c 0
 468 514 444 535 413 535 c 0
 380 535 336 509 336 475 c 0
 336 452 359 435 392 435 c 0
EndSplineSet
Validated: 3073
EndChar

StartChar: ninesuperior
Encoding: 8313 8313 607
Width: 600
Flags: HMW
LayerCount: 2
Fore
SplineSet
269 405 m 0
 269 426 291 445 308 445 c 0
 317 445 332 437 343 437 c 0
 400 437 470 482 500 557 c 1
 464 526 442 515 411 515 c 0
 356 515 319 558 319 613 c 0
 319 644 342 767 472 767 c 0
 541 767 578 730 578 645 c 0
 578 471 432 368 332 368 c 0
 293 368 269 384 269 405 c 0
429 582 m 0
 460 582 509 614 509 641 c 0
 509 685 492 700 456 700 c 0
 398 700 387 643 387 627 c 0
 387 602 403 582 429 582 c 0
EndSplineSet
Validated: 3073
EndChar

StartChar: afii57636
Encoding: 8362 8362 618
Width: 600
Flags: HMW
LayerCount: 2
Fore
SplineSet
384 100 m 2
 441 102 448 109 458 145 c 2
 518 430 l 2
 524 458 551 480 579 480 c 0
 603 480 619 464 619 441 c 0
 619 437 619 434 618 430 c 2
 558 145 l 2
 547 75 484 0 372 0 c 2
 123 0 l 1
 173 234 l 2
 179 262 205 284 233 284 c 0
 257 284 274 267 274 245 c 0
 274 241 274 238 273 234 c 2
 244 100 l 1
 384 100 l 2
152 380 m 1
 82 50 l 2
 76 22 49 0 21 0 c 0
 -3 0 -19 16 -19 39 c 0
 -19 43 -19 46 -18 50 c 2
 73 480 l 1
 285 480 l 2
 414 480 446 408 446 351 c 0
 446 334 442 318 439 303 c 2
 425 234 l 2
 419 206 392 184 364 184 c 0
 340 184 324 200 324 223 c 0
 324 227 324 230 325 234 c 2
 339 303 l 2
 342 320 344 330 344 336 c 0
 344 355 325 380 249 380 c 2
 152 380 l 1
EndSplineSet
Validated: 3073
EndChar

